<svg width="120" height="120" fill="none" xmlns="http://www.w3.org/2000/svg"><rect width="120" height="120" rx="10" fill="#28A8EA"/><path fill-rule="evenodd" clip-rule="evenodd" d="M55.706 40.832c-19.748 7.6-36.326 14.075-36.84 14.392C17.809 55.876 17 56.939 17 57.68c0 .295.28.781.674 1.175.544.542 1.25.853 3.654 1.611 1.638.516 6.017 1.9 9.731 3.076l6.752 2.137 20.52-12.93c11.287-7.112 20.938-13.148 21.447-13.414 1.16-.605 2.337-.575 2.428.063.048.334-3.601 3.711-17.037 15.77-9.906 8.889-17.134 15.524-17.184 15.771-.088.437-1.149 16.867-1.143 17.7.004.58.421.59 1.645.036.598-.27 2.01-1.475 4.014-3.427 1.7-1.656 3.894-3.785 4.874-4.733l1.782-1.722 9.127 6.725c5.02 3.7 9.534 6.905 10.031 7.124 1.35.596 3.1.429 3.952-.377a6.04 6.04 0 0 0 1.02-1.344c.21-.408 1.033-3.776 1.829-7.483C95.166 36.573 96.06 32.23 95.997 30.633c-.07-1.745-.381-2.364-1.603-3.192-1.471-.997.274-1.602-38.688 13.391Z" fill="#fff"/></svg>