<svg width="18" height="18" fill="none" xmlns="http://www.w3.org/2000/svg"><path d="M6.187 7.594h5.625a.563.563 0 0 0 .563-.563V6.47a.562.562 0 0 0-.563-.563H6.187a.562.562 0 0 0-.562.563v.562c0 .311.252.563.562.563Zm-.562 2.812c0 .311.252.563.562.563h5.625a.563.563 0 0 0 .563-.563v-.562a.562.562 0 0 0-.563-.563H6.187a.562.562 0 0 0-.562.563v.562ZM9 14.665a2.808 2.808 0 0 1-1.647-.534L0 8.819v7.493C0 17.244.756 18 1.687 18h14.625c.932 0 1.688-.756 1.688-1.688V8.82l-7.353 5.312A2.81 2.81 0 0 1 9 14.665Zm8.353-8.936a66.062 66.062 0 0 0-1.04-.802V3.375c0-.932-.756-1.687-1.688-1.687h-2.726l-.318-.231C10.99 1.026 9.816-.013 9 0c-.816-.012-1.99 1.026-2.58 1.457l-.319.23H3.375c-.932 0-1.688.756-1.688 1.688v1.552c-.434.328-.73.558-1.04.802A1.687 1.687 0 0 0 0 7.057v.374l3.375 2.438V3.375h11.25V9.87L18 7.431v-.374c0-.519-.238-1.008-.647-1.328Z" fill="#F76969"/></svg>