<svg width="32" height="32" fill="none" xmlns="http://www.w3.org/2000/svg"><path d="M32 16a16.003 16.003 0 0 0-9.877-14.782A15.995 15.995 0 0 0 16 0v3.2a12.805 12.805 0 0 1 9.051 3.75A12.798 12.798 0 0 1 28.8 16H32ZM0 12.8v-8a1.6 1.6 0 0 1 1.6-1.6h8a1.6 1.6 0 0 1 1.6 1.6v6.4a1.6 1.6 0 0 1-1.6 1.6H6.4c0 7.07 5.73 12.8 12.8 12.8v-3.2a1.6 1.6 0 0 1 1.6-1.6h6.4a1.6 1.6 0 0 1 1.6 1.6v8a1.6 1.6 0 0 1-1.6 1.6h-8C8.596 32 0 23.404 0 12.8Z" fill="#fff"/><path d="M24.87 12.326A9.602 9.602 0 0 1 25.6 16h-2.88A6.72 6.72 0 0 0 16 9.28V6.4a9.601 9.601 0 0 1 8.87 5.926Z" fill="#fff"/></svg>