<svg width="55" height="50" fill="none" xmlns="http://www.w3.org/2000/svg"><path d="M27.493 49.231c-7.126 0-14.256.015-21.382-.003-5.108-.015-7.658-4.35-5.115-8.779A10053.133 10053.133 0 0 1 22.45 3.273c2.533-4.364 7.547-4.364 10.08 0a10371.46 10371.46 0 0 1 21.547 37.33c2.42 4.21-.151 8.603-5.018 8.625-7.187.028-14.375.007-21.562.007l-.004-.004Zm.008-2.072c7.004 0 14.008.01 21.016-.004 4.066-.007 5.52-2.51 3.505-5.998C45.054 29.08 38.09 17 31.118 4.929c-2.18-3.775-5.065-3.775-7.249.004A71012.23 71012.23 0 0 0 3.244 40.7C.85 44.856 2.2 47.155 7.027 47.16h20.477-.004Z" fill="#035FB1"/><path d="M31.38 23.671c0 1.972.043 3.948-.01 5.916-.072 2.51-1.513 3.869-3.959 3.84-2.334-.029-3.757-1.39-3.79-3.822-.053-3.883-.057-7.77 0-11.656.037-2.456 1.624-3.95 3.956-3.908 2.24.04 3.728 1.523 3.796 3.894.054 1.91.01 3.825.01 5.736h-.003Zm-2.09.17c0-1.854-.022-3.704.007-5.558.018-1.25-.37-2.133-1.782-2.144-1.39-.01-1.839.812-1.831 2.09.021 3.704.025 7.407 0 11.114-.011 1.307.495 2.069 1.867 2.04 1.286-.025 1.76-.772 1.742-1.99-.025-1.85-.007-3.703-.007-5.556l.004.003Zm-1.706 11.623c2.08.035 3.764 1.724 3.778 3.778a3.872 3.872 0 0 1-3.868 3.89c-2.134.007-3.9-1.77-3.869-3.886.033-2.148 1.782-3.819 3.959-3.782Zm1.947 4.317.035-.837c-.686-.478-1.422-1.394-2.04-1.318-.66.079-1.555 1.02-1.692 1.717-.09.452.956 1.551 1.56 1.605.675.058 1.422-.74 2.137-1.167Z" fill="#035FB1"/></svg>