<svg width="50" height="51" fill="none" xmlns="http://www.w3.org/2000/svg"><rect width="50" height="50.588" rx="10" fill="#28A8EA"/><path fill-rule="evenodd" clip-rule="evenodd" d="M23.21 17.214c-8.229 3.204-15.136 5.934-15.35 6.067-.441.275-.778.723-.778 1.036 0 .124.116.33.281.495.227.229.521.36 1.522.68.683.217 2.508.8 4.055 1.296l2.813.901 8.55-5.451c4.703-2.998 8.724-5.543 8.936-5.655.484-.255.974-.242 1.012.027.02.14-1.5 1.564-7.099 6.648-4.127 3.747-7.139 6.544-7.16 6.649-.036.184-.478 7.11-.476 7.461.002.245.176.249.686.015.249-.113.837-.621 1.672-1.444a994.08 994.08 0 0 1 2.031-1.995l.742-.726 3.803 2.835c2.092 1.56 3.973 2.91 4.18 3.003.563.251 1.292.18 1.647-.159.145-.14.337-.395.424-.567.088-.172.431-1.591.763-3.154 4.187-19.757 4.56-21.588 4.534-22.262-.03-.735-.16-.996-.668-1.345-.613-.42.114-.676-16.12 5.645Z" fill="#fff"/></svg>