<svg width="50" height="50" fill="none" xmlns="http://www.w3.org/2000/svg"><rect width="50" height="50" rx="10" fill="#4B76A4"/><path fill-rule="evenodd" clip-rule="evenodd" d="M21.375 14.596c-.706.052-1.6.189-1.957.3-.615.193-1.38.878-1.239 1.109.026.042.169.1.317.127.665.124 1.226.505 1.477 1.001.43.849.623 3.503.392 5.382-.153 1.242-.218 1.53-.444 1.98-.608 1.208-2.003.23-3.541-2.481-.547-.965-2.087-4.062-2.431-4.889-.416-.998-.547-1.182-1.02-1.425l-.398-.204-3.008.022c-2.717.02-3.031.034-3.244.15-.336.186-.48.439-.435.768.047.352 1.188 2.908 2.03 4.545 1.636 3.188 3.023 5.503 4.505 7.523 2.18 2.971 3.144 3.935 5.371 5.37 1.04.668 1.79 1.043 2.719 1.355 1.275.43 1.83.512 3.733.556 1.894.044 2.438-.011 2.84-.287.33-.227.433-.54.494-1.515.061-.963.248-1.787.504-2.228.226-.389.718-.838.928-.848.736-.037 1.148.271 2.685 2.007 1.441 1.628 1.974 2.107 2.77 2.49.359.174.8.35.979.391.435.1 6.306-.012 6.685-.129.375-.115.78-.514.789-.78.025-.724-.08-1.051-.583-1.817-.662-1.007-1.23-1.65-3.166-3.58-2.055-2.05-2.198-2.241-2.201-2.927-.003-.576.264-1.018 2.069-3.426 2.545-3.397 3.564-5.038 3.847-6.195.166-.679.072-1.006-.357-1.237l-.305-.164-3.661.024c-2.588.017-3.713.05-3.84.11-.245.117-.506.543-.832 1.363-.87 2.184-2.66 5.33-3.84 6.747-.469.564-1.199 1.141-1.442 1.141-.34 0-.62-.22-.832-.656l-.197-.403.02-3.792c.022-4.078.013-4.199-.362-4.737-.369-.53-1.268-.712-3.68-.744-.977-.013-1.94-.012-2.14.003Z" fill="#fff"/></svg>