<svg width="228" height="165" fill="none" xmlns="http://www.w3.org/2000/svg"><path d="M143.792 51.993c-.15-.064-.314-.121-.493-.185.036-.072 1.356-2.954.814-5.458 0 0-2.633-1.084-3.71-2.76a2.357 2.357 0 0 1-.221-.479c-.507-1.32-1.256-4.544-2.433-8.033-1.584-4.68-3.945-9.838-7.541-11.472 0 0 1.413-1.17.963-3.817-.135-.806-.442-1.748-1.013-2.832l-.014-.007c.692-1.292 1.291-3.282.535-5.78 0 0-2.69.836-4.566 3.019 1.869-7.135 5.13-12.107 5.229-12.264 0 0-9.881 1.084-20.368 13.434v.071a39.28 39.28 0 0 0-5.18.328 41.081 41.081 0 0 0-4.187.75 40.758 40.758 0 0 0-8.875 3.167l-.036-.064c-14.86-6.443-24.207-3.054-24.207-3.054s5.208 3.032 10.117 8.69c-2.654-1.134-5.43-.692-5.43-.692.428 2.568 1.841 4.095 3.033 4.951l-.008.014c-.014.564.008 1.078.058 1.534.413 3.874 2.839 4.46 2.839 4.46-2.497 3.052-2.34 8.724-1.698 13.626.442 3.346 1.113 6.328 1.32 7.89.057.414.078.728.057.92-.221 1.984-2.112 4.117-2.112 4.117.635 2.511 3.146 4.537 3.146 4.537a7.12 7.12 0 0 0-1.041 1.306c2.69 4.195 6.884 6.642 11.486 7.997 11.351 3.346 25.205.086 25.205.086s6.742-1.555 13.77-5.208c6.784-3.524 13.833-9.003 15.374-16.93.086-.435.15-.87.207-1.32 0-.014-.385-.278-1.02-.542Zm-24.935 15.46a24.128 24.128 0 0 1-1.148 2.804 4.493 4.493 0 0 1-6.792 1.577 23.377 23.377 0 0 1-2.269-2.005l-.157-.157c-2.532-2.575-3.909-5.058-3.909-5.058 3.26.05 5.4-1.734 6.47-2.947a2.488 2.488 0 0 0 .557-2.218 2.493 2.493 0 0 0 1.484 1.748c1.498.613 4.209 1.262 7.106-.215 0 0-.143 2.947-1.342 6.471Z" fill="#FF9700"/><path d="M143.207 94.663c0 .307-.022.607-.064.9-.293 1.975-1.62 3.452-5.244 2.824l-.371-.042c-.507 1.262-1.477 2.311-3.218 2.661-.627.128-1.355.164-2.204.085-.5.671-1.306 1.177-2.547 1.384-4.167.699-6.335-1.676-7.22-3.046 0 0-1.848.15-4.851.328-5.836.357-16.038.863-25.598.721a162.05 162.05 0 0 1-3.246-.079c-.343-1.79-.521-3.674-.578-5.572a51.581 51.581 0 0 1 .057-4.701c.1-1.877.285-3.696.5-5.372a79.92 79.92 0 0 1 .727-4.609c.485-2.597.913-4.252.913-4.252 1.477.435 3.004.756 4.53.992 10.195 1.555 20.676-.907 20.676-.907s1.327-.306 3.424-.97c2.618-.827 6.435-2.204 10.345-4.237 0 0 4.387 6.114 6.157 12.948.214.806.385 1.627.506 2.447 5.458 1.277 5.907 2.569 5.907 2.569s.279.62.585 1.548c.393 1.184.828 2.853.814 4.38Z" fill="#FF9700"/><path d="M149.814 75.187s-.343.292-.949.77l-.007.022c-1.677-.578-3.603.642-3.603 2.59v.02c-2.711 1.841-6.307 3.96-9.867 5.145-.692-2.669-1.776-5.223-2.846-7.349-1.677-3.331-3.311-5.607-3.311-5.607 4.145-2.155 8.39-5.037 11.415-8.761 1.927-2.369 3.361-5.087 3.96-8.169 0 0 7.113-3.952 7.705 3.917 0 0 8.961-2.347 5.322 6.991.007-.007 9.111 8.519-7.819 10.43Z" fill="#FF9700"/><path d="M77.393 49.125s-10.922-11.372-8.896-32.582c0 0 5.208 3.032 10.116 8.69-2.654-1.135-5.429-.692-5.429-.692.428 2.568 1.84 4.095 3.032 4.95l-.007.015c-.143 5.265 2.89 5.993 2.89 5.993-2.505 3.06-2.348 8.725-1.706 13.626Zm60.356-14.047c-1.584-4.68-3.946-9.838-7.541-11.472 0 0 2.397-1.99-.057-6.65l-.015-.006c.692-1.292 1.292-3.282.535-5.78 0 0-2.689.836-4.566 3.019 1.898-7.249 5.23-12.264 5.23-12.264 11.186 18.12 6.414 33.153 6.414 33.153Zm7.063 17.444c-.05.45-.121.884-.207 1.32-1.541 7.926-8.597 13.405-15.374 16.93-7.035 3.652-13.77 5.207-13.77 5.207s-13.862 3.26-25.205-.085c-4.609-1.356-8.804-3.803-11.486-7.998 0 0 .356-.628 1.041-1.305 0 0-2.511-2.027-3.146-4.538 0 0 1.883-2.14 2.112-4.116.021-.193 0-.507-.057-.92 1.52-1.356 4.03-3.09 6.47-2.484 3.867.956 19.67 2.419 25.006 1.192 5.337-1.227 17.715-8.197 22.673-12.114 1.748-1.377 4.495-1.249 7.327-.507.078.207.15.371.221.478 1.077 1.677 3.71 2.761 3.71 2.761.535 2.504-.785 5.387-.813 5.458.899.314 1.498.72 1.498.72Z" fill="#FFE3C2"/><path d="M120.198 60.983s-.143 2.947-1.341 6.478c0 0-2.312-1.02-5.451-.293-3.139.728-4.758 2.669-4.758 2.669-2.633-2.633-4.067-5.222-4.067-5.222 3.26.05 5.401-1.734 6.471-2.947a2.487 2.487 0 0 0 .556-2.219 2.495 2.495 0 0 0 1.484 1.748c1.498.606 4.202 1.263 7.106-.214Z" fill="#000566"/><path d="M24 121.274a6.086 6.086 0 0 1-.28-.307c-1.126-1.327-2.168-3.624-1.683-7.476.221-1.791.82-3.532 1.862-5.009 1.777-2.518 3.838-3.11 5.408-3.096-.007 0 1.563 12.157-5.308 15.888Z" fill="#FFD00D"/><path d="M25.955 122.616s-.97-.321-1.955-1.341c6.87-3.731 5.3-15.888 5.3-15.888 1.47.014 2.512.556 2.512.556s1.784 13.463-5.857 16.673Z" fill="#588ECB"/><path d="M162.148 95.841c-4.595 1.363-11.479 1.912-11.479 1.912s-2.141-1.47-5.408-1.997V78.562c0-1.948 1.926-3.168 3.603-2.59.271.093.527.236.777.421 3.974 3.068 9.66 9.04 12.507 19.448Z" fill="#8FD4FF"/><path d="M208.178 122.559c-.891 3.017-2.725 5.258-3.952 6.485a12.07 12.07 0 0 1-1.213 1.091c-12.128-9.645-12.342-21.567-12.342-21.567s1.191-.314 2.961-.514a23.944 23.944 0 0 1 3.553-.156c.007.007 2.332 8.661 10.993 14.661Z" fill="#588ECB"/><path d="M208.178 122.559c-8.662-6-10.994-14.654-10.994-14.654 4.03.122 8.782 1.406 10.615 6.343 1.185 3.174 1.063 5.978.379 8.311Z" fill="#FFD00D"/><path d="M81.945 100.021s-14.925 5.13-20.02-5.394c0 0-.242-11.8 6.493-13.861 1.755-.535 3.517.513 5.158 2.361 4.659 5.244 8.369 16.894 8.369 16.894Z" fill="#588ECB"/><path d="M93.232 144.032c-8.198-.328-13.713-.828-13.713-.828a3.63 3.63 0 0 0 .628-1.184c6.485-20.211-19.897-34.38-37.633-24.927-14.94 7.969-14.547 21.617-13.926 26.247.021.15.057.3.1.442l-.378.093h-3.96c-3.09-9.282-.628-22.915-.628-22.915 1.077 1.27 2.233 1.655 2.233 1.655 6.114-2.569 6.193-11.708 5.979-15.253a28.85 28.85 0 0 0-.122-1.427c9.375-11.372 30.114-11.308 30.114-11.308a11.473 11.473 0 0 0 2.112 3.046c6.221 6.364 17.907 2.347 17.907 2.347 1.905.165 3.938.279 6.043.357l.65.022c1.07.035 2.154.064 3.245.078-.164 1.035-3.995 25.634 1.349 43.555Z" fill="#588ECB"/><path d="M204.227 129.05c-.714.713-1.22 1.092-1.22 1.092-12.128-9.646-12.342-21.567-12.342-21.567s1.191-.314 2.96-.514l-.021-.186c-11.101-10.551-31.462-12.035-31.462-12.035-3.767 1.12-9.082 1.683-10.866 1.855-.392.043-.613.057-.613.057-.971 5.279-5.28 7.584-10.552 7.584-5.279 0-5.8-4.324-5.8-4.324-.628.129-1.356.164-2.205.086-.499.67-1.305 1.177-2.547 1.384-4.166.699-6.335-1.677-7.22-3.046 0 0-4.58.363-11.065.67-5.622.264-12.663.485-19.384.385-.164 1.035-3.995 25.627 1.342 43.555 13.598.542 34.558.6 49.897-2.946a9.169 9.169 0 0 1-.642-1.798s-4.352-26.326 27.189-26.326c15.196 0 21.973 8.947 24.941 18.015.949 2.882 1.505 5.778 1.826 8.404a3.93 3.93 0 0 1-.014 1.084l.264.043c6.207-1.955 7.363-7.177 7.527-9.845.078-.992.007-1.627.007-1.627Zm-99.031-19.605-8.604.357a1.954 1.954 0 0 1-1.955-1.955c0-.542.221-1.027.57-1.384a1.945 1.945 0 0 1 1.385-.578l8.689.92a1.317 1.317 0 0 1 1.178 1.313 1.318 1.318 0 0 1-1.263 1.327Zm-25.05 32.576a3.777 3.777 0 0 1-.628 1.185 3.624 3.624 0 0 1-2.261 1.334 3.16 3.16 0 0 1-.507.043c-1.006-.007-1.926-.571-2.083-2.519-.036-.421-.086-.92-.164-1.484-.792-5.507-4.416-16.922-22.03-16.922-15.603 0-18.593 13.07-19.156 18.199-.136 1.249-.136 2.027-.136 2.027s-.414 1.305-1.79 1.569c-.357.071-.714.05-1.042-.043-.77-.214-1.399-.827-1.655-1.612a2.86 2.86 0 0 1-.1-.442c-.621-4.638-1.013-18.278 13.926-26.248 17.728-9.467 44.111 4.702 37.626 24.913Z" fill="#588ECB"/><path d="M196.436 140.473a4 4 0 0 1-2.219 3.032c-.3.143-.621.25-.963.307-.107.022-.229.036-.343.05-2.176.25-4.123-1.362-4.359-3.524-.007-.029-.007-.064-.014-.093-.442-5.137-3.232-18.15-20.119-18.15-16.209 0-17.985 12.093-17.942 17.636 0 .371-.05.728-.143 1.071-.528 1.89-2.454 3.189-4.459 2.696a1.234 1.234 0 0 1-.079-.021c-.998-.271-1.969-.956-2.675-2.383a9.145 9.145 0 0 1-.642-1.798s-4.352-26.325 27.189-26.325c20.033 0 25.441 15.545 26.775 26.418.05.371.05.735-.007 1.084Z" fill="#588ECB"/><path d="M62.653 135.657a8.974 8.974 0 0 1-8.982 8.975 8.973 8.973 0 0 1-8.975-8.975c0-4.958 4.017-8.982 8.975-8.982 4.966.007 8.982 4.024 8.982 8.982Zm115.783 0c0 4.958-4.017 8.975-8.983 8.975a8.973 8.973 0 0 1-8.974-8.975c0-4.958 4.016-8.982 8.974-8.982 4.966.007 8.983 4.024 8.983 8.982Z" fill="#fff"/><path d="M87.987 100.378a125.057 125.057 0 0 1-6.043-.357s-3.71-11.65-8.369-16.894c0 0 .428-3.453 2.79-4.487 2.354-1.028 7.883 3.303 11.622 21.738ZM52.466 123.65c-15.603 0-18.592 13.07-19.156 18.2 3.161 8.162 11.087 13.948 20.369 13.948 9.76 0 18.014-6.4 20.818-15.225-.792-5.515-4.423-16.923-22.03-16.923Zm1.213 20.989a8.972 8.972 0 0 1-8.975-8.974c0-4.959 4.017-8.983 8.975-8.983a8.98 8.98 0 0 1 8.982 8.983c-.007 4.951-4.024 8.974-8.982 8.974Zm96.983-46.888c-.97 5.28-5.279 7.584-10.551 7.584-5.28 0-5.8-4.323-5.8-4.323 1.74-.35 2.711-1.398 3.217-2.661l.371.043c3.624.627 4.951-.85 5.244-2.826.742.008 1.455.079 2.112.186 3.267.528 5.407 1.997 5.407 1.997Zm37.883 42.487c-.442-5.137-3.232-18.15-20.119-18.15-16.209 0-17.985 12.093-17.942 17.636 0 .371-.05.728-.143 1.07 2.383 8.269 10.009 14.311 19.041 14.311 9.211 0 16.944-6.278 19.177-14.782a.308.308 0 0 1-.014-.085Zm-19.091 4.401a8.972 8.972 0 0 1-8.975-8.975c0-4.958 4.016-8.982 8.975-8.982a8.98 8.98 0 0 1 8.982 8.982c0 4.952-4.017 8.975-8.982 8.975Zm-62.989-36.514a1.32 1.32 0 0 1-1.263 1.32l-8.604.356a1.953 1.953 0 0 1-1.954-1.954c0-.543.22-1.028.57-1.384a1.945 1.945 0 0 1 1.384-.578l8.69.92a1.334 1.334 0 0 1 1.177 1.32Z" fill="#595989"/><path d="M135.902 86.174c-6.193-.899-15.218-4.195-16.858-6.257-1.078-1.355-.607-3.552-.157-4.9 2.618-.828 6.435-2.205 10.344-4.239 0 0 4.388 6.114 6.157 12.95.214.805.386 1.626.514 2.446Zm13.911-10.987s-7.134-3.168-9.167-13.17c1.926-2.369 3.36-5.087 3.959-8.169 0 0 7.113-3.952 7.705 3.917 0 0 8.961-2.347 5.322 6.991.007-.007 9.111 8.519-7.819 10.43Z" fill="#FFE3C2"/><path d="M147.429 68.573a3.581 3.581 0 1 0 0-7.162 3.581 3.581 0 0 0 0 7.162Zm1.413-9.673a1.698 1.698 0 1 0-2.402-2.401 1.698 1.698 0 0 0 2.402 2.4Zm6.856 3.189a1.698 1.698 0 1 0-3.305-.78 1.698 1.698 0 0 0 3.305.78Zm-1.654 8.689a1.698 1.698 0 1 0-.001-3.397 1.698 1.698 0 0 0 .001 3.397Z" fill="#FF4D96"/><path d="M104.418 33.894c-3.689-4.523-6.756-11.815-8.519-15.524a40.758 40.758 0 0 1 5.986-1.877 40.786 40.786 0 0 1 4.188-.749c1.091 7.077.799 13.876.499 17.48-.092 1.09-1.462 1.519-2.154.67Zm-8.961-15.453c.314 4.63.121 8.747-.085 11.287-.086 1.084-1.463 1.52-2.148.67-1.833-2.275-3.503-5.265-4.915-8.09.007-.007 2.161-1.962 7.148-3.867Zm11.115-2.767a77.503 77.503 0 0 0 5.33 9.945c.585.92 2.004.663 2.211-.407.564-2.868.649-6.285.585-9.446-.007.007-2.818-.72-8.126-.092ZM89.344 80.145a86.638 86.638 0 0 0-.728 4.61 21.573 21.573 0 0 0 5.63-1.32.598.598 0 0 0 .063-1.085c-1.776-.942-3.595-1.69-4.965-2.204ZM88.06 94.827c2.319-.335 4.238-1.049 5.38-1.54.463-.2.477-.864.02-1.078-1.94-.935-3.923-1.627-5.343-2.076a57.053 57.053 0 0 0-.057 4.694Z" fill="#D64303"/><path d="M113.921 69.095a9.883 9.883 0 0 1 4.33-.043c.228-.542.428-1.078.607-1.598 0 0-2.312-1.02-5.451-.293-3.139.728-4.759 2.668-4.759 2.668.4.4.835.807 1.292 1.199.77-.62 2.104-1.491 3.981-1.933Z" fill="#000566" opacity=".3"/><path d="M144.813 52.522c-.05.449-.121.884-.207 1.32-1.541 7.925-8.597 13.405-15.374 16.929-7.035 3.653-13.77 5.208-13.77 5.208s-13.862 3.26-25.205-.086c-4.609-1.355-8.804-3.802-11.486-7.997 0 0 .356-.628 1.041-1.306 0 0-2.511-2.026-3.146-4.537 0 0 1.883-2.14 2.112-4.117.021-.192 0-.506-.057-.92-.207-1.562-.878-4.544-1.32-7.89-.642-4.902-.8-10.573 1.698-13.627 0 0-3.924 36.192 29.4 34.173 1.663-.1 3.41-.3 5.265-.599a67.768 67.768 0 0 0 4.88-.977c12.92-3.11 20.604-9.453 25.163-16.11.621.272 1.006.536 1.006.536ZM74.726 24.47c1.041.015 2.482.179 3.88.778-4.908-5.665-10.116-8.69-10.116-8.69a53.52 53.52 0 0 0-.185 2.547c1.498 1.02 3.888 2.826 6.42 5.366Z" fill="#000566" opacity=".3"/><path d="M79.092 35.507s-3.032-.728-2.89-5.993l.008-.014a7.333 7.333 0 0 1-2.64-3.468h-.035c-1.149-.071-1.927 1.128-1.434 2.17a7.376 7.376 0 0 0 2.383 2.846l-.008.014c-.142 5.265 2.89 5.993 2.89 5.993-1.791 2.19-2.212 5.721-2.076 9.346 1.22 1.812 2.104 2.732 2.104 2.732-.642-4.908-.799-10.573 1.698-13.626Zm53.465-31.521a66.303 66.303 0 0 0-1.213-2.076s-3.332 5.016-5.23 12.264c.999-1.156 2.212-1.933 3.146-2.404a47.377 47.377 0 0 1 3.297-7.784Zm.113 19.562s2.397-1.99-.057-6.649l-.014-.007a7.455 7.455 0 0 0 .884-3.239c.043-1.327-1.398-2.19-2.532-1.498l-.036.021a7.331 7.331 0 0 1-.77 4.78l.014.007c2.454 4.659.057 6.65.057 6.65 3.588 1.64 5.957 6.791 7.541 11.471 0 0 .499-1.57.799-4.309-1.47-3.224-3.382-6.085-5.886-7.227Z" fill="#000566" opacity=".3"/><path d="M78.193 31.018c-.485.157-1.191.285-1.94.029-.05-.464-.072-.97-.057-1.534 0 0 1.034.685 1.798.941l.192.065c.243.085.25.42.007.499Zm-5.015-6.471s1.876.692 3.71 1.862c.492.314.941.685 1.34 1.106.607.635 1.578 1.734 2.412 3.025.307.47 1.035.293 1.092-.271.028-.321.035-.7.007-1.134l-3.132-3.91c.007.014-3.14-.906-5.43-.678Zm14.846-2.019s.014-.214.085-.513a1.694 1.694 0 0 0-.941-1.94c-2.911-1.313-9.853-3.903-18.678-3.525 0 0 9.346-3.389 24.207 3.053 0-.007-3.025 1.427-4.673 2.925ZM131.343 1.91c-10.43 5.765-14.104 10.01-15.267 11.715a1.243 1.243 0 0 0-.05 1.312c.242.421.435.963.435.963-2.019-.599-5.486-.563-5.486-.563C121.462 3.002 131.343 1.91 131.343 1.91Zm-9.003 97.52s-15.966 1.269-30.456 1.048a154.95 154.95 0 0 1-3.246-.078c-.343-1.79-.521-3.674-.578-5.572a51.545 51.545 0 0 1 .057-4.702c.1-1.876.285-3.695.5-5.372a79.92 79.92 0 0 1 .727-4.608c.485-2.597.913-4.252.913-4.252 1.477.435 3.004.756 4.53.991-2.232 9.21 1.67 14.704 4.838 17.5.706.628 1.79-.056 1.541-.97-.885-3.274.157-6.77.157-6.77 3.445 13.013 21.017 12.785 21.017 12.785Zm20.803-3.867c-.292 1.976-1.619 3.453-5.243 2.825l-.371-.043c-.507 1.263-1.477 2.311-3.218 2.661-.628.128-1.355.164-2.204.086-.5.67-1.306 1.177-2.547 1.384-4.167.699-6.336-1.677-7.22-3.047 8.368 2.005 10.23-2.276 10.23-2.276 3.482.5 5.465-2.96 5.465-2.96 3.218-1.099 4.117-3.032 4.366-3.91.464 1.42.999 3.546.742 5.28Zm6.671-20.376s-.342.292-.949.77l-.007.022c-1.676-.578-3.603.642-3.603 2.59v.02c-2.711 1.842-6.306 3.96-9.866 5.145-.692-2.668-1.777-5.222-2.847-7.349l10.644-4.68a7.32 7.32 0 0 1 4.053-.542c3.888.6 12.071 1.028 10.401-6.4 0-.014 9.104 8.512-7.826 10.424ZM28.617 136.164l-.307.071a5.036 5.036 0 0 1-4.973-4.231 40.675 40.675 0 0 1-.42-3.724c-.279 4.666-.186 10.737 1.433 15.603h3.96l.378-.093a2.835 2.835 0 0 1-.1-.442 27.12 27.12 0 0 1 .029-7.184Zm113.784-2.555c-15.267 3.382-35.786 3.318-49.17 2.783-5.55-.221-9.866-.528-12.078-.699.014 2.026-.3 4.137-.999 6.328a3.782 3.782 0 0 1-.628 1.184s5.515.507 13.713.835c13.597.542 34.558.599 49.897-2.947a9.122 9.122 0 0 1-.642-1.798c-.007 0-.4-2.368-.093-5.686Zm-65.649 10.966c-1.006-.007-1.926-.57-2.083-2.518-.036-.421-.086-.92-.164-1.484-.792-5.508-4.416-16.923-22.03-16.923-15.604 0-18.593 13.07-19.156 18.2-.136 1.249-.136 2.026-.136 2.026s-.414 1.306-1.79 1.57c-.357.071-.714.05-1.042-.043-.015-4.673 1.127-25.327 21.952-25.327 18.999 0 25.298 10.295 24.45 24.499Zm117.473-1.077c-.3.142-.621.249-.963.306-.107.022-.229.036-.343.05-2.176.25-4.123-1.362-4.359-3.524-.007-.029-.007-.064-.014-.093-.442-5.136-3.232-18.149-20.119-18.149-16.209 0-17.985 12.092-17.943 17.636 0 .371-.05.727-.142 1.07-.528 1.89-2.454 3.189-4.459 2.696a1.234 1.234 0 0 1-.079-.021c-.413-7.719.971-25.648 22.68-25.648 19.227.007 24.385 15.96 25.741 25.677Z" fill="#000566" opacity=".3"/><path d="M33.618 142.606c1.12-5.914 5.051-16.123 18.85-16.123 15.823 0 20.36 9.21 21.687 15.074.122-.328.236-.649.343-.984-.792-5.508-4.416-16.923-22.03-16.923-15.604 0-18.593 13.07-19.157 18.2.1.25.2.507.307.756Zm154.928-2.368c-.442-5.137-3.232-18.15-20.119-18.15-16.209 0-17.985 12.093-17.943 17.636 0 .371-.049.728-.142 1.07.057.207.128.414.192.614.371-5.993 3.197-15.931 17.9-15.931 14.776 0 18.764 9.966 19.819 15.895.115-.343.214-.692.307-1.049a.308.308 0 0 1-.014-.085Z" fill="#000566" opacity=".3"/><path d="M53.679 141.236a8.973 8.973 0 0 1-8.81-7.277 8.973 8.973 0 0 0 8.81 10.673c4.958 0 8.982-4.017 8.982-8.975 0-.578-.057-1.149-.164-1.698-.799 4.145-4.445 7.277-8.818 7.277Zm115.775 0a8.973 8.973 0 0 1-8.81-7.277 8.896 8.896 0 0 0-.165 1.698 8.973 8.973 0 0 0 8.975 8.975c4.959 0 8.983-4.017 8.983-8.975 0-.578-.058-1.149-.165-1.698a8.975 8.975 0 0 1-8.818 7.277Z" fill="#000566" opacity=".3"/><path d="M53.68 150.133c-8.625 0-16.08-5.001-19.627-12.264a27.434 27.434 0 0 0-.741 3.974c3.16 8.162 11.086 13.948 20.368 13.948 9.76 0 18.014-6.4 20.818-15.225a22.527 22.527 0 0 0-.8-3.545c-3.367 7.719-11.064 13.112-20.018 13.112Zm134.231-13.734c-2.839 7.47-10.059 12.77-18.528 12.77-8.589 0-15.902-5.464-18.649-13.112a24.412 24.412 0 0 0-.25 3.667c0 .371-.049.727-.142 1.07 2.383 8.268 10.009 14.311 19.041 14.311 9.211 0 16.944-6.278 19.177-14.782-.007-.029-.007-.064-.014-.093a25.136 25.136 0 0 0-.635-3.831ZM68.562 82.714c.442-.742.963-1.42 1.584-1.99a3.23 3.23 0 0 0-1.727.043c-6.735 2.061-6.492 13.862-6.492 13.862 5.094 10.53 20.019 5.393 20.019 5.393s-.057-.185-.171-.514c-.892.129-1.87.222-2.897.25-8.925.236-14.89-9.367-10.316-17.044Z" fill="#000566" opacity=".3"/><path d="M85.034 99.386s-3.032-9.531-7.063-15.232c-1.092-1.548-1.092-3.667.135-5.115.065-.071.129-.15.193-.214-.763-.371-1.427-.4-1.933-.178-2.362 1.027-2.79 4.487-2.79 4.487 4.659 5.244 8.369 16.894 8.369 16.894 1.905.164 3.938.278 6.042.357-.057-.264-.107-.528-.164-.792-.956-.064-1.89-.129-2.79-.207Zm50.64 3.782c1.591-.321 2.54-1.22 3.075-2.333a.515.515 0 0 1 .514-.286c3.367.585 4.751-.649 5.165-2.411a.512.512 0 0 1 .514-.4c.585.029 1.148.086 1.676.172 1.52.25 2.797.699 3.731 1.106.129-.4.236-.828.314-1.27 0 0-2.14-1.47-5.407-1.998a14.019 14.019 0 0 0-2.112-.186c-.293 1.977-1.62 3.454-5.244 2.826l-.371-.043c-.506 1.263-1.477 2.311-3.217 2.661 0 0 .199 1.598 1.533 2.847a4.079 4.079 0 0 1-.171-.685Zm68.561 27.495c-.172 2.668-1.32 7.891-7.527 9.845l-.264-.042c.05-.35.057-.714.014-1.085-.321-2.625-.877-5.522-1.826-8.404 2.832.571 6.307.785 9.603-.314Zm.25-5.4-.022.021c-.649.657-1.698.678-2.397.072-7.07-6.107-9.652-12.913-10.594-16.959-.507.1-.799.179-.799.179s.214 11.914 12.342 21.567c0 0 .507-.378 1.213-1.092 1.227-1.234 3.068-3.467 3.952-6.485-.356-.25-.706-.506-1.041-.763a17.149 17.149 0 0 1-2.654 3.46ZM29.302 105.386a5.87 5.87 0 0 0-1.976.321c.15 3.189-.029 10.538-4.545 13.812a7.07 7.07 0 0 0 .935 1.441c.093.107.185.214.278.307 6.878-3.724 5.308-15.881 5.308-15.881Z" fill="#000566" opacity=".3"/><path d="M151.277 97.695a8.726 8.726 0 0 1-.271.842c-4.509 11.879-14.269 8.604-17.287 7.249a2.763 2.763 0 0 0-1.897-.143c-5.957 1.662-9.132-.906-10.331-2.269a2.857 2.857 0 0 0-1.641-.92c-2.561-.457-6.214-1.577-8.589-2.347 6.485-.3 11.065-.67 11.065-.67.878 1.369 3.046 3.752 7.22 3.045 1.241-.206 2.047-.713 2.547-1.384.849.079 1.577.043 2.204-.085 0 0 .528 4.323 5.801 4.323 5.279 0 9.581-2.304 10.551-7.584.014 0 .243-.021.628-.057Zm-44.076 12.164a1.48 1.48 0 0 1-1.427 1.484l-9.681.4a2.194 2.194 0 0 1-2.198-2.198c0-.606.243-1.155.643-1.555.4-.399.949-.649 1.555-.649l9.774 1.041a1.48 1.48 0 0 1 1.334 1.477Zm-81.245 12.757s-.97-.321-1.955-1.341c6.87-3.731 5.3-15.888 5.3-15.888 1.47.014 2.512.556 2.512.556s1.784 13.463-5.857 16.673Z" fill="#000566" opacity=".3"/><path d="M144.248 46.35s-4.188 1.848-6.207-2.768c-2.019-4.609-1.64-10.238-7.833-19.983 3.624 1.64 6.007 6.791 7.612 11.472 1.192 3.488 1.948 6.713 2.455 8.033.078.207.156.37.221.478 1.091 1.684 3.752 2.768 3.752 2.768ZM88.315 22.3s16.138-5.436 27.296-5.05c.921.028 1.106-1.277.214-1.513-2.226-.578-6.342-.742-13.94.756 0 0-9.289 2.847-13.57 5.808Zm54.892 72.364c-1.734-5.872-7.306-6.464-7.306-6.464-14.14-1.905-17.743-9.175-17.743-9.175 5.665 5.116 17.743 7.149 17.743 7.149 5.458 1.277 5.907 2.568 5.907 2.568s.279.621.585 1.548c.393 1.178.828 2.847.814 4.374Z" fill="#fff" opacity=".7"/><path d="M133.141 84.398c.114.442.221.884.306 1.327a36.22 36.22 0 0 0 2.454.45 23.888 23.888 0 0 0-.506-2.448c-1.769-6.835-6.157-12.949-6.157-12.949-.678.357-1.355.685-2.026 1 .913 1.347 4.395 6.712 5.929 12.62Zm-90.627 32.696c-.878.471-1.698.956-2.476 1.463.079-.043.15-.086.228-.129 17.736-9.46 44.119 4.709 37.634 24.928a3.55 3.55 0 0 1-.628 1.177 3.595 3.595 0 0 0 2.24-1.327c.278-.35.492-.749.628-1.185 6.492-20.211-19.89-34.38-37.626-24.927Zm153.936 22.294c-1.334-10.873-6.742-26.418-26.775-26.418-11.472 0-18.2 3.488-22.11 7.919 4.067-3.596 10.445-6.221 20.412-6.221 20.033 0 25.441 15.545 26.775 26.418a4 4 0 0 1-.436 2.361 4.004 4.004 0 0 0 2.119-2.975c.057-.349.057-.713.015-1.084ZM70.902 83.855c4.508 5.08 8.133 16.167 8.361 16.859 1.634-.336 2.682-.692 2.682-.692s-3.71-11.65-8.368-16.894c-1.64-1.848-3.403-2.904-5.158-2.362-.5.15-.956.357-1.377.607 1.313.15 2.625 1.091 3.86 2.482Zm78.733-7.462a2.67 2.67 0 0 0-.778-.42 2.71 2.71 0 0 0-2.29.263c.079.05.157.1.236.157 3.988 3.068 9.667 9.04 12.513 19.441-2.868.85-6.627 1.384-9.053 1.662.257.15.399.243.399.243s6.885-.55 11.48-1.912c-2.84-10.395-8.526-16.366-12.507-19.434Z" fill="#fff" opacity=".7"/><path d="m193.632 108.063-.022-.186c-11.101-10.551-31.462-12.035-31.462-12.035-4.594 1.362-11.479 1.912-11.479 1.912 3.66 2.004 11.807 1.091 11.807 1.091 1.213.072 2.404.193 3.574.343a2.59 2.59 0 0 1 1.641.913c1.021 1.206 3.974 2.697 7.627 3.745 3.21.921 6.143 1.256 7.826.999a2.555 2.555 0 0 1 1.52.25c3.781 1.898 6.007 3.489 6.007 3.489s1.191-.321 2.961-.521Zm14.168 6.184c-1.833-4.937-6.577-6.221-10.615-6.343 0 0 .135.5.456 1.334 3.417.507 6.885 2.098 8.383 6.15.842 2.262 1.02 4.331.806 6.186.428.335.878.67 1.341.991.692-2.34.814-5.144-.371-8.318ZM64.037 97.674c-17.165.086-28.195 6.828-32.104 9.689a28.85 28.85 0 0 0-.122-1.427c9.375-11.372 30.114-11.308 30.114-11.308a11.474 11.474 0 0 0 2.112 3.046Z" fill="#fff" opacity=".7"/><path d="M118.464 117.423s13.227 2.261 20.133-1.313c6.906-3.582-3.695 13.969-19.712 5.821-13.305-6.777-.421-4.508-.421-4.508Zm-13.646 5.493c2.076-.35 5.551-.599 9.603.457.977.249 1.027 1.626.064 1.926-1.013.314-2.476.649-4.573.934-2.854.386-4.587-.171-5.636-.884-.992-.685-.642-2.233.542-2.433Z" fill="#fff" opacity=".3"/><path d="M118.859 67.455a23.726 23.726 0 0 1-1.149 2.803 4.493 4.493 0 0 1-6.792 1.577 23.391 23.391 0 0 1-2.269-2.005s1.627-1.94 4.759-2.668c3.139-.728 5.451.293 5.451.293Z" fill="#FF4D96"/><path d="M24 121.981a.708.708 0 0 1-.621-.371.716.716 0 0 1 .285-.963c6.364-3.453 4.959-15.06 4.944-15.174a.706.706 0 0 1 .614-.792.707.707 0 0 1 .792.613c.064.514 1.54 12.685-5.672 16.602a.76.76 0 0 1-.342.085Zm91.69-45.031a58.523 58.523 0 0 1-4.994.856 69.402 69.402 0 0 1-5.016.478c-1.676.1-3.36.135-5.051.093a52.438 52.438 0 0 1-5.058-.378 36.475 36.475 0 0 1-5.001-.992c-.407-.121-.828-.214-1.234-.364l-1.22-.414c-.8-.32-1.606-.627-2.376-1.027l-.585-.285-.564-.322-.563-.32-.286-.165-.27-.185-1.078-.735-1.02-.82a19 19 0 0 1-3.453-3.946.974.974 0 0 1-.029-1.02v-.007c.157-.257.293-.414.442-.606.15-.179.314-.35.493-.514a6.237 6.237 0 0 1 1.134-.842c.4-.243.849-.42 1.306-.542a3.646 3.646 0 0 1 1.384-.093.226.226 0 0 1 .2.25.212.212 0 0 1-.115.171l-.021.014c-.371.207-.706.4-1.006.642-.3.236-.578.486-.835.757a9.013 9.013 0 0 0-1.006 1.32c-.1.142-.2.328-.256.428l-.029-1.02a17.125 17.125 0 0 0 3.075 3.502l.913.735.97.664.243.164.257.15.513.292.514.293.535.256c.706.364 1.448.65 2.183.942l1.135.385c.378.136.77.221 1.155.336a34.13 34.13 0 0 0 4.738.934c1.605.207 3.224.321 4.851.364 1.626.036 3.253 0 4.887-.093a65.856 65.856 0 0 0 4.873-.463 58.097 58.097 0 0 0 4.801-.82l.021-.008a.995.995 0 0 1 1.185.756.984.984 0 0 1-.742 1.199Z" fill="#000566"/><path d="M79.183 67.368c-.115-.093-2.776-2.261-3.482-5.065a.99.99 0 0 1 .221-.9c.464-.527 1.712-2.21 1.87-3.573.035-.343-.236-1.813-.472-3.11-.977-5.302-2.575-13.941.329-18.857-1.099-.799-2.533-2.568-2.433-6.37l1.983.056c-.121 4.338 2.105 4.994 2.133 5.001a.994.994 0 0 1 .535 1.591c-3.231 3.953-1.52 13.234-.599 18.228.385 2.07.564 3.09.492 3.689-.192 1.705-1.384 3.431-1.99 4.223.713 1.948 2.647 3.532 2.661 3.553l-1.248 1.534Z" fill="#000566"/><path d="M77.393 50.118a.975.975 0 0 1-.714-.307c-.456-.478-11.215-11.95-9.167-33.36a.981.981 0 0 1 .649-.835c.4-.143 9.888-3.453 24.934 3.075a.992.992 0 1 1-.792 1.82c-12.263-5.316-20.66-3.775-22.886-3.204-1.663 20.04 8.582 31.027 8.69 31.141a.99.99 0 0 1-.03 1.398 1.003 1.003 0 0 1-.684.272Z" fill="#000566"/><path d="M68.996 15.687c1.42.87 2.69 1.791 3.952 2.79a46.055 46.055 0 0 1 3.603 3.16c.585.55 1.127 1.135 1.684 1.713.535.599 1.084 1.177 1.584 1.805 1.041 1.22 1.976 2.532 2.882 3.86l-1.655-.008c.178-.235.37-.45.57-.663.2-.214.414-.421.628-.621.221-.2.435-.4.67-.592.236-.193.472-.378.728-.542a.264.264 0 0 1 .393.306v.008a16.5 16.5 0 0 1-.3.834c-.1.279-.214.542-.32.814-.108.27-.222.535-.343.791a12.4 12.4 0 0 1-.386.764.948.948 0 0 1-1.298.35.964.964 0 0 1-.307-.279l-.05-.078c-.856-1.263-1.74-2.512-2.74-3.675-.477-.599-1.005-1.155-1.519-1.726-.535-.55-1.056-1.113-1.612-1.634a43.63 43.63 0 0 0-3.46-3.032c-1.192-.949-2.469-1.869-3.724-2.632l-.036-.022a.993.993 0 0 1-.328-1.362c.285-.471.913-.607 1.384-.329Z" fill="#000566"/><path d="M77.992 30.627c-.742-.021-1.434-.25-2.076-.592a7.011 7.011 0 0 1-1.74-1.341c-.507-.543-.964-1.156-1.285-1.841-.35-.678-.542-1.405-.685-2.14a.957.957 0 0 1 .742-1.128l.058-.007h.02c.3-.042.529-.057.786-.078.25-.014.5-.021.749-.021.5 0 .999.035 1.498.092.5.057.992.15 1.484.278.492.122.977.293 1.455.486a.99.99 0 0 1-.735 1.84l-.042-.021a8.757 8.757 0 0 0-2.404-.62c-.422-.05-.843-.08-1.263-.08-.214 0-.421.008-.635.015-.2.014-.435.036-.593.057l.821-1.141c.078.285.107.585.193.863.092.278.15.57.27.834.193.557.479 1.07.807 1.57.328.5.735.956 1.191 1.377.45.428.95.842 1.477 1.248l.014.015a.19.19 0 0 1 .036.257.165.165 0 0 1-.143.078Zm9.881-8.292c.806-1.063 1.812-1.869 2.875-2.575.264-.178.542-.342.82-.5.279-.156.557-.32.835-.47a26.95 26.95 0 0 1 1.713-.87c1.162-.536 2.347-1.028 3.567-1.42a27.763 27.763 0 0 1 3.71-.963.994.994 0 0 1 1.162.784.99.99 0 0 1-.67 1.135l-.036.014c-.585.185-1.17.342-1.748.52-.578.186-1.163.35-1.74.55-1.156.364-2.298.8-3.432 1.234-1.127.45-2.24.942-3.339 1.477a58.64 58.64 0 0 1-3.396 1.477l-.014.007a.256.256 0 0 1-.328-.143.234.234 0 0 1 .021-.256Zm27.367 52.688a56.91 56.91 0 0 0 4.666-1.384 65.583 65.583 0 0 0 4.58-1.734 58.15 58.15 0 0 0 4.423-2.076 48.053 48.053 0 0 0 4.188-2.468 34.18 34.18 0 0 0 3.838-2.933c.293-.27.607-.527.885-.813l.849-.849c.528-.592 1.07-1.177 1.541-1.812l.364-.47.328-.493.328-.492.164-.243.143-.257.578-1.027.492-1.063a17.051 17.051 0 0 0 1.206-4.502l.428.928c-.1-.065-.271-.186-.421-.271a10.362 10.362 0 0 0-.478-.272 9.134 9.134 0 0 0-1.006-.463 6.79 6.79 0 0 0-1.084-.314c-.379-.086-.764-.107-1.185-.136h-.021a.229.229 0 0 1-.214-.235.234.234 0 0 1 .107-.178 3.68 3.68 0 0 1 1.284-.528 4.926 4.926 0 0 1 1.413-.086c.47.036.941.121 1.391.257.228.071.449.15.663.242.221.1.414.186.671.35a.984.984 0 0 1 .428.927 19.397 19.397 0 0 1-1.356 5.066l-.549 1.191-.642 1.135-.164.285-.178.271-.364.542-.364.535-.4.514c-.513.7-1.098 1.327-1.676 1.969l-.913.906c-.3.307-.628.578-.949.87a35.975 35.975 0 0 1-4.053 3.097 50.664 50.664 0 0 1-4.366 2.575 64.9 64.9 0 0 1-4.573 2.148 69.356 69.356 0 0 1-4.709 1.79c-1.598.535-3.181 1.028-4.858 1.434a.992.992 0 0 1-.471-1.926l.036-.007Z" fill="#000566"/><path d="m144.198 52.23-1.798-.836c.014-.021 1.048-2.297.82-4.366-.899-.435-2.725-1.462-3.653-2.91-.328-.507-.613-1.506-1.184-3.532-1.377-4.88-3.938-13.969-8.582-16.088a.988.988 0 0 1-.222-1.662c.057-.05 1.713-1.613-.299-5.43l1.755-.92c1.776 3.368 1.27 5.587.635 6.792 4.773 3.132 7.163 11.586 8.625 16.773.357 1.27.763 2.71.949 2.996.742 1.163 2.604 2.112 3.253 2.383.3.121.521.392.592.706.6 2.833-.827 5.958-.891 6.093Z" fill="#000566"/><path d="M137.748 36.07c-.1 0-.2-.014-.3-.05a.983.983 0 0 1-.642-1.242c.065-.2 4.367-14.553-5.957-31.769-2.254.478-10.501 2.833-19.12 12.978a.993.993 0 0 1-1.512-1.284C120.833 2.203 130.814.976 131.234.926a.98.98 0 0 1 .949.464c11.294 18.314 6.707 33.353 6.507 33.98a.983.983 0 0 1-.942.7Z" fill="#000566"/><path d="M132.169 2.46a37.762 37.762 0 0 0-2.176 4.003 45.36 45.36 0 0 0-1.762 4.252c-.271.72-.492 1.455-.728 2.183-.206.735-.435 1.47-.599 2.219-.385 1.483-.628 2.996-.835 4.501l-.014.086a.944.944 0 0 1-1.077.799 1.04 1.04 0 0 1-.392-.15c-.236-.157-.457-.335-.685-.514a21.75 21.75 0 0 1-.664-.563c-.214-.2-.435-.385-.649-.592-.214-.2-.428-.4-.635-.614a.27.27 0 0 1 .007-.378.248.248 0 0 1 .214-.071c.307.035.599.1.892.164.292.064.578.15.863.228.286.086.564.178.842.278.271.107.542.207.806.343l-1.484.735c.221-1.591.478-3.182.878-4.738.171-.784.414-1.548.628-2.318.249-.764.478-1.527.756-2.276a45.26 45.26 0 0 1 1.84-4.43c.692-1.456 1.42-2.847 2.319-4.253a.993.993 0 0 1 1.677 1.063l-.022.043Z" fill="#000566"/><path d="M128.803 18.477c.292-.6.556-1.192.77-1.777.221-.585.393-1.17.464-1.762a6.94 6.94 0 0 0 .028-1.762c-.007-.293-.085-.578-.128-.87-.05-.293-.15-.571-.207-.864l1.241.664c-.149.05-.371.135-.556.214-.193.078-.385.171-.578.264-.378.185-.749.4-1.099.628a8.738 8.738 0 0 0-1.005.749c-.322.264-.6.563-.878.863l-.036.036a.985.985 0 0 1-1.398.064.99.99 0 0 1-.071-1.391 9.71 9.71 0 0 1 1.091-1.078 11.38 11.38 0 0 1 1.213-.906c.421-.27.856-.52 1.298-.742.222-.107.45-.214.685-.314.243-.1.45-.185.742-.278l.022-.007a.956.956 0 0 1 1.22.663c.199.721.342 1.463.328 2.22.014.756-.121 1.505-.335 2.218a6.825 6.825 0 0 1-.971 1.976c-.428.592-.949 1.099-1.605 1.448a.183.183 0 0 1-.25-.078.17.17 0 0 1 0-.164l.015-.014Zm-12.401-2.334c-1.256.107-2.483.15-3.703.179a51.5 51.5 0 0 0-3.646.15c-1.212.107-2.418.22-3.624.406-.606.072-1.198.193-1.805.279-.599.1-1.198.213-1.798.306l-.042.007a.99.99 0 0 1-.407-1.933 28.001 28.001 0 0 1 3.753-.77c1.262-.193 2.546-.264 3.824-.3a24.568 24.568 0 0 1 1.919.028c.321.008.642.029.956.05.321.015.635.05.956.086 1.27.164 2.532.442 3.724 1.041a.259.259 0 0 1 .114.336.26.26 0 0 1-.207.135h-.014ZM89.485 55.746a4.54 4.54 0 0 1-.292-1.17 5.699 5.699 0 0 1-.014-1.212 5.775 5.775 0 0 1 .791-2.397 5.776 5.776 0 0 1 1.827-1.913c.735-.52 1.555-.813 2.368-1.034.414-.093.835-.143 1.263-.2h.985c.107.007.22.029.335.043l.656.107c.222.064.436.129.65.2.214.064.413.171.62.264.2.1.4.207.578.335a5.322 5.322 0 0 1 1.72 1.877c.085.185.178.363.256.556.065.193.143.371.193.57.107.386.164.771.157 1.178a.174.174 0 0 1-.171.171.167.167 0 0 1-.114-.05l-.015-.014c-1.056-1.013-2.133-1.748-3.175-2.012-.12-.05-.256-.064-.385-.086-.128-.021-.25-.064-.385-.064a3.506 3.506 0 0 1-.385-.036l-.393.015h-.192l-.2.028-.4.043c-.27.057-.549.107-.82.171-.542.157-1.07.307-1.527.557-.25.1-.45.257-.685.385-.107.071-.2.164-.313.243-.115.071-.207.17-.307.264-.814.72-1.477 1.826-2.026 3.139l-.015.042a.304.304 0 0 1-.4.165.271.271 0 0 1-.185-.165Zm39.802-9.167c-1.07-.928-2.154-1.634-3.203-1.92a1.864 1.864 0 0 0-.392-.1c-.136-.02-.257-.056-.386-.078-.264-.014-.513-.064-.784-.042-.521-.022-1.063.078-1.62.178-.271.064-.542.143-.813.214l-.378.136-.193.064-.171.085-.357.165a5.067 5.067 0 0 1-.328.2c-.121.056-.214.142-.314.22-.107.079-.221.15-.314.25-.82.7-1.462 1.827-1.962 3.203l-.007.022a.169.169 0 0 1-.221.1.139.139 0 0 1-.093-.086 4.044 4.044 0 0 1-.378-1.127c-.05-.2-.057-.393-.078-.592-.015-.2-.008-.407-.015-.614a5.23 5.23 0 0 1 .714-2.44c.1-.2.235-.378.371-.556.135-.179.271-.364.435-.514.157-.157.321-.314.492-.47l.542-.393c.093-.064.186-.129.279-.186l.292-.15.592-.285c.407-.135.806-.278 1.22-.378.828-.157 1.698-.264 2.583-.121.877.1 1.748.428 2.483.906a5.929 5.929 0 0 1 1.776 1.798c.207.356.392.713.521 1.091.135.378.221.756.257 1.177a.305.305 0 0 1-.279.328.324.324 0 0 1-.228-.07l-.043-.015ZM110.245 53.6s-2.261.527-3.695 1.44a1.14 1.14 0 0 0-.357 1.584c.742 1.149 2.397 2.932 5.287 2.262 2.889-.67 3.588-3.004 3.745-4.36a1.146 1.146 0 0 0-1.02-1.262c-1.698-.193-3.96.335-3.96.335Z" fill="#000566"/><path d="m112.244 57.787.264 1.113.064.278c.022.1.057.25.072.378a3.468 3.468 0 0 1-.735 2.633l-.129.15-.107.114a8.424 8.424 0 0 1-.442.45c-1.213 1.162-2.732 2.075-4.423 2.46a8.552 8.552 0 0 1-2.554.193l-.642-.064-.642-.135a3.422 3.422 0 0 1-.635-.193l-.314-.114c-.107-.043-.207-.1-.307-.15-.813-.4-1.555-1.063-1.94-1.884-.115-.192-.165-.42-.243-.62-.05-.214-.1-.428-.114-.642a2.955 2.955 0 0 1 .128-1.27.121.121 0 0 1 .143-.072c.028.008.05.029.064.058l.007.014c.35.706.728 1.313 1.177 1.776.45.457.928.814 1.513 1.042.071.028.142.064.214.086l.228.057c.157.035.3.085.471.1l.485.07.507.015c.67.029 1.355-.05 2.004-.2a7.364 7.364 0 0 0 3.503-1.94 8.27 8.27 0 0 0 .357-.371l.086-.093.057-.071a1.47 1.47 0 0 0 .314-.792 1.857 1.857 0 0 0-.008-.35 1.205 1.205 0 0 0-.035-.185l-.064-.279-.257-1.12a.99.99 0 0 1 .742-1.184 1.006 1.006 0 0 1 1.191.742Z" fill="#000566"/><path d="m112.243 57.787.264 1.113.065.278c.021.086.028.122.05.186.035.107.085.214.149.314.122.2.286.364.478.485.05.029.1.057.15.078l.086.036.121.05c.157.064.321.121.485.171 1.306.428 2.704.5 4.003.193a7.791 7.791 0 0 0 1.883-.706l.449-.236.407-.278c.143-.086.25-.2.378-.3l.186-.157c.057-.05.1-.114.157-.17.421-.458.699-.992.899-1.599.199-.613.271-1.327.271-2.112v-.014c0-.064.05-.114.114-.114a.15.15 0 0 1 .078.028c.307.307.528.678.678 1.078.086.2.136.414.186.628.021.214.071.442.057.663.014.906-.357 1.826-.906 2.547-.072.093-.136.185-.207.271l-.229.243c-.157.164-.306.328-.485.456l-.52.407-.55.335a8.284 8.284 0 0 1-2.376.949c-1.683.4-3.453.25-5.051-.25a20.663 20.663 0 0 1-.599-.207l-.15-.057-.178-.078a3.47 3.47 0 0 1-1.484-1.32 3.455 3.455 0 0 1-.342-.72c-.043-.122-.079-.272-.107-.372l-.065-.278-.257-1.12a.99.99 0 0 1 .742-1.184 1.027 1.027 0 0 1 1.17.763Z" fill="#000566"/><path d="M113.663 73.768a5.465 5.465 0 0 1-3.353-1.149c-4.188-3.224-6.5-7.355-6.592-7.526a.994.994 0 0 1 .385-1.349.993.993 0 0 1 1.348.385c.022.036 2.226 3.953 6.072 6.92.841.65 1.912.878 2.939.643a3.492 3.492 0 0 0 2.354-1.876c2.141-4.36 2.39-8.847 2.39-8.89a.986.986 0 0 1 1.042-.942.99.99 0 0 1 .942 1.035c-.008.2-.264 4.923-2.59 9.667a5.491 5.491 0 0 1-3.681 2.932c-.421.107-.842.15-1.256.15Z" fill="#000566"/><path d="M108.648 70.543a.704.704 0 0 1-.542-1.163c.071-.085 1.812-2.133 5.144-2.903a.71.71 0 0 1 .849.527.71.71 0 0 1-.528.85c-2.875.67-4.366 2.418-4.38 2.44a.72.72 0 0 1-.543.25Z" fill="#000566"/><path d="M118.857 68.167a.815.815 0 0 1-.285-.057c-.028-.014-2.162-.913-5.008-.25a.71.71 0 0 1-.849-.528.71.71 0 0 1 .528-.848c3.331-.771 5.793.292 5.9.335a.711.711 0 0 1 .364.934.722.722 0 0 1-.65.414Zm-31.154 32.625c-2.112-10.716 1.44-24.557 1.59-25.142l1.92.5c-.036.135-3.589 13.997-1.57 24.256l-1.94.386Zm30.547-21.867c1.912 1.049 3.753 2.055 5.651 2.982 1.89.928 3.888 1.62 5.928 2.105.514.114 1.021.25 1.541.328.521.093 1.021.186 1.57.271.542.093 1.084.171 1.627.278.542.1 1.084.207 1.626.329a24.5 24.5 0 0 1 3.239.913c.271.093.542.207.806.314.272.128.543.228.814.385.271.143.542.3.82.5.136.092.278.213.421.342.071.071.15.15.221.235l.122.157c.021.029.049.079.071.114l.036.065c.014.035.049.1.064.15l-.036-.08c.264.593.457 1.142.649 1.72.193.578.357 1.163.493 1.762.264 1.199.456 2.448.278 3.81-.093.67-.293 1.391-.714 2.048a3.944 3.944 0 0 1-1.769 1.49c-.086.036-.171.08-.264.108l-.264.078c-.178.05-.349.107-.521.129l-.52.078-.507.014a3.756 3.756 0 0 1-.492-.007l-.485-.035c-.314-.036-.628-.093-.942-.136a.985.985 0 0 1-.835-1.12.99.99 0 0 1 1.085-.842l.092.007c.257.029.521.064.778.086.25 0 .514.035.749.007a3.41 3.41 0 0 0 1.298-.264 1.77 1.77 0 0 0 .828-.713c.2-.322.328-.742.385-1.206.114-.942-.028-2.012-.257-3.06a19.141 19.141 0 0 0-.998-3.097l-.036-.079c.014.036.036.086.043.108l.007.02.021.03-.05-.058c-.057-.05-.121-.107-.206-.17a4.519 4.519 0 0 0-.564-.35c-.2-.115-.435-.214-.649-.321-.236-.093-.457-.193-.699-.279-.949-.364-1.97-.642-2.99-.899a37.143 37.143 0 0 0-1.548-.356c-.514-.122-1.041-.207-1.562-.307-.514-.093-1.078-.214-1.62-.321-.549-.1-1.084-.257-1.626-.4-2.148-.599-4.231-1.405-6.193-2.461a17.14 17.14 0 0 1-2.797-1.798 16.61 16.61 0 0 1-1.248-1.106c-.392-.4-.763-.813-1.077-1.284a.142.142 0 0 1 .042-.2c.057-.042.115-.042.164-.014Z" fill="#000566"/><path d="M137.742 91.753c.607 1.02.942 2.148 1.12 3.332.165 1.177.107 2.44-.349 3.696a5.277 5.277 0 0 1-1.063 1.769 4.833 4.833 0 0 1-1.741 1.213c-1.305.521-2.632.528-3.824.307a.994.994 0 0 1 .171-1.97h.029c1.013-.007 1.976-.106 2.739-.435.764-.314 1.313-.884 1.698-1.698.393-.806.557-1.812.671-2.846.121-1.042.143-2.133.2-3.268v-.014a.186.186 0 0 1 .2-.178.223.223 0 0 1 .149.092Z" fill="#000566"/><path d="M131.87 94.015c.543.678.971 1.42 1.299 2.233.328.806.571 1.676.606 2.632.015.478-.014.97-.142 1.477a4.293 4.293 0 0 1-.685 1.463c-.664.927-1.705 1.462-2.654 1.712-.485.136-.942.178-1.399.235-.114.015-.228.036-.349.036h-1.063c-.956-.086-1.912-.314-2.797-.728a7.536 7.536 0 0 1-2.283-1.74c-.164-.172-.299-.364-.449-.55-.143-.192-.264-.385-.393-.585a5.92 5.92 0 0 1-.335-.62 6.351 6.351 0 0 1-.292-.692l1.055.62c-1.177.186-2.268.236-3.41.236a25.66 25.66 0 0 1-3.381-.243 22.646 22.646 0 0 1-3.339-.72 18.672 18.672 0 0 1-3.196-1.285 14.691 14.691 0 0 1-2.904-1.912c-.892-.749-1.712-1.584-2.397-2.525-.086-.114-.179-.228-.264-.35l-.236-.364c-.149-.242-.313-.492-.442-.742-.257-.52-.521-1.027-.692-1.576-.399-1.07-.592-2.205-.635-3.332a.24.24 0 0 1 .228-.25c.093 0 .179.05.222.122l.007.007c1.056 1.933 2.033 3.731 3.346 5.28.635.784 1.377 1.469 2.176 2.082a14.625 14.625 0 0 0 2.582 1.577c.913.435 1.869.792 2.854 1.091.985.293 1.998.5 3.018.664a30.03 30.03 0 0 0 3.103.3c.521.014 1.042.035 1.563.028.513-.007 1.055-.014 1.526-.057l.093-.007a.933.933 0 0 1 .963.628c.064.093.164.264.257.4.1.142.207.285.307.42.221.271.456.535.706.77.507.472 1.056.864 1.67 1.128.606.271 1.262.407 1.94.478l.521.007.257.007c.085 0 .178-.014.264-.021.349-.036.713-.057 1.02-.129.307-.071.606-.164.842-.299.249-.129.463-.278.628-.478.342-.385.563-.956.656-1.648.185-1.384-.064-3.004-.35-4.609v-.014a.217.217 0 0 1 .172-.25c.078 0 .157.036.206.093Zm-49.925 6.999a.99.99 0 0 1-.942-.692c-2.511-7.884-8.076-19.898-12.293-18.614-5.935 1.82-5.792 12.785-5.792 12.9a.99.99 0 0 1-.97 1.012h-.022a.994.994 0 0 1-.992-.97c-.014-.514-.171-12.578 7.192-14.832 7.455-2.283 14.033 17.629 14.76 19.904a.988.988 0 0 1-.642 1.242.9.9 0 0 1-.3.05Z" fill="#000566"/><path d="M87.06 100.793c-2.69-13.413-6.478-19.67-9.125-21.047-.478-.25-.892-.32-1.178-.2-1.812.793-2.197 3.675-2.204 3.703l-1.969-.242c.021-.164.528-4.031 3.374-5.272.593-.257 1.577-.421 2.883.257 1.898.991 6.685 5.158 10.152 22.415l-1.933.386Z" fill="#000566"/><path d="M25.954 123.608a.954.954 0 0 1-.314-.05c-.228-.079-5.621-1.955-4.594-10.195.25-2.047.956-3.931 2.033-5.458 2.747-3.881 6.378-3.866 8.44-3.16 9.646-10.93 29.15-11.108 30.37-11.108h.03c.378 0 .72.22.891.556 4.652 9.603 18.663 4.937 18.806 4.887a.985.985 0 0 1 .407-.05c15.567 1.341 39.988-.57 40.23-.592a.99.99 0 0 1 1.063.906.99.99 0 0 1-.906 1.063c-.243.022-24.627 1.934-40.366.607-1.855.57-15.431 4.366-20.725-5.394-3.389.107-20.29 1.099-28.487 10.616.25 2.468 1.02 14.119-6.5 17.279a.696.696 0 0 1-.378.093Zm3.325-17.229c-1.32 0-3.053.52-4.58 2.675-.892 1.263-1.477 2.839-1.684 4.559-.685 5.522 1.976 7.427 2.932 7.926 5.622-2.782 5.151-12.457 4.937-14.904a5.025 5.025 0 0 0-1.605-.256Z" fill="#000566"/><path d="M28.308 144.868h-3.96a.99.99 0 0 1-.941-.677c-3.14-9.41-.764-22.837-.664-23.401a.988.988 0 1 1 1.948.35c-.021.128-2.269 12.834.378 21.745h3.232a.99.99 0 0 1 .992.992.988.988 0 0 1-.985.991Z" fill="#000566"/><path d="M30.955 146.48a3.266 3.266 0 0 1-1.933-.635 3.519 3.519 0 0 1-1.42-2.369c-.57-4.28-1.22-18.898 14.447-27.253 5.008-2.675 10.859-3.652 16.916-2.846 5.686.763 11.108 3.089 15.267 6.563 7.042 5.879 9.539 14.034 6.863 22.381-.542 1.676-1.983 2.932-3.688 3.196-1.227.192-2.026-.193-2.469-.55-.734-.577-1.156-1.533-1.263-2.832-.42-5.258-3.331-17.5-21.21-17.5-5.308 0-9.574 1.584-12.677 4.694-5.594 5.615-5.622 14.447-5.622 14.533a.887.887 0 0 1-.05.306c-.221.692-1.006 1.948-2.547 2.241-.207.05-.414.071-.614.071Zm23.993-31.362c-4.21 0-8.361.934-11.964 2.853-14.14 7.541-14.09 20.169-13.413 25.241.057.407.279.785.614 1.021.307.221.67.299 1.02.235.585-.114.878-.578.985-.792.028-1.462.435-9.945 6.185-15.724 3.489-3.51 8.233-5.293 14.09-5.293 19.534 0 22.723 13.512 23.187 19.319.057.707.242 1.22.513 1.434.2.157.521.207.942.143.963-.15 1.79-.87 2.098-1.841 2.418-7.541.142-14.918-6.25-20.254-4.987-4.159-11.565-6.342-18.007-6.342Z" fill="#000566"/><path d="M53.678 156.789c-9.353 0-17.914-5.857-21.288-14.582l1.847-.714c3.09 7.962 10.902 13.313 19.441 13.313 9.182 0 17.187-5.886 19.912-14.647l1.89.592c-2.989 9.589-11.75 16.038-21.802 16.038Z" fill="#000566"/><path d="M53.678 145.625c-5.494 0-9.967-4.474-9.967-9.967s4.473-9.967 9.967-9.967c5.493 0 9.966 4.474 9.966 9.967s-4.473 9.967-9.966 9.967Zm0-17.95c-4.402 0-7.984 3.581-7.984 7.983 0 4.402 3.582 7.983 7.984 7.983 4.401 0 7.983-3.581 7.983-7.983 0-4.402-3.582-7.983-7.983-7.983Zm115.784 17.95c-5.494 0-9.967-4.474-9.967-9.967s4.473-9.967 9.967-9.967c5.493 0 9.966 4.474 9.966 9.967s-4.473 9.967-9.966 9.967Zm0-17.95c-4.402 0-7.984 3.581-7.984 7.983 0 4.402 3.582 7.983 7.984 7.983s7.983-3.581 7.983-7.983c0-4.402-3.581-7.983-7.983-7.983Zm-29.353-21.353c-4.865 0-6.571-3.396-6.785-5.194a.999.999 0 0 1 .864-1.106.997.997 0 0 1 1.105.856c.05.357.6 3.46 4.823 3.46 2.989 0 8.083-.813 9.432-6.107-1.035-.556-3.41-1.64-6.421-1.683a.99.99 0 0 1-.978-1.006c.008-.55.457-1 1.006-.978 4.673.064 7.934 2.262 8.069 2.355a.997.997 0 0 1 .414.998c-.977 5.344-5.179 8.405-11.529 8.405Z" fill="#000566"/><path d="M193.61 108.868c-.243 0-.492-.093-.685-.272-10.188-9.68-28.687-11.579-30.685-11.757-4.63 1.341-11.222 1.876-11.5 1.898a.981.981 0 0 1-1.063-.906.99.99 0 0 1 .906-1.063c.071-.007 6.835-.557 11.272-1.87a.86.86 0 0 1 .357-.035c.849.064 20.846 1.634 32.076 12.314a.985.985 0 0 1 .035 1.398 1 1 0 0 1-.713.293Z" fill="#000566"/><path d="M162.141 96.825a.997.997 0 0 1-.956-.728c-2.74-10.002-8.126-15.81-12.164-18.92a1.69 1.69 0 0 0-1.813-.178c-.606.3-.97.885-.97 1.562v17.194a.99.99 0 0 1-.991.992.99.99 0 0 1-.992-.992V78.56a3.71 3.71 0 0 1 2.076-3.339 3.688 3.688 0 0 1 3.895.386c4.281 3.296 9.981 9.431 12.863 19.968a.996.996 0 0 1-.692 1.22.972.972 0 0 1-.256.029Zm40.872 34.303a.98.98 0 0 1-.614-.214c-12.356-9.824-12.706-21.817-12.72-22.324a.994.994 0 0 1 .742-.977c.15-.036 14.611-3.703 18.314 6.285 3.795 10.224-5.037 16.966-5.13 17.03a.974.974 0 0 1-.592.2Zm-11.287-21.767c.307 2.711 2.012 11.793 11.28 19.498 1.762-1.577 6.635-6.806 3.874-14.262-2.633-7.084-12.286-5.793-15.154-5.236Z" fill="#000566"/><path d="M208.178 123.551a.977.977 0 0 1-.563-.178c-8.861-6.136-11.287-14.847-11.379-15.218a.99.99 0 0 1 1.912-.513c.028.114 2.375 8.404 10.594 14.104a.988.988 0 0 1 .25 1.377.989.989 0 0 1-.814.428Zm-11.472 17.95a.985.985 0 0 1-.942-.692.992.992 0 0 1 .65-1.241c7.626-2.397 6.87-10.081 6.834-10.409a.994.994 0 0 1 .878-1.092.992.992 0 0 1 1.091.878c.007.093.949 9.638-8.211 12.513a1.149 1.149 0 0 1-.3.043Z" fill="#000566"/><path d="M192.468 144.875a4.857 4.857 0 0 1-3.089-1.113 5.017 5.017 0 0 1-1.819-3.445c-.449-5.187-3.21-17.244-19.134-17.244-5.536 0-9.788 1.463-12.656 4.345-3.789 3.817-4.324 9.346-4.302 12.299a4.835 4.835 0 0 1-1.855 3.86c-1.142.899-2.59 1.22-3.974.878-1.398-.343-3.253-1.477-4.117-4.916-.007-.029-.014-.05-.014-.078-.071-.443-1.712-10.945 5.058-18.928 4.816-5.672 12.585-8.547 23.108-8.547 21.239 0 26.504 17.094 27.76 27.289.321 2.625-1.434 5.051-3.995 5.515-.129.021-.264.043-.4.057a5.284 5.284 0 0 1-.571.028Zm-24.042-23.778c7.612 0 13.341 2.54 17.022 7.555 3.047 4.145 3.867 8.982 4.081 11.501a3.03 3.03 0 0 0 1.099 2.083 2.87 2.87 0 0 0 2.169.642c.092-.014.185-.022.278-.043 1.534-.278 2.582-1.741 2.39-3.325-1.427-11.657-7.063-25.547-25.791-25.547-9.902 0-17.165 2.632-21.588 7.833-5.993 7.049-4.73 16.63-4.63 17.301.506 1.969 1.398 3.124 2.654 3.431a2.657 2.657 0 0 0 2.276-.506 2.867 2.867 0 0 0 1.098-2.29c-.021-3.261.578-9.382 4.873-13.705 3.253-3.268 7.983-4.93 14.069-4.93Z" fill="#000566"/><path d="M169.382 156.104c-9.217 0-17.443-6.178-19.997-15.032l1.905-.549c2.311 8.005 9.752 13.598 18.092 13.598 8.597 0 16.102-5.807 18.235-14.126l1.92.492c-2.362 9.196-10.652 15.617-20.155 15.617Zm-62.817-10.823c-14.868 0-26.918-1.07-27.14-1.091l.18-1.977c.384.036 39.159 3.489 63.302-2.09l.442 1.933c-10.923 2.526-24.777 3.225-36.784 3.225Z" fill="#000566"/><path d="M92.282 144.319c-5.457-18.321-1.534-42.984-1.37-44.026l1.955.321c-.043.25-4.016 25.263 1.313 43.148l-1.898.557Zm4.338-33.81a2.668 2.668 0 0 1-2.69-2.661 2.66 2.66 0 0 1 2.66-2.661c.03 0 .05 0 .072.007l8.69.92a2.021 2.021 0 0 1 1.812 2.019 2.023 2.023 0 0 1-1.948 2.026l-8.597.35Zm-.065-3.91a1.248 1.248 0 0 0 .036 2.497l8.575-.357a.618.618 0 0 0 .592-.613.618.618 0 0 0-.549-.614l-8.654-.913Zm38.368-20.275c-1.127-7.42-6.442-14.896-6.492-14.975l1.612-1.156c.228.321 5.643 7.934 6.842 15.831l-1.962.3Z" fill="#000566"/><path d="m135.701 84.67-.628-1.877c3.582-1.192 7.22-3.403 9.646-5.044l1.113 1.64c-3.674 2.484-7.085 4.267-10.131 5.28Zm13.777-7.934-1.22-1.563c.585-.456.92-.742.927-.742a.978.978 0 0 1 .528-.228c5.337-.6 8.625-1.99 9.26-3.902.614-1.827-1.241-4.103-2.004-4.823a.992.992 0 0 1-.243-1.084c.963-2.469 1.063-4.231.293-5.102-1.021-1.148-3.553-.799-4.445-.57a1.031 1.031 0 0 1-.828-.15.995.995 0 0 1-.413-.728c-.143-1.919-.707-3.16-1.677-3.681-1.762-.949-4.537.542-4.566.556l-.963-1.733c.15-.086 3.738-2.04 6.471-.564 1.37.735 2.233 2.14 2.575 4.18 1.434-.192 3.881-.227 5.315 1.378 1.242 1.391 1.342 3.588.3 6.542.956 1.063 2.954 3.717 2.062 6.406-.921 2.769-4.395 4.474-10.63 5.216-.164.128-.414.335-.742.592ZM15.252 155.335c2.055-.378 4.11-.571 6.164-.728 2.055-.157 4.11-.207 6.165-.257 4.109-.1 8.218-.05 12.327.007l6.165.043h147.986c2.055 0 4.11-.064 6.164-.093 2.055-.028 4.11.015 6.164.136 1.028.064 2.055.157 3.082.307 1.028.142 2.055.314 3.082.585a.49.49 0 0 1 .343.592.477.477 0 0 1-.343.342c-1.027.271-2.054.443-3.082.585-1.027.15-2.054.243-3.082.307a89.268 89.268 0 0 1-6.164.136c-2.054-.029-4.109-.093-6.164-.093H46.087l-6.164.043c-4.11.057-8.219.107-12.328.007-2.055-.043-4.11-.093-6.164-.257-2.055-.157-4.11-.35-6.164-.728a.47.47 0 0 1-.378-.549.438.438 0 0 1 .363-.385Z" fill="#000566"/><path d="M211.996 155.798H15.816C5.773 156.618 0 157.581 0 158.609c0 3.053 86.068 5.529 113.899 5.529 61.697 0 113.899-2.476 113.899-5.529.007-1.028-5.764-1.991-15.802-2.811Z" fill="#000566" opacity=".3"/></svg>