<svg width="228" height="165" viewBox="0 0 228 165" fill="none" xmlns="http://www.w3.org/2000/svg">
<path d="M143.792 51.9933C143.642 51.9291 143.478 51.872 143.299 51.8078C143.335 51.7364 144.655 48.8542 144.113 46.3501C144.113 46.3501 141.48 45.2656 140.403 43.5891C140.332 43.4821 140.26 43.3251 140.182 43.1111C139.675 41.7912 138.926 38.5665 137.749 35.0779C136.165 30.3978 133.804 25.2397 130.208 23.6059C130.208 23.6059 131.621 22.4359 131.171 19.7891C131.036 18.9829 130.729 18.0412 130.158 16.9568L130.144 16.9496C130.836 15.6583 131.435 13.6679 130.679 11.1708C130.679 11.1708 127.989 12.0056 126.113 14.1887C127.982 7.05436 131.243 2.08176 131.342 1.9248C131.342 1.9248 121.461 3.00921 110.974 15.3587V15.43C109.483 15.4229 107.735 15.5085 105.794 15.7582C104.482 15.9223 103.083 16.1648 101.607 16.5073C99.3522 17.0281 97.3475 17.6916 95.621 18.3836C94.5508 18.8117 93.5806 19.2469 92.7316 19.6749L92.6959 19.6107C77.8352 13.1684 68.4893 16.5572 68.4893 16.5572C68.4893 16.5572 73.6973 19.5893 78.6057 25.2468C75.9517 24.1125 73.1765 24.5548 73.1765 24.5548C73.6045 27.1231 75.0171 28.6499 76.2086 29.506L76.2014 29.5203C76.1872 30.0839 76.2086 30.5975 76.2585 31.0541C76.6723 34.928 79.098 35.5131 79.098 35.5131C76.6009 38.5665 76.7579 44.2383 77.4 49.1396C77.8423 52.4855 78.5129 55.4677 78.7198 57.0301C78.7769 57.4439 78.7983 57.7578 78.7769 57.9504C78.5557 59.9337 76.6652 62.0669 76.6652 62.0669C77.3001 64.5782 79.8114 66.6043 79.8114 66.6043C79.1336 67.2821 78.7698 67.9099 78.7698 67.9099C81.4594 72.1049 85.6544 74.5519 90.256 75.9074C101.607 79.2534 115.461 75.993 115.461 75.993C115.461 75.993 122.203 74.4378 129.231 70.785C136.015 67.2607 143.064 61.7815 144.605 53.8553C144.691 53.4201 144.755 52.9849 144.812 52.5355C144.812 52.5212 144.427 52.2572 143.792 51.9933ZM118.857 67.4533C118.786 67.6673 118.708 67.8814 118.629 68.0954C118.365 68.8017 118.065 69.5294 117.709 70.2571C116.446 72.8183 113.178 73.5816 110.917 71.8337C110.082 71.1917 109.326 70.5068 108.648 69.829L108.491 69.6721C105.959 67.0966 104.582 64.6138 104.582 64.6138C107.842 64.6638 109.982 62.8802 111.052 61.6674C111.588 61.061 111.794 60.2334 111.609 59.4486C111.794 60.2334 112.337 60.8897 113.093 61.1965C114.591 61.8101 117.302 62.4593 120.199 60.9825C120.199 60.9825 120.056 63.929 118.857 67.4533Z" fill="#FF9700"/>
<path d="M143.207 94.6633C143.207 94.97 143.185 95.2697 143.143 95.5622C142.85 97.5384 141.523 99.0152 137.899 98.3874L137.528 98.3446C137.021 99.6073 136.051 100.656 134.31 101.006C133.683 101.134 132.955 101.17 132.106 101.091C131.606 101.762 130.8 102.268 129.559 102.475C125.392 103.174 123.224 100.799 122.339 99.429C122.339 99.429 120.491 99.5788 117.488 99.7572C111.652 100.114 101.45 100.62 91.8898 100.478C90.7983 100.463 89.7067 100.435 88.6437 100.399C88.3013 98.6085 88.1229 96.7251 88.0658 94.8274C88.0088 93.2507 88.0373 91.674 88.1229 90.1259C88.2228 88.2495 88.4083 86.4303 88.6223 84.7537C88.8435 83.0344 89.1003 81.4648 89.35 80.145C89.8351 77.5481 90.2632 75.8929 90.2632 75.8929C91.74 76.3281 93.2667 76.6492 94.7935 76.8846C104.988 78.4399 115.469 75.9785 115.469 75.9785C115.469 75.9785 116.796 75.6718 118.893 75.0083C121.511 74.1807 125.328 72.8038 129.238 70.7705C129.238 70.7705 133.625 76.8846 135.395 83.7193C135.609 84.5254 135.78 85.3459 135.901 86.1663C141.359 87.4434 141.808 88.7347 141.808 88.7347C141.808 88.7347 142.087 89.3553 142.393 90.2828C142.786 91.4671 143.221 93.1365 143.207 94.6633Z" fill="#FF9700"/>
<path d="M149.814 75.1867C149.814 75.1867 149.471 75.4792 148.865 75.9572L148.858 75.9786C147.181 75.4008 145.255 76.6207 145.255 78.5684V78.5898C142.544 80.4304 138.948 82.5493 135.388 83.7336C134.696 81.0654 133.612 78.5113 132.542 76.3853C130.865 73.0536 129.231 70.7777 129.231 70.7777C133.376 68.6232 137.621 65.7409 140.646 62.0168C142.573 59.6482 144.007 56.9301 144.606 53.848C144.606 53.848 151.719 49.8956 152.311 57.7648C152.311 57.7648 161.272 55.4176 157.633 64.7564C157.64 64.7492 166.744 73.2747 149.814 75.1867Z" fill="#FF9700"/>
<path d="M77.3932 49.1253C77.3932 49.1253 66.4706 37.7532 68.4968 16.543C68.4968 16.543 73.7048 19.575 78.6132 25.2325C75.9592 24.0982 73.184 24.5405 73.184 24.5405C73.612 27.1089 75.0246 28.6356 76.2161 29.4917L76.2089 29.506C76.0662 34.7711 79.0983 35.4988 79.0983 35.4988C76.5942 38.5594 76.7511 44.224 77.3932 49.1253Z" fill="#FFE3C2"/>
<path d="M137.749 35.0779C136.165 30.3978 133.803 25.2397 130.208 23.6059C130.208 23.6059 132.605 21.6155 130.151 16.9568L130.136 16.9496C130.828 15.6583 131.428 13.6679 130.671 11.1708C130.671 11.1708 127.982 12.0056 126.105 14.1887C128.003 6.94021 131.335 1.9248 131.335 1.9248C142.521 20.0459 137.749 35.0779 137.749 35.0779Z" fill="#FFE3C2"/>
<path d="M144.812 52.5216C144.762 52.9711 144.691 53.4063 144.605 53.8415C143.064 61.7677 136.008 67.2468 129.231 70.7712C122.196 74.4239 115.461 75.9792 115.461 75.9792C115.461 75.9792 101.599 79.2396 90.2559 75.8936C85.6471 74.5381 81.4522 72.091 78.7697 67.896C78.7697 67.896 79.1264 67.2682 79.8113 66.5905C79.8113 66.5905 77.3 64.5643 76.665 62.0531C76.665 62.0531 78.5485 59.9128 78.7768 57.9366C78.7982 57.7439 78.7768 57.43 78.7197 57.0162C80.2393 55.6607 82.7506 53.9271 85.1905 54.5335C89.0573 55.4895 104.86 56.952 110.196 55.7249C115.533 54.4978 127.911 47.5276 132.869 43.6109C134.617 42.234 137.364 42.3624 140.196 43.1044C140.274 43.3113 140.346 43.4753 140.417 43.5824C141.494 45.2589 144.127 46.3433 144.127 46.3433C144.662 48.8475 143.342 51.7297 143.314 51.8011C144.213 52.115 144.812 52.5216 144.812 52.5216Z" fill="#FFE3C2"/>
<path d="M120.198 60.9831C120.198 60.9831 120.055 63.9296 118.857 67.461C118.857 67.461 116.545 66.4408 113.406 67.1685C110.267 67.8962 108.648 69.8368 108.648 69.8368C106.015 67.2042 104.581 64.6145 104.581 64.6145C107.841 64.6644 109.982 62.8808 111.052 61.668C111.587 61.0616 111.794 60.234 111.608 59.4492C111.794 60.234 112.336 60.8903 113.092 61.1971C114.59 61.8035 117.294 62.4599 120.198 60.9831Z" fill="#000566"/>
<path d="M23.9991 121.274C23.9064 121.181 23.8136 121.074 23.7209 120.967C22.5937 119.64 21.5521 117.343 22.0372 113.491C22.2584 111.7 22.8576 109.959 23.8993 108.482C25.6757 105.964 27.7375 105.372 29.3071 105.386C29.2999 105.386 30.8695 117.543 23.9991 121.274Z" fill="#FFD00D"/>
<path d="M25.9548 122.616C25.9548 122.616 24.9845 122.295 24 121.275C30.8703 117.544 29.3008 105.387 29.3008 105.387C30.7704 105.401 31.8121 105.943 31.8121 105.943C31.8121 105.943 33.5956 119.406 25.9548 122.616Z" fill="#588ECB"/>
<path d="M162.148 95.8412C157.553 97.2039 150.669 97.7532 150.669 97.7532C150.669 97.7532 148.528 96.2836 145.261 95.7556V78.562C145.261 76.6143 147.187 75.3944 148.864 75.9722C149.135 76.065 149.391 76.2077 149.641 76.3932C153.615 79.4609 159.301 85.4323 162.148 95.8412Z" fill="#8FD4FF"/>
<path d="M208.178 122.559C207.287 125.576 205.453 127.817 204.226 129.044C203.52 129.757 203.013 130.135 203.013 130.135C190.885 120.49 190.671 108.568 190.671 108.568C190.671 108.568 191.862 108.254 193.632 108.054C194.659 107.933 195.886 107.855 197.185 107.898C197.192 107.905 199.517 116.559 208.178 122.559Z" fill="#588ECB"/>
<path d="M208.178 122.559C199.516 116.559 197.184 107.905 197.184 107.905C201.214 108.027 205.966 109.311 207.799 114.248C208.984 117.422 208.862 120.226 208.178 122.559Z" fill="#FFD00D"/>
<path d="M81.9447 100.021C81.9447 100.021 67.0198 105.151 61.9259 94.6275C61.9259 94.6275 61.6833 82.8274 68.4181 80.7656C70.1731 80.2305 71.9353 81.2793 73.5762 83.1271C78.2349 88.3708 81.9447 100.021 81.9447 100.021Z" fill="#588ECB"/>
<path d="M93.2316 144.032C85.0343 143.704 79.5195 143.204 79.5195 143.204C79.7977 142.855 80.0118 142.455 80.1473 142.02C86.6324 121.809 60.2498 107.64 42.5139 117.093C27.5747 125.062 27.9671 138.71 28.5878 143.34C28.6092 143.49 28.6448 143.64 28.6876 143.782L28.3095 143.875H24.35C21.2608 134.593 23.7222 120.96 23.7222 120.96C24.7994 122.23 25.9552 122.615 25.9552 122.615C32.0693 120.046 32.1478 110.907 31.9337 107.362C31.8767 106.477 31.8125 105.935 31.8125 105.935C41.1869 94.5628 61.9263 94.627 61.9263 94.627C62.5113 95.8398 63.2319 96.8457 64.0381 97.6733C70.2592 104.037 81.9452 100.02 81.9452 100.02C83.85 100.185 85.8833 100.299 87.9879 100.377C88.2019 100.384 88.4231 100.391 88.6371 100.399C89.7073 100.434 90.7917 100.463 91.8832 100.477C91.7191 101.512 87.888 126.111 93.2316 144.032Z" fill="#588ECB"/>
<path d="M204.227 129.05C203.513 129.763 203.007 130.142 203.007 130.142C190.879 120.496 190.665 108.575 190.665 108.575C190.665 108.575 191.856 108.261 193.625 108.061L193.604 107.875C182.503 97.3238 162.142 95.8398 162.142 95.8398C158.375 96.9599 153.06 97.5235 151.276 97.6948C150.884 97.7376 150.663 97.7518 150.663 97.7518C149.692 103.031 145.383 105.336 140.111 105.336C134.832 105.336 134.311 101.012 134.311 101.012C133.683 101.141 132.955 101.176 132.106 101.098C131.607 101.768 130.801 102.275 129.559 102.482C125.393 103.181 123.224 100.805 122.339 99.4355C122.339 99.4355 117.759 99.7994 111.274 100.106C105.652 100.37 98.6108 100.591 91.8903 100.491C91.7262 101.526 87.8951 126.118 93.2316 144.046C106.83 144.588 127.79 144.646 143.129 141.1C142.879 140.593 142.665 140.001 142.487 139.302C142.487 139.302 138.135 112.976 169.676 112.976C184.872 112.976 191.649 121.923 194.617 130.991C195.566 133.873 196.122 136.769 196.443 139.395C196.486 139.766 196.486 140.122 196.429 140.479L196.693 140.522C202.9 138.567 204.056 133.345 204.22 130.677C204.298 129.685 204.227 129.05 204.227 129.05ZM105.196 109.445L96.5918 109.802C95.5074 109.802 94.637 108.924 94.637 107.847C94.637 107.305 94.8582 106.82 95.2078 106.463C95.5645 106.106 96.0496 105.885 96.5918 105.885L105.281 106.805C105.952 106.877 106.459 107.44 106.459 108.118C106.466 108.831 105.902 109.416 105.196 109.445Z" fill="#588ECB"/>
<path d="M80.1461 142.021C80.0105 142.457 79.7894 142.856 79.5183 143.206C78.9618 143.905 78.1628 144.397 77.2567 144.54C77.0855 144.568 76.9142 144.583 76.7502 144.583C75.7442 144.576 74.8239 144.012 74.6669 142.064C74.6313 141.643 74.5813 141.144 74.5029 140.58C73.7109 135.073 70.0867 123.658 52.4722 123.658C36.8695 123.658 33.8802 136.728 33.3166 141.857C33.181 143.106 33.181 143.884 33.181 143.884C33.181 143.884 32.7672 145.189 31.3903 145.453C31.0336 145.524 30.6769 145.503 30.3487 145.41C29.5782 145.196 28.9504 144.583 28.6935 143.798C28.6507 143.655 28.6151 143.513 28.5937 143.356C27.973 138.718 27.5806 125.078 42.5198 117.108C60.2485 107.641 86.6312 121.81 80.1461 142.021Z" fill="#588ECB"/>
<path d="M196.436 140.473C196.243 141.786 195.415 142.935 194.217 143.505C193.917 143.648 193.596 143.755 193.254 143.812C193.147 143.834 193.025 143.848 192.911 143.862C190.735 144.112 188.788 142.5 188.552 140.338C188.545 140.309 188.545 140.274 188.538 140.245C188.096 135.108 185.306 122.095 168.419 122.095C152.21 122.095 150.434 134.188 150.477 139.731C150.477 140.102 150.427 140.459 150.334 140.802C149.806 142.692 147.88 143.991 145.875 143.498C145.846 143.491 145.818 143.484 145.796 143.477C144.798 143.206 143.827 142.521 143.121 141.094C142.871 140.588 142.657 139.995 142.479 139.296C142.479 139.296 138.127 112.971 169.668 112.971C189.701 112.971 195.109 128.516 196.443 139.389C196.493 139.76 196.493 140.124 196.436 140.473Z" fill="#588ECB"/>
<path d="M62.6533 135.657C62.6533 140.615 58.6367 144.632 53.6712 144.632C48.7129 144.632 44.6963 140.615 44.6963 135.657C44.6963 130.699 48.7129 126.675 53.6712 126.675C58.6367 126.682 62.6533 130.699 62.6533 135.657Z" fill="white"/>
<path d="M178.436 135.657C178.436 140.615 174.419 144.632 169.453 144.632C164.495 144.632 160.479 140.615 160.479 135.657C160.479 130.699 164.495 126.675 169.453 126.675C174.419 126.682 178.436 130.699 178.436 135.657Z" fill="white"/>
<path d="M87.9865 100.378C85.8819 100.3 83.8486 100.185 81.9437 100.021C81.9437 100.021 78.2339 88.371 73.5752 83.1273C73.5752 83.1273 74.0033 79.6743 76.3647 78.6398C78.719 77.6125 84.2481 81.943 87.9865 100.378Z" fill="#595989"/>
<path d="M52.4661 123.65C36.8634 123.65 33.8742 136.72 33.3105 141.85C36.471 150.012 44.3972 155.798 53.679 155.798C63.4387 155.798 71.6931 149.398 74.4968 140.573C73.7049 135.058 70.0736 123.65 52.4661 123.65ZM53.679 144.639C48.7206 144.639 44.704 140.623 44.704 135.665C44.704 130.706 48.7206 126.682 53.679 126.682C58.6373 126.682 62.661 130.699 62.661 135.665C62.6539 140.616 58.6373 144.639 53.679 144.639Z" fill="#595989"/>
<path d="M150.662 97.7515C149.692 103.031 145.383 105.335 140.111 105.335C134.831 105.335 134.311 101.012 134.311 101.012C136.051 100.662 137.022 99.6135 137.528 98.3507L137.899 98.3935C141.523 99.0214 142.85 97.5446 143.143 95.5684C143.885 95.5755 144.598 95.6468 145.255 95.7539C148.522 96.2818 150.662 97.7515 150.662 97.7515Z" fill="#595989"/>
<path d="M188.545 140.238C188.103 135.101 185.313 122.088 168.426 122.088C152.217 122.088 150.441 134.181 150.484 139.724C150.484 140.095 150.434 140.452 150.341 140.794C152.724 149.063 160.35 155.105 169.382 155.105C178.593 155.105 186.326 148.827 188.559 140.323C188.552 140.302 188.545 140.266 188.545 140.238ZM169.454 144.639C164.495 144.639 160.479 140.623 160.479 135.664C160.479 130.706 164.495 126.682 169.454 126.682C174.412 126.682 178.436 130.699 178.436 135.664C178.436 140.616 174.419 144.639 169.454 144.639Z" fill="#595989"/>
<path d="M106.465 108.125C106.465 108.831 105.909 109.416 105.202 109.445L96.5984 109.801C95.5139 109.801 94.6436 108.924 94.6436 107.847C94.6436 107.304 94.8647 106.819 95.2143 106.463C95.571 106.106 96.0561 105.885 96.5984 105.885L105.288 106.805C105.951 106.884 106.465 107.447 106.465 108.125Z" fill="#595989"/>
<path d="M135.902 86.1741C129.709 85.2752 120.684 81.9792 119.044 79.9174C117.966 78.5618 118.437 76.3645 118.887 75.0161C121.505 74.1885 125.322 72.8116 129.231 70.7783C129.231 70.7783 133.619 76.8924 135.388 83.7271C135.602 84.5332 135.774 85.3537 135.902 86.1741Z" fill="#FFE3C2"/>
<path d="M149.813 75.1867C149.813 75.1867 142.679 72.0191 140.646 62.0168C142.572 59.6482 144.006 56.9301 144.605 53.848C144.605 53.848 151.718 49.8956 152.31 57.7648C152.31 57.7648 161.271 55.4176 157.632 64.7564C157.639 64.7492 166.743 73.2747 149.813 75.1867Z" fill="#FFE3C2"/>
<path d="M147.429 68.573C149.407 68.573 151.01 66.9695 151.01 64.9916C151.01 63.0136 149.407 61.4102 147.429 61.4102C145.451 61.4102 143.848 63.0136 143.848 64.9916C143.848 66.9695 145.451 68.573 147.429 68.573Z" fill="#FF4D96"/>
<path d="M148.842 58.8999C149.505 58.2368 149.505 57.1617 148.842 56.4986C148.179 55.8355 147.104 55.8355 146.441 56.4986C145.778 57.1617 145.778 58.2368 146.441 58.8998C147.104 59.5629 148.179 59.5629 148.842 58.8999Z" fill="#FF4D96"/>
<path d="M155.698 62.0889C155.914 61.1762 155.348 60.2617 154.436 60.0462C153.523 59.8307 152.609 60.3959 152.393 61.3085C152.178 62.2211 152.743 63.1356 153.655 63.3511C154.568 63.5666 155.483 63.0015 155.698 62.0889Z" fill="#FF4D96"/>
<path d="M154.044 70.7778C154.981 70.7778 155.742 70.0176 155.742 69.0798C155.742 68.142 154.981 67.3818 154.044 67.3818C153.106 67.3818 152.346 68.142 152.346 69.0798C152.346 70.0176 153.106 70.7778 154.044 70.7778Z" fill="#FF4D96"/>
<path d="M104.418 33.8938C100.729 29.3706 97.6616 22.0794 95.8994 18.3696C97.6259 17.6775 99.6307 17.014 101.885 16.4932C103.355 16.1508 104.76 15.9082 106.073 15.7441C107.164 22.8214 106.872 29.6203 106.572 33.2232C106.48 34.3147 105.11 34.7428 104.418 33.8938Z" fill="#D64303"/>
<path d="M95.4572 18.4414C95.7711 23.0716 95.5784 27.188 95.3715 29.7279C95.2859 30.8123 93.909 31.2475 93.2241 30.3985C91.3906 28.1226 89.7212 25.1334 88.3086 22.3082C88.3157 22.3011 90.4703 20.3463 95.4572 18.4414Z" fill="#D64303"/>
<path d="M106.572 15.6735C108.449 19.9184 110.539 23.4712 111.902 25.6187C112.487 26.539 113.906 26.2822 114.113 25.212C114.677 22.344 114.762 18.9267 114.698 15.7662C114.691 15.7733 111.88 15.0456 106.572 15.6735Z" fill="#D64303"/>
<path d="M89.3439 80.1455C89.1013 81.4654 88.8374 83.0349 88.6162 84.7543C91.0276 84.5331 93.0537 83.891 94.2452 83.4344C94.7232 83.2489 94.7588 82.5926 94.3094 82.35C92.5329 81.4083 90.7137 80.6592 89.3439 80.1455Z" fill="#D64303"/>
<path d="M88.06 94.8272C90.3786 94.4919 92.2978 93.7784 93.4393 93.2862C93.903 93.0864 93.9173 92.4229 93.4607 92.2089C91.5201 91.2743 89.5368 90.5823 88.1171 90.1328C88.0386 91.6738 88.0101 93.2505 88.06 94.8272Z" fill="#D64303"/>
<g opacity="0.3">
<path d="M113.921 69.0946C115.74 68.6737 117.274 68.8378 118.251 69.0518C118.479 68.5096 118.679 67.9745 118.858 67.4537C118.858 67.4537 116.546 66.4335 113.407 67.1612C110.268 67.8889 108.648 69.8295 108.648 69.8295C109.048 70.229 109.483 70.6356 109.94 71.028C110.71 70.4073 112.044 69.5369 113.921 69.0946Z" fill="#000566"/>
</g>
<g opacity="0.3">
<path d="M144.813 52.5215C144.763 52.9709 144.692 53.4061 144.606 53.8413C143.065 61.7675 136.009 67.2466 129.232 70.771C122.197 74.4237 115.462 75.979 115.462 75.979C115.462 75.979 101.6 79.2394 90.2568 75.8934C85.6481 74.5379 81.4531 72.0908 78.7706 67.8959C78.7706 67.8959 79.1273 67.268 79.8122 66.5903C79.8122 66.5903 77.301 64.5641 76.666 62.0529C76.666 62.0529 78.5495 59.9126 78.7778 57.9364C78.7992 57.7438 78.7778 57.4298 78.7207 57.0161C78.5138 55.4536 77.8432 52.4715 77.4009 49.1255C76.7588 44.2243 76.6018 38.5525 79.0988 35.499C79.0988 35.499 75.1749 71.6913 108.499 69.6723C110.162 69.5724 111.909 69.3727 113.764 69.073C115.469 68.7948 117.096 68.4666 118.644 68.0956C131.564 64.9851 139.248 58.6427 143.807 51.9864C144.428 52.2575 144.813 52.5215 144.813 52.5215Z" fill="#000566"/>
</g>
<g opacity="0.3">
<path d="M74.7256 24.4705C75.7672 24.4848 77.2083 24.6489 78.6066 25.2482C73.6982 19.5835 68.4902 16.5586 68.4902 16.5586C68.4046 17.4218 68.3475 18.2708 68.3047 19.1055C69.8029 20.1257 72.1929 21.9307 74.7256 24.4705Z" fill="#000566"/>
</g>
<g opacity="0.3">
<path d="M79.0923 35.5067C79.0923 35.5067 76.0602 34.779 76.2029 29.5139L76.21 29.4996C75.2683 28.8219 74.191 27.7303 73.5703 26.0323C73.556 26.0323 73.5489 26.0323 73.5346 26.0323C72.386 25.961 71.6084 27.1596 72.1006 28.2012C72.7356 29.5495 73.6631 30.4556 74.4835 31.0477L74.4764 31.062C74.3337 36.3271 77.3658 37.0548 77.3658 37.0548C75.575 39.245 75.1541 42.7765 75.2897 46.4007C76.5096 48.2129 77.3943 49.1332 77.3943 49.1332C76.7522 44.2248 76.5952 38.5602 79.0923 35.5067Z" fill="#000566"/>
</g>
<g opacity="0.3">
<path d="M132.557 3.98623C132.171 3.30134 131.772 2.60932 131.344 1.91016C131.344 1.91016 128.012 6.92557 126.114 14.174C127.113 13.0183 128.326 12.2406 129.26 11.7698C130.331 8.43091 131.629 5.71987 132.557 3.98623Z" fill="#000566"/>
</g>
<g opacity="0.3">
<path d="M132.67 23.5483C132.67 23.5483 135.067 21.5578 132.613 16.8991L132.599 16.892C133.034 16.0787 133.433 14.98 133.483 13.653C133.526 12.326 132.085 11.4628 130.951 12.1548L130.915 12.1762C131.265 14.2023 130.744 15.8432 130.145 16.9562L130.159 16.9633C132.613 21.622 130.216 23.6125 130.216 23.6125C133.804 25.2534 136.173 30.4043 137.757 35.0844C137.757 35.0844 138.256 33.5149 138.556 30.7753C137.086 27.5506 135.174 24.6898 132.67 23.5483Z" fill="#000566"/>
</g>
<g opacity="0.3">
<path d="M78.1933 31.018C77.7082 31.175 77.0019 31.3034 76.2528 31.0466C76.2029 30.5828 76.1815 30.0763 76.1957 29.5127C76.1957 29.5127 77.2302 30.1976 77.9936 30.4544L78.1862 30.5186C78.4288 30.6042 78.4359 30.9396 78.1933 31.018Z" fill="#000566"/>
</g>
<g opacity="0.3">
<path d="M73.1777 24.5472C73.1777 24.5472 75.0541 25.2392 76.8876 26.4092C77.3798 26.7231 77.8293 27.0941 78.2288 27.515C78.8352 28.15 79.8055 29.2487 80.6402 30.54C80.947 31.0108 81.6747 30.8325 81.7318 30.2689C81.7603 29.9478 81.7674 29.5697 81.7389 29.1345L78.6069 25.2249C78.6141 25.2392 75.4678 24.3189 73.1777 24.5472Z" fill="#000566"/>
</g>
<g opacity="0.3">
<path d="M88.0239 22.5284C88.0239 22.5284 88.0382 22.3144 88.1095 22.0148C88.295 21.2229 87.9098 20.4095 87.1678 20.0742C84.257 18.7615 77.3154 16.1718 68.4902 16.5499C68.4902 16.5499 77.8362 13.1611 92.6969 19.6034C92.6969 19.5962 89.672 21.0302 88.0239 22.5284Z" fill="#000566"/>
</g>
<g opacity="0.3">
<path d="M131.343 1.91016C120.913 7.67467 117.239 11.9196 116.076 13.6247C115.812 14.0171 115.79 14.5236 116.026 14.9374C116.268 15.3583 116.461 15.9005 116.461 15.9005C114.442 15.3012 110.975 15.3369 110.975 15.3369C121.462 3.00171 131.343 1.91016 131.343 1.91016Z" fill="#000566"/>
</g>
<g opacity="0.3">
<path d="M122.34 99.4296C122.34 99.4296 106.374 100.699 91.884 100.478C90.7924 100.464 89.7009 100.436 88.6379 100.4C88.2954 98.6091 88.117 96.7257 88.06 94.828C88.0029 93.2513 88.0314 91.6746 88.117 90.1265C88.2169 88.2502 88.4024 86.4309 88.6164 84.7543C88.8376 83.035 89.0944 81.4654 89.3441 80.1456C89.8293 77.5487 90.2573 75.8936 90.2573 75.8936C91.7341 76.3287 93.2609 76.6498 94.7876 76.8852C92.5546 86.0956 96.457 91.589 99.6247 94.3856C100.331 95.0135 101.415 94.3286 101.166 93.4154C100.281 90.1407 101.323 86.6449 101.323 86.6449C104.768 99.6579 122.34 99.4296 122.34 99.4296Z" fill="#000566"/>
</g>
<g opacity="0.3">
<path d="M143.143 95.5626C142.851 97.5388 141.524 99.0156 137.9 98.3878L137.529 98.345C137.022 99.6077 136.052 100.656 134.311 101.006C133.683 101.134 132.956 101.17 132.107 101.092C131.607 101.762 130.801 102.269 129.56 102.476C125.393 103.175 123.224 100.799 122.34 99.4294C130.708 101.434 132.57 97.1535 132.57 97.1535C136.052 97.6529 138.035 94.1928 138.035 94.1928C141.253 93.0941 142.152 91.1607 142.401 90.2832C142.865 91.7029 143.4 93.8289 143.143 95.5626Z" fill="#000566"/>
</g>
<g opacity="0.3">
<path d="M149.814 75.1869C149.814 75.1869 149.472 75.4794 148.865 75.9574L148.858 75.9788C147.182 75.4009 145.255 76.6209 145.255 78.5686V78.5899C142.544 80.4306 138.949 82.5495 135.389 83.7338C134.697 81.0655 133.612 78.5115 132.542 76.3854L143.186 71.7053C144.456 71.1489 145.869 70.9491 147.239 71.1631C151.127 71.7624 159.31 72.1905 157.64 64.7637C157.64 64.7494 166.744 73.2749 149.814 75.1869Z" fill="#000566"/>
</g>
<g opacity="0.3">
<path d="M28.6168 136.164L28.31 136.235C25.8415 136.235 23.7298 134.444 23.3374 132.004C23.1376 130.777 23.0021 129.522 22.9165 128.28C22.6382 132.946 22.731 139.017 24.3505 143.883H28.31L28.6881 143.79C28.6453 143.648 28.6096 143.505 28.5882 143.348C28.3813 141.786 28.1958 139.203 28.6168 136.164Z" fill="#000566"/>
</g>
<g opacity="0.3">
<path d="M142.401 133.609C127.134 136.991 106.615 136.927 93.2313 136.392C87.6809 136.171 83.3646 135.864 81.153 135.693C81.1673 137.719 80.8533 139.83 80.1542 142.021C80.0186 142.456 79.7975 142.855 79.5264 143.205C79.5264 143.205 85.0412 143.712 93.2385 144.04C106.836 144.582 127.797 144.639 143.136 141.093C142.886 140.587 142.672 139.995 142.494 139.295C142.487 139.295 142.094 136.927 142.401 133.609Z" fill="#000566"/>
</g>
<g opacity="0.3">
<path d="M76.7522 144.575C75.7462 144.568 74.8259 144.005 74.669 142.057C74.6333 141.636 74.5833 141.137 74.5049 140.573C73.713 135.065 70.0887 123.65 52.4742 123.65C36.8715 123.65 33.8822 136.72 33.3186 141.85C33.183 143.099 33.183 143.876 33.183 143.876C33.183 143.876 32.7692 145.182 31.3923 145.446C31.0356 145.517 30.6789 145.496 30.3507 145.403C30.3364 140.73 31.4779 120.076 52.3029 120.076C71.3016 120.076 77.6011 130.371 76.7522 144.575Z" fill="#000566"/>
</g>
<g opacity="0.3">
<path d="M194.225 143.498C193.925 143.64 193.604 143.747 193.262 143.804C193.155 143.826 193.033 143.84 192.919 143.854C190.743 144.104 188.796 142.492 188.56 140.33C188.553 140.301 188.553 140.266 188.546 140.237C188.104 135.101 185.314 122.088 168.427 122.088C152.218 122.088 150.442 134.18 150.484 139.724C150.484 140.095 150.434 140.451 150.342 140.794C149.814 142.684 147.888 143.983 145.883 143.49C145.854 143.483 145.826 143.476 145.804 143.469C145.391 135.75 146.775 117.821 168.484 117.821C187.711 117.828 192.869 133.781 194.225 143.498Z" fill="#000566"/>
</g>
<g opacity="0.3">
<path d="M33.6183 142.606C34.7384 136.692 38.6694 126.483 52.4671 126.483C68.291 126.483 72.8284 135.693 74.1554 141.557C74.2766 141.229 74.3908 140.908 74.4978 140.573C73.7059 135.065 70.0817 123.65 52.4671 123.65C36.8644 123.65 33.8751 136.72 33.3115 141.85C33.4114 142.1 33.5113 142.357 33.6183 142.606Z" fill="#000566"/>
</g>
<g opacity="0.3">
<path d="M188.546 140.238C188.104 135.101 185.314 122.088 168.427 122.088C152.218 122.088 150.442 134.181 150.484 139.724C150.484 140.095 150.435 140.452 150.342 140.794C150.399 141.001 150.47 141.208 150.534 141.408C150.905 135.415 153.731 125.477 168.434 125.477C183.21 125.477 187.198 135.443 188.253 141.372C188.368 141.029 188.467 140.68 188.56 140.323C188.553 140.302 188.546 140.266 188.546 140.238Z" fill="#000566"/>
</g>
<g opacity="0.3">
<path d="M53.679 141.236C49.3057 141.236 45.6601 138.104 44.8682 133.959C44.7612 134.508 44.7041 135.079 44.7041 135.657C44.7041 140.615 48.7207 144.632 53.679 144.632C58.6374 144.632 62.6611 140.615 62.6611 135.657C62.6611 135.079 62.604 134.508 62.497 133.959C61.698 138.104 58.0524 141.236 53.679 141.236Z" fill="#000566"/>
</g>
<g opacity="0.3">
<path d="M169.454 141.236C165.081 141.236 161.435 138.104 160.644 133.959C160.537 134.508 160.479 135.079 160.479 135.657C160.479 140.615 164.496 144.632 169.454 144.632C174.413 144.632 178.437 140.615 178.437 135.657C178.437 135.079 178.379 134.508 178.272 133.959C177.481 138.104 173.835 141.236 169.454 141.236Z" fill="#000566"/>
</g>
<g opacity="0.3">
<path d="M53.6799 150.133C45.0546 150.133 37.5992 145.132 34.0535 137.869C33.6468 139.411 33.4257 140.795 33.3115 141.843C36.472 150.005 44.3982 155.791 53.6799 155.791C63.4397 155.791 71.694 149.391 74.4978 140.566C74.3551 139.546 74.1054 138.326 73.6988 137.021C70.3314 144.74 62.6335 150.133 53.6799 150.133Z" fill="#000566"/>
</g>
<g opacity="0.3">
<path d="M187.911 136.399C185.072 143.869 177.852 149.169 169.383 149.169C160.794 149.169 153.481 143.705 150.734 136.057C150.534 137.426 150.477 138.689 150.484 139.724C150.484 140.095 150.435 140.451 150.342 140.794C152.725 149.062 160.351 155.105 169.383 155.105C178.594 155.105 186.327 148.827 188.56 140.323C188.553 140.294 188.553 140.259 188.546 140.23C188.46 139.217 188.275 137.876 187.911 136.399Z" fill="#000566"/>
</g>
<g opacity="0.3">
<path d="M68.5618 82.7143C69.0041 81.9723 69.5249 81.2946 70.1456 80.7238C69.5748 80.5883 68.997 80.5883 68.4191 80.7666C61.6843 82.8284 61.9269 94.6286 61.9269 94.6286C67.0208 105.159 81.9457 100.022 81.9457 100.022C81.9457 100.022 81.8886 99.8366 81.7745 99.5084C80.8827 99.6368 79.9053 99.7296 78.878 99.7581C69.953 99.9936 63.9887 90.3908 68.5618 82.7143Z" fill="#000566"/>
</g>
<g opacity="0.3">
<path d="M85.0339 99.3859C85.0339 99.3859 82.0018 89.8545 77.9709 84.1542C76.8794 82.6061 76.8794 80.4872 78.1064 79.0389C78.1707 78.9676 78.2349 78.8891 78.2991 78.8249C77.5357 78.4539 76.8722 78.4254 76.3657 78.6466C74.0042 79.6739 73.5762 83.134 73.5762 83.134C78.2349 88.3777 81.9447 100.028 81.9447 100.028C83.8496 100.192 85.8828 100.306 87.9874 100.385C87.9304 100.121 87.8804 99.8568 87.8234 99.5928C86.8674 99.5286 85.9328 99.4644 85.0339 99.3859Z" fill="#000566"/>
</g>
<g opacity="0.3">
<path d="M135.674 103.168C137.265 102.847 138.214 101.948 138.749 100.835C138.842 100.642 139.049 100.528 139.263 100.549C142.63 101.134 144.014 99.9001 144.428 98.138C144.485 97.9025 144.699 97.7242 144.942 97.7385C145.527 97.767 146.09 97.8241 146.618 97.9097C148.138 98.1594 149.415 98.6088 150.349 99.0155C150.478 98.616 150.585 98.1879 150.663 97.7456C150.663 97.7456 148.523 96.2759 145.256 95.748C144.599 95.641 143.886 95.5696 143.144 95.5625C142.851 97.5387 141.524 99.0155 137.9 98.3877L137.529 98.3449C137.023 99.6076 136.052 100.656 134.312 101.006C134.312 101.006 134.511 102.604 135.845 103.853C135.71 103.446 135.674 103.168 135.674 103.168Z" fill="#000566"/>
</g>
<g opacity="0.3">
<path d="M204.235 130.663C204.063 133.331 202.915 138.554 196.708 140.508L196.444 140.466C196.494 140.116 196.501 139.752 196.458 139.381C196.137 136.756 195.581 133.859 194.632 130.977C197.464 131.548 200.939 131.762 204.235 130.663Z" fill="#000566"/>
</g>
<g opacity="0.3">
<path d="M204.485 125.263C204.478 125.27 204.471 125.277 204.463 125.284C203.814 125.941 202.765 125.962 202.066 125.356C194.996 119.249 192.414 112.443 191.472 108.397C190.965 108.497 190.673 108.576 190.673 108.576C190.673 108.576 190.887 120.49 203.015 130.143C203.015 130.143 203.522 129.765 204.228 129.051C205.455 127.817 207.296 125.584 208.18 122.566C207.824 122.316 207.474 122.06 207.139 121.803C206.268 123.315 205.255 124.485 204.485 125.263Z" fill="#000566"/>
</g>
<g opacity="0.3">
<path d="M29.302 105.386C28.7027 105.379 28.0321 105.465 27.3258 105.707C27.4756 108.896 27.2973 116.245 22.7812 119.519C23.0595 120.09 23.3877 120.568 23.7158 120.96C23.8086 121.067 23.9013 121.174 23.9941 121.267C30.8715 117.543 29.302 105.386 29.302 105.386Z" fill="#000566"/>
</g>
<g opacity="0.3">
<path d="M151.277 97.6953C151.206 97.9664 151.113 98.2518 151.006 98.5372C146.497 110.416 136.737 107.141 133.719 105.786C133.127 105.515 132.45 105.465 131.822 105.643C125.865 107.305 122.69 104.737 121.491 103.374C121.063 102.889 120.485 102.568 119.85 102.454C117.289 101.997 113.636 100.877 111.261 100.107C117.746 99.8071 122.326 99.4361 122.326 99.4361C123.204 100.806 125.372 103.189 129.546 102.482C130.787 102.276 131.593 101.769 132.093 101.098C132.942 101.177 133.67 101.141 134.297 101.013C134.297 101.013 134.825 105.336 140.098 105.336C145.377 105.336 149.679 103.032 150.649 97.7524C150.663 97.7524 150.892 97.731 151.277 97.6953Z" fill="#000566"/>
</g>
<g opacity="0.3">
<path d="M107.201 109.859C107.201 110.658 106.573 111.315 105.774 111.343L96.0929 111.743C94.8729 111.743 93.8955 110.758 93.8955 109.545C93.8955 108.939 94.1381 108.39 94.5376 107.99C94.9371 107.591 95.4865 107.341 96.0929 107.341L105.867 108.382C106.63 108.461 107.201 109.096 107.201 109.859Z" fill="#000566"/>
</g>
<g opacity="0.3">
<path d="M25.9558 122.616C25.9558 122.616 24.9855 122.295 24.001 121.275C30.8713 117.544 29.3018 105.387 29.3018 105.387C30.7714 105.401 31.813 105.943 31.813 105.943C31.813 105.943 33.5966 119.406 25.9558 122.616Z" fill="#000566"/>
</g>
<g opacity="0.7">
<path d="M144.248 46.3499C144.248 46.3499 140.06 48.1977 138.041 43.5818C136.022 38.973 136.401 33.3441 130.208 23.5986C133.832 25.2395 136.215 30.3905 137.82 35.0706C139.012 38.5593 139.768 41.784 140.275 43.1038C140.353 43.3107 140.431 43.4748 140.496 43.5818C141.587 45.2655 144.248 46.3499 144.248 46.3499Z" fill="white"/>
</g>
<g opacity="0.7">
<path d="M88.3154 22.3006C88.3154 22.3006 104.453 16.8643 115.611 17.2495C116.532 17.278 116.717 15.9725 115.825 15.737C113.599 15.1592 109.483 14.9951 101.885 16.4933C101.885 16.4933 92.596 19.3399 88.3154 22.3006Z" fill="white"/>
</g>
<g opacity="0.7">
<path d="M143.207 94.6638C141.473 88.7922 135.901 88.2001 135.901 88.2001C121.761 86.2952 118.158 79.0254 118.158 79.0254C123.823 84.1407 135.901 86.174 135.901 86.174C141.359 87.451 141.808 88.7423 141.808 88.7423C141.808 88.7423 142.087 89.363 142.393 90.2904C142.786 91.4676 143.221 93.137 143.207 94.6638Z" fill="white"/>
</g>
<g opacity="0.7">
<path d="M133.141 84.3977C133.255 84.84 133.362 85.2823 133.447 85.7247C134.296 85.9102 135.124 86.06 135.901 86.1741C135.78 85.3537 135.602 84.5332 135.395 83.7271C133.626 76.8924 129.238 70.7783 129.238 70.7783C128.56 71.135 127.883 71.4632 127.212 71.7771C128.125 73.1255 131.607 78.4905 133.141 84.3977Z" fill="white"/>
</g>
<g opacity="0.7">
<path d="M42.5137 117.094C41.6362 117.565 40.8157 118.05 40.0381 118.557C40.1166 118.514 40.1879 118.471 40.2664 118.428C58.0022 108.968 84.3849 123.137 77.8998 143.356C77.7642 143.791 77.5502 144.19 77.272 144.533C78.1709 144.39 78.9628 143.898 79.5121 143.206C79.7904 142.856 80.0044 142.457 80.14 142.021C86.6322 121.81 60.2495 107.641 42.5137 117.094Z" fill="white"/>
</g>
<g opacity="0.7">
<path d="M196.45 139.388C195.116 128.515 189.708 112.97 169.675 112.97C158.203 112.97 151.475 116.458 147.565 120.889C151.632 117.293 158.01 114.668 167.977 114.668C188.01 114.668 193.418 130.213 194.752 141.086C194.794 141.457 194.794 141.814 194.737 142.17C194.673 142.62 194.523 143.048 194.316 143.447C195.458 142.862 196.243 141.749 196.435 140.472C196.492 140.123 196.492 139.759 196.45 139.388Z" fill="white"/>
</g>
<g opacity="0.7">
<path d="M70.9016 83.8554C75.4105 88.935 79.0347 100.022 79.263 100.714C80.8968 100.378 81.9455 100.022 81.9455 100.022C81.9455 100.022 78.2357 88.3714 73.577 83.1277C71.9361 81.2799 70.174 80.224 68.4189 80.7662C67.9195 80.916 67.4629 81.1229 67.042 81.3726C68.3547 81.5224 69.6674 82.4642 70.9016 83.8554Z" fill="white"/>
</g>
<g opacity="0.7">
<path d="M149.635 76.3932C149.385 76.2005 149.129 76.065 148.857 75.9722C148.073 75.7011 147.238 75.8295 146.567 76.2362C146.646 76.2861 146.724 76.3361 146.803 76.3932C150.791 79.4609 156.47 85.4323 159.316 95.8341C156.448 96.6831 152.689 97.2182 150.263 97.4964C150.52 97.6462 150.662 97.739 150.662 97.739C150.662 97.739 157.547 97.1896 162.142 95.827C159.302 85.4323 153.616 79.4609 149.635 76.3932Z" fill="white"/>
</g>
<g opacity="0.7">
<path d="M193.632 108.063L193.61 107.877C182.509 97.3257 162.148 95.8418 162.148 95.8418C157.554 97.2044 150.669 97.7538 150.669 97.7538C154.329 99.7585 162.476 98.8453 162.476 98.8453C163.689 98.9167 164.88 99.038 166.05 99.1878C166.693 99.2734 167.27 99.6016 167.691 100.101C168.712 101.307 171.665 102.798 175.318 103.846C178.528 104.767 181.461 105.102 183.144 104.845C183.665 104.767 184.193 104.86 184.664 105.095C188.445 106.993 190.671 108.584 190.671 108.584C190.671 108.584 191.862 108.263 193.632 108.063Z" fill="white"/>
</g>
<g opacity="0.7">
<path d="M207.8 114.247C205.967 109.31 201.223 108.026 197.185 107.904C197.185 107.904 197.32 108.404 197.641 109.238C201.058 109.745 204.526 111.336 206.024 115.388C206.866 117.65 207.044 119.719 206.83 121.574C207.258 121.909 207.708 122.244 208.171 122.565C208.863 120.225 208.985 117.421 207.8 114.247Z" fill="white"/>
</g>
<g opacity="0.7">
<path d="M64.0371 97.6743C46.872 97.7599 35.8424 104.502 31.9328 107.363C31.8757 106.478 31.8115 105.936 31.8115 105.936C41.186 94.5637 61.9254 94.6279 61.9254 94.6279C62.5104 95.8408 63.231 96.8467 64.0371 97.6743Z" fill="white"/>
</g>
<g opacity="0.3">
<path d="M118.464 117.423C118.464 117.423 131.691 119.684 138.597 116.11C145.503 112.528 134.902 130.079 118.885 121.931C105.58 115.154 118.464 117.423 118.464 117.423Z" fill="white"/>
</g>
<g opacity="0.3">
<path d="M104.818 122.916C106.894 122.566 110.369 122.317 114.421 123.373C115.398 123.622 115.448 124.999 114.485 125.299C113.472 125.613 112.009 125.948 109.912 126.233C107.058 126.619 105.325 126.062 104.276 125.349C103.284 124.664 103.634 123.116 104.818 122.916Z" fill="white"/>
</g>
<path d="M118.859 67.4547C118.552 68.3608 118.174 69.3096 117.71 70.2585C116.447 72.8197 113.18 73.5831 110.918 71.8352C110.083 71.1931 109.327 70.5082 108.649 69.8304C108.649 69.8304 110.276 67.8899 113.408 67.1622C116.547 66.4345 118.859 67.4547 118.859 67.4547Z" fill="#FF4D96"/>
<path d="M23.9996 121.981C23.7499 121.981 23.5073 121.846 23.3789 121.61C23.1934 121.268 23.3219 120.84 23.6643 120.647C30.0281 117.194 28.6226 105.587 28.6084 105.473C28.5584 105.087 28.8295 104.731 29.2219 104.681C29.6072 104.631 29.9639 104.902 30.0138 105.294C30.078 105.808 31.5548 117.979 24.3421 121.896C24.2279 121.953 24.1138 121.981 23.9996 121.981Z" fill="#000566"/>
<path d="M115.69 76.9498C114.006 77.3208 112.372 77.5848 110.696 77.806C109.033 78.0271 107.357 78.1841 105.68 78.284C104.004 78.3838 102.32 78.4195 100.629 78.3767C98.9454 78.3339 97.2546 78.2055 95.5709 77.9986C93.8872 77.7917 92.2178 77.4492 90.5698 77.0069C90.1631 76.8856 89.7422 76.7929 89.3355 76.6431L88.1156 76.2293C87.3165 75.9082 86.5103 75.6015 85.7398 75.2019L85.1548 74.9166L84.5912 74.5955L84.0276 74.2745L83.7422 74.1104L83.4711 73.9249L82.3939 73.1901L81.3737 72.3696C80.0538 71.2281 78.8838 69.894 77.9207 68.4244C77.7138 68.1105 77.7138 67.7109 77.8921 67.4042V67.397C78.0491 67.1402 78.1846 66.9832 78.3344 66.7906C78.4843 66.6123 78.6484 66.441 78.8267 66.2769C79.1692 65.9559 79.5544 65.6705 79.9611 65.4351C80.3606 65.1925 80.81 65.0142 81.2666 64.8929C81.7232 64.7645 82.2012 64.7502 82.6507 64.8002C82.772 64.8144 82.8647 64.9214 82.8505 65.0499C82.8433 65.1283 82.8005 65.1854 82.7363 65.2211L82.7149 65.2353C82.3439 65.4422 82.0086 65.6349 81.709 65.8774C81.4093 66.1129 81.1311 66.3626 80.8743 66.6337C80.6246 66.9048 80.3891 67.1973 80.1751 67.4969C80.0681 67.6467 79.9682 67.7966 79.8683 67.9535C79.7684 68.0962 79.6686 68.2817 79.6115 68.3816L79.583 67.3614C80.4462 68.6598 81.4735 69.8441 82.6578 70.8643L83.571 71.5991L84.5413 72.2626L84.7839 72.4267L85.0407 72.5765L85.5544 72.869L86.068 73.1615L86.6031 73.4184C87.3094 73.7822 88.0514 74.0676 88.7862 74.3601L89.9205 74.7454C90.2987 74.8809 90.691 74.9665 91.0763 75.0807C92.6244 75.4944 94.2083 75.8226 95.8135 76.0153C97.4187 76.2222 99.0382 76.3363 100.665 76.3791C102.291 76.4148 103.918 76.3791 105.552 76.2864C107.178 76.1936 108.805 76.0367 110.425 75.8226C112.037 75.6086 113.671 75.3446 115.226 75.0022L115.247 74.9951C115.782 74.8738 116.31 75.2162 116.432 75.7513C116.56 76.3006 116.225 76.8357 115.69 76.9498Z" fill="#000566"/>
<path d="M79.1826 67.3682C79.0684 67.2754 76.4073 65.1066 75.701 62.3028C75.6225 61.9889 75.701 61.6536 75.9222 61.4039C76.3859 60.876 77.6344 59.1923 77.7914 57.8296C77.827 57.4872 77.5559 56.0175 77.3205 54.7191C76.3431 49.4183 74.745 40.7786 77.6487 35.8631C76.55 35.0641 75.116 33.2948 75.2159 29.4922L77.1992 29.5493C77.0779 33.8869 79.3038 34.5433 79.3324 34.5504C79.6606 34.6289 79.9317 34.8714 80.0387 35.1996C80.1457 35.5278 80.0815 35.8774 79.8674 36.1414C76.6356 40.0938 78.3478 49.3755 79.2682 54.3695C79.6534 56.4384 79.8318 57.4586 79.7604 58.0579C79.5678 59.763 78.3764 61.4895 77.77 62.2814C78.4834 64.2291 80.4168 65.8129 80.4311 65.8343L79.1826 67.3682Z" fill="#000566"/>
<path d="M77.3928 50.1176C77.1359 50.1176 76.872 50.0177 76.6793 49.8108C76.2227 49.3328 65.4642 37.8609 67.5118 16.4509C67.5474 16.0728 67.7971 15.7446 68.161 15.6162C68.5605 15.4735 78.0491 12.1632 93.0954 18.691C93.5948 18.9122 93.8302 19.4901 93.609 19.9966C93.3879 20.496 92.81 20.7315 92.3034 20.5103C80.0396 15.1952 71.6425 16.7362 69.4166 17.307C67.7543 37.3472 77.9992 48.334 78.1062 48.4482C78.4843 48.8406 78.4701 49.4684 78.0777 49.8465C77.885 50.0249 77.6425 50.1176 77.3928 50.1176Z" fill="#000566"/>
<path d="M68.9958 15.6874C70.4155 16.5578 71.6854 17.4781 72.9482 18.4769C74.2038 19.4686 75.4095 20.5245 76.551 21.6374C77.136 22.1867 77.6782 22.7718 78.2347 23.3496C78.7698 23.9489 79.3191 24.5268 79.8185 25.1546C80.8601 26.3746 81.7947 27.6873 82.7008 29.0143L81.0456 29.0071C81.224 28.7717 81.4166 28.5577 81.6164 28.3436C81.8161 28.1296 82.0302 27.9227 82.2442 27.723C82.4653 27.5232 82.6794 27.3234 82.9148 27.1308C83.1502 26.9382 83.3857 26.7527 83.6425 26.5886C83.7638 26.5101 83.9279 26.5458 84.0064 26.6671C84.0492 26.7384 84.0634 26.8169 84.0349 26.8954V26.9025C83.9421 27.1879 83.8423 27.459 83.7352 27.7372C83.6354 28.0155 83.5212 28.2794 83.4142 28.5505C83.3072 28.8216 83.193 29.0856 83.0718 29.3424C82.9505 29.5993 82.8221 29.8632 82.6865 30.1058C82.4225 30.5624 81.8447 30.7194 81.3881 30.4554C81.2596 30.384 81.1598 30.2842 81.0813 30.1772L81.0313 30.0987C80.1752 28.8359 79.2906 27.5874 78.2918 26.4245C77.8138 25.8252 77.2858 25.2688 76.7722 24.698C76.2371 24.1487 75.7163 23.5851 75.1598 23.0643C74.0611 21.9941 72.9054 20.981 71.6997 20.0322C70.5083 19.0833 69.2312 18.163 67.9756 17.3996L67.9399 17.3782C67.4762 17.0929 67.3264 16.4864 67.6117 16.0156C67.8971 15.5447 68.5249 15.4092 68.9958 15.6874Z" fill="#000566"/>
<path d="M77.9923 30.6271C77.2504 30.6057 76.5584 30.3774 75.9163 30.0349C75.2742 29.6925 74.6892 29.2288 74.1755 28.6937C73.669 28.1515 73.2124 27.5379 72.8913 26.853C72.5417 26.1753 72.3491 25.4476 72.2064 24.7127C72.0994 24.1991 72.4347 23.6925 72.9484 23.5855L73.0055 23.5784H73.0269C73.3265 23.5356 73.5548 23.5213 73.8117 23.4999C74.0614 23.4856 74.3111 23.4785 74.5608 23.4785C75.0602 23.4785 75.5596 23.5142 76.059 23.5713C76.5584 23.6283 77.0506 23.7211 77.5429 23.8495C78.0352 23.9708 78.5203 24.142 78.9983 24.3346C79.5048 24.5415 79.7545 25.1123 79.5476 25.6259C79.3479 26.1325 78.77 26.375 78.2635 26.1753L78.2206 26.1539C77.8425 26.0041 77.4573 25.8614 77.0506 25.7615C76.6511 25.6545 76.2373 25.5831 75.8164 25.5332C75.3955 25.4832 74.9745 25.4547 74.5536 25.4547C74.3396 25.4547 74.1327 25.4619 73.9187 25.469C73.7189 25.4833 73.4835 25.5047 73.3265 25.5261L74.147 24.3846C74.2254 24.6699 74.254 24.9696 74.3396 25.2478C74.4323 25.5261 74.4894 25.8186 74.6107 26.0825C74.8033 26.639 75.0887 27.1527 75.4169 27.6521C75.745 28.1515 76.1517 28.6081 76.6083 29.029C77.0578 29.4571 77.5572 29.8708 78.0851 30.2775L78.0994 30.2918C78.1778 30.356 78.1921 30.4701 78.135 30.5486C78.0994 30.6057 78.0423 30.6271 77.9923 30.6271Z" fill="#000566"/>
<path d="M87.8731 22.3355C88.6792 21.2725 89.6852 20.4664 90.7482 19.7601C91.0122 19.5817 91.2904 19.4176 91.5686 19.2607C91.8469 19.1037 92.1251 18.9396 92.4033 18.7898C92.9598 18.483 93.5306 18.1905 94.1156 17.9194C95.2785 17.3843 96.4628 16.8921 97.6827 16.4997C98.8956 16.0859 100.137 15.7791 101.393 15.5366C101.928 15.4295 102.448 15.7863 102.555 16.3213C102.655 16.8207 102.356 17.3059 101.885 17.4557L101.849 17.47C101.264 17.6554 100.679 17.8124 100.101 17.9908C99.5234 18.1763 98.9384 18.3403 98.3605 18.5401C97.2047 18.9039 96.0632 19.3391 94.9289 19.7743C93.8017 20.2238 92.6887 20.7161 91.59 21.2511C90.4842 21.7648 89.3641 22.2713 88.1941 22.7279L88.1798 22.7351C88.0514 22.785 87.9016 22.7208 87.8517 22.5924C87.8017 22.4925 87.8231 22.3998 87.8731 22.3355Z" fill="#000566"/>
<path d="M115.24 75.0229C116.781 74.6448 118.372 74.1597 119.906 73.6389C121.454 73.1181 122.981 72.5402 124.486 71.9053C125.991 71.2703 127.468 70.5854 128.909 69.8292C130.35 69.073 131.749 68.2525 133.097 67.3607C134.453 66.4761 135.73 65.4844 136.935 64.4285C137.228 64.1574 137.542 63.9006 137.82 63.6152L138.669 62.7662C139.197 62.1741 139.739 61.5891 140.21 60.9541L140.574 60.4833L140.902 59.991L141.23 59.4987L141.394 59.2562L141.537 58.9993L142.115 57.972L142.607 56.909C143.213 55.4678 143.62 53.9554 143.813 52.4072L144.241 53.3347C144.141 53.2705 143.97 53.1492 143.82 53.0636C143.663 52.9708 143.506 52.8781 143.342 52.7925C143.014 52.6141 142.678 52.4643 142.336 52.3288C141.986 52.1932 141.63 52.0933 141.252 52.0148C140.873 51.9292 140.488 51.9078 140.067 51.8793H140.046C139.925 51.8722 139.825 51.7651 139.832 51.6439C139.839 51.5654 139.882 51.5012 139.939 51.4655C140.324 51.2229 140.759 51.0232 141.223 50.9376C141.68 50.8448 142.165 50.8091 142.636 50.852C143.106 50.8876 143.577 50.9732 144.027 51.1088C144.255 51.1801 144.476 51.2586 144.69 51.3514C144.911 51.4512 145.104 51.5368 145.361 51.7009C145.675 51.915 145.832 52.2788 145.789 52.6284C145.568 54.3692 145.111 56.0814 144.433 57.6937L143.884 58.8852L143.242 60.0195L143.078 60.3049L142.9 60.576L142.536 61.1182L142.172 61.6533L141.772 62.1669C141.259 62.8661 140.674 63.4939 140.096 64.136L139.183 65.0421C138.883 65.3488 138.555 65.6199 138.234 65.9125C136.95 67.0397 135.601 68.0813 134.181 69.0087C132.769 69.9433 131.306 70.7994 129.815 71.5842C128.317 72.3619 126.79 73.0753 125.242 73.7316C123.694 74.388 122.124 74.9801 120.533 75.5223C118.935 76.0574 117.352 76.5497 115.675 76.9563C115.147 77.0848 114.605 76.7637 114.476 76.2286C114.348 75.6936 114.669 75.1585 115.204 75.0301L115.24 75.0229Z" fill="#000566"/>
<path d="M144.198 52.2291L142.4 51.3944C142.414 51.373 143.448 49.0972 143.22 47.0282C142.321 46.5931 140.495 45.5657 139.567 44.1174C139.239 43.6109 138.954 42.6121 138.383 40.586C137.006 35.7061 134.445 26.617 129.801 24.4981C129.487 24.3555 129.273 24.0629 129.23 23.7276C129.187 23.3923 129.315 23.0499 129.579 22.8359C129.636 22.7859 131.292 21.2235 129.28 17.4067L131.035 16.4863C132.811 19.8537 132.305 22.0725 131.67 23.2782C136.443 26.4101 138.833 34.8643 140.295 40.0509C140.652 41.3208 141.058 42.7619 141.244 43.0473C141.986 44.2102 143.848 45.1591 144.497 45.4302C144.797 45.5514 145.018 45.8225 145.089 46.1365C145.689 48.9688 144.262 52.0936 144.198 52.2291Z" fill="#000566"/>
<path d="M137.748 36.0697C137.648 36.0697 137.548 36.0555 137.448 36.0198C136.928 35.8557 136.635 35.2992 136.806 34.7784C136.871 34.5787 141.173 20.2245 130.849 3.00941C128.595 3.48741 120.348 5.84173 111.729 15.9867C111.373 16.4005 110.752 16.4576 110.331 16.1008C109.917 15.7441 109.86 15.1234 110.217 14.7025C120.833 2.20324 130.814 0.976142 131.234 0.926202C131.613 0.883396 131.984 1.06175 132.183 1.38993C143.477 19.7037 138.89 34.7428 138.69 35.3706C138.561 35.7986 138.169 36.0697 137.748 36.0697Z" fill="#000566"/>
<path d="M132.169 2.4603C131.384 3.70167 130.643 5.08572 129.993 6.46264C129.337 7.84669 128.745 9.26641 128.231 10.7147C127.96 11.4352 127.739 12.1701 127.503 12.8978C127.297 13.6326 127.068 14.3674 126.904 15.1165C126.519 16.6005 126.276 18.1129 126.069 19.6183L126.055 19.7039C125.977 20.2247 125.499 20.5814 124.978 20.5029C124.835 20.4815 124.7 20.4244 124.586 20.3531C124.35 20.1962 124.129 20.0178 123.901 19.8394C123.679 19.6611 123.458 19.4685 123.237 19.2758C123.023 19.0761 122.802 18.8906 122.588 18.6837C122.374 18.4839 122.16 18.2842 121.953 18.0701C121.853 17.9631 121.853 17.799 121.96 17.692C122.017 17.6349 122.103 17.6064 122.174 17.6207C122.481 17.6563 122.773 17.7206 123.066 17.7848C123.358 17.849 123.644 17.9346 123.929 18.0131C124.215 18.0987 124.493 18.1914 124.771 18.2913C125.042 18.3983 125.313 18.4982 125.577 18.6337L124.093 19.3686C124.314 17.7776 124.571 16.1867 124.971 14.6314C125.142 13.8466 125.385 13.0833 125.599 12.3128C125.848 11.5494 126.077 10.786 126.355 10.0369C126.89 8.53158 127.503 7.04765 128.195 5.60652C128.887 4.15113 129.615 2.75994 130.514 1.35448C130.807 0.890755 131.42 0.7552 131.884 1.04771C132.348 1.34021 132.483 1.95376 132.191 2.41749L132.169 2.4603Z" fill="#000566"/>
<path d="M128.803 18.4767C129.095 17.8774 129.359 17.2853 129.573 16.7003C129.794 16.1152 129.966 15.5302 130.037 14.9381C130.115 14.3459 130.137 13.7538 130.065 13.1759C130.058 12.8834 129.98 12.598 129.937 12.3055C129.887 12.013 129.787 11.7348 129.73 11.4423L130.971 12.1058C130.822 12.1557 130.6 12.2413 130.415 12.3198C130.222 12.3983 130.03 12.491 129.837 12.5838C129.459 12.7693 129.088 12.9833 128.738 13.2116C128.382 13.4399 128.046 13.6896 127.733 13.9607C127.411 14.2247 127.133 14.5243 126.855 14.8239L126.819 14.8596C126.448 15.2663 125.828 15.2948 125.421 14.9238C125.021 14.56 124.986 13.9321 125.35 13.5326C125.692 13.1474 126.049 12.7764 126.441 12.4554C126.826 12.1272 127.233 11.8204 127.654 11.5493C128.075 11.2782 128.51 11.0285 128.952 10.8073C129.174 10.7003 129.402 10.5933 129.637 10.4934C129.88 10.3935 130.087 10.3079 130.379 10.2152L130.401 10.208C130.9 10.044 131.442 10.3151 131.606 10.8145C131.614 10.8359 131.621 10.8573 131.621 10.8715C131.82 11.5921 131.963 12.3341 131.949 13.0903C131.963 13.8465 131.828 14.5956 131.614 15.3091C131.392 16.0225 131.071 16.6931 130.643 17.2853C130.215 17.8774 129.694 18.384 129.038 18.7335C128.952 18.7835 128.838 18.7478 128.788 18.6551C128.76 18.6051 128.76 18.5409 128.788 18.491L128.803 18.4767Z" fill="#000566"/>
<path d="M116.402 16.1434C115.146 16.2504 113.919 16.2932 112.699 16.3218C111.479 16.3289 110.266 16.3788 109.053 16.4716C107.841 16.5786 106.635 16.6928 105.429 16.8782C104.823 16.9496 104.231 17.0709 103.624 17.1565C103.025 17.2564 102.426 17.3705 101.826 17.4633L101.784 17.4704C101.241 17.556 100.735 17.1779 100.656 16.6428C100.578 16.1363 100.899 15.6654 101.377 15.537C102.611 15.2017 103.86 14.9306 105.13 14.7665C106.392 14.5739 107.676 14.5025 108.954 14.4669C109.596 14.4526 110.231 14.4597 110.873 14.4954C111.194 14.5025 111.515 14.5239 111.829 14.5453C112.15 14.5596 112.464 14.5953 112.785 14.6309C114.055 14.795 115.317 15.0733 116.509 15.6725C116.63 15.7368 116.68 15.8866 116.623 16.0079C116.58 16.0863 116.502 16.1363 116.416 16.1434H116.402Z" fill="#000566"/>
<path d="M89.4853 55.7465C89.3355 55.3613 89.2356 54.976 89.1928 54.5765C89.1428 54.177 89.1428 53.7775 89.1785 53.3637C89.257 52.5504 89.521 51.7156 89.9704 50.9665C90.4127 50.2103 91.0548 49.5325 91.7968 49.0545C92.5316 48.5337 93.3521 48.2412 94.1654 48.0201C94.5792 47.9273 95.0001 47.8774 95.4282 47.8203H96.0845H96.4127C96.5197 47.8274 96.6339 47.8488 96.748 47.8631L97.4044 47.9701C97.6255 48.0343 97.8396 48.0986 98.0536 48.1699C98.2676 48.2341 98.4674 48.3411 98.6743 48.4339C98.874 48.5337 99.0738 48.6408 99.2521 48.7692C99.9941 49.2614 100.579 49.9249 100.972 50.6455C101.057 50.831 101.15 51.0093 101.228 51.202C101.293 51.3946 101.371 51.573 101.421 51.7727C101.528 52.158 101.585 52.5432 101.578 52.9499C101.578 53.0426 101.499 53.1211 101.407 53.1211C101.364 53.1211 101.321 53.0997 101.293 53.0712L101.278 53.0569C100.222 52.0438 99.1451 51.309 98.1035 51.045C97.9822 50.9951 97.8467 50.9808 97.7183 50.9594C97.5898 50.938 97.4686 50.8952 97.333 50.8952C97.2046 50.8881 97.0762 50.8809 96.9478 50.8595L96.5554 50.8738H96.3627L96.163 50.9023L95.7635 50.9451C95.4924 51.0022 95.2141 51.0522 94.943 51.1164C94.4008 51.2733 93.8729 51.4231 93.4163 51.6728C93.1666 51.7727 92.9668 51.9297 92.7314 52.0581C92.6244 52.1294 92.5316 52.2222 92.4175 52.3007C92.3033 52.372 92.2106 52.4719 92.1107 52.5646C91.2974 53.2852 90.6339 54.391 90.0846 55.7037L90.0703 55.7465C90.0061 55.9035 89.8277 55.9748 89.6708 55.9106C89.5709 55.8821 89.5138 55.8179 89.4853 55.7465Z" fill="#000566"/>
<path d="M129.287 46.5789C128.217 45.6514 127.133 44.9452 126.084 44.6598C125.956 44.617 125.827 44.5742 125.692 44.5599C125.556 44.5385 125.435 44.5028 125.306 44.4814C125.042 44.4672 124.793 44.4172 124.522 44.4386C124.001 44.4172 123.459 44.5171 122.902 44.617C122.631 44.6812 122.36 44.7597 122.089 44.831L121.711 44.9666L121.518 45.0308L121.347 45.1164L120.99 45.2805C120.883 45.3518 120.776 45.416 120.662 45.4802C120.541 45.5373 120.448 45.6229 120.348 45.7014C120.241 45.7799 120.127 45.8512 120.034 45.9511C119.214 46.6503 118.572 47.7775 118.072 49.1544L118.065 49.1758C118.037 49.2614 117.937 49.3113 117.844 49.2757C117.801 49.2614 117.765 49.2329 117.751 49.1901C117.566 48.8262 117.444 48.4552 117.373 48.0628C117.323 47.8631 117.316 47.6705 117.295 47.4707C117.28 47.2709 117.287 47.064 117.28 46.8571C117.309 46.0367 117.544 45.1877 117.994 44.4172C118.094 44.2175 118.229 44.0391 118.365 43.8607C118.5 43.6824 118.636 43.4969 118.8 43.3471C118.957 43.1901 119.121 43.0332 119.292 42.8762L119.834 42.4838C119.927 42.4196 120.02 42.3554 120.113 42.2983L120.405 42.1485L120.997 41.8631C121.404 41.7276 121.803 41.5849 122.217 41.485C123.045 41.3281 123.915 41.221 124.8 41.3637C125.677 41.4636 126.548 41.7918 127.283 42.2698C128.017 42.7478 128.624 43.3756 129.059 44.0676C129.266 44.4243 129.451 44.7811 129.58 45.1592C129.715 45.5373 129.801 45.9154 129.837 46.3363C129.851 46.5076 129.722 46.6503 129.558 46.6645C129.473 46.6717 129.394 46.6431 129.33 46.5932L129.287 46.5789Z" fill="#000566"/>
<path d="M110.245 53.5993C110.245 53.5993 107.984 54.1272 106.55 55.0404C106.015 55.3829 105.844 56.0891 106.193 56.6242C106.935 57.7728 108.59 59.5564 111.48 58.8858C114.369 58.2152 115.068 55.8822 115.225 54.5267C115.297 53.8918 114.833 53.3353 114.205 53.264C112.507 53.0713 110.245 53.5993 110.245 53.5993Z" fill="#000566"/>
<path d="M112.244 57.7871L112.508 58.9L112.572 59.1783C112.594 59.2781 112.629 59.428 112.644 59.5564C112.679 59.8203 112.679 60.0915 112.658 60.3554C112.608 60.8834 112.43 61.4042 112.144 61.8607C112.073 61.9749 111.994 62.0819 111.909 62.1889L111.78 62.3388L111.673 62.4529C111.531 62.6099 111.381 62.7597 111.231 62.9024C110.018 64.0653 108.499 64.9784 106.808 65.3637C105.966 65.5563 105.11 65.6205 104.254 65.5563L103.612 65.4921L102.97 65.3566C102.756 65.3209 102.542 65.2424 102.335 65.1639L102.021 65.0498C101.914 65.007 101.814 64.9499 101.714 64.9C100.901 64.5004 100.159 63.837 99.7734 63.0165C99.6592 62.8239 99.6093 62.5956 99.5308 62.3958C99.4809 62.1818 99.4309 61.9678 99.4167 61.7537C99.3739 61.3257 99.4024 60.8976 99.5451 60.4838C99.5665 60.4268 99.6307 60.3982 99.6878 60.4125C99.7163 60.4196 99.7377 60.441 99.752 60.4696L99.7591 60.4838C100.109 61.1901 100.487 61.7965 100.936 62.2603C101.386 62.7169 101.864 63.0736 102.449 63.3019C102.52 63.3304 102.591 63.3661 102.663 63.3875L102.891 63.4446C103.048 63.4802 103.191 63.5302 103.362 63.5444L103.847 63.6158L104.354 63.6301C105.024 63.6586 105.709 63.5801 106.358 63.4303C107.664 63.1307 108.884 62.4529 109.861 61.4898C109.983 61.3685 110.104 61.2472 110.218 61.1188L110.304 61.026L110.361 60.9547C110.396 60.9119 110.432 60.8619 110.461 60.812C110.582 60.6194 110.653 60.3982 110.675 60.1628C110.682 60.0486 110.682 59.9274 110.667 59.8132C110.66 59.749 110.653 59.7133 110.632 59.6277L110.568 59.3495L110.311 58.2294C110.189 57.6943 110.525 57.1664 111.053 57.0451C111.588 56.931 112.116 57.2591 112.244 57.7871Z" fill="#000566"/>
<path d="M112.243 57.7873L112.507 58.9002L112.572 59.1784C112.593 59.2641 112.6 59.2997 112.622 59.3639C112.657 59.471 112.707 59.578 112.771 59.6778C112.893 59.8776 113.057 60.0417 113.249 60.163C113.299 60.1915 113.349 60.22 113.399 60.2414L113.485 60.2771L113.606 60.3271C113.763 60.3913 113.927 60.4483 114.091 60.4983C115.397 60.9263 116.795 60.9977 118.094 60.6909C118.743 60.534 119.385 60.3057 119.977 59.9846L120.426 59.7492L120.833 59.471C120.976 59.3853 121.083 59.2712 121.211 59.1713L121.397 59.0144C121.454 58.9644 121.497 58.9002 121.554 58.8431C121.975 58.3865 122.253 57.8515 122.453 57.245C122.652 56.6315 122.724 55.9181 122.724 55.1333V55.119C122.724 55.0548 122.774 55.0049 122.838 55.0049C122.866 55.0049 122.895 55.0191 122.916 55.0334C123.223 55.3402 123.444 55.7112 123.594 56.1107C123.68 56.3105 123.73 56.5245 123.78 56.7385C123.801 56.9525 123.851 57.1808 123.837 57.402C123.851 58.3081 123.48 59.2284 122.931 59.9489C122.859 60.0417 122.795 60.1344 122.724 60.2201L122.495 60.4626C122.338 60.6267 122.189 60.7908 122.01 60.9192L121.49 61.3259L120.94 61.6612C120.205 62.0964 119.406 62.4174 118.564 62.61C116.881 63.0096 115.111 62.8597 113.513 62.3603C113.314 62.2961 113.114 62.2248 112.914 62.1534L112.764 62.0964L112.586 62.0179C112.465 61.9608 112.343 61.8966 112.229 61.8253C111.773 61.5399 111.387 61.1546 111.102 60.698C110.959 60.4697 110.845 60.2272 110.76 59.9775C110.717 59.8562 110.681 59.7064 110.653 59.6065L110.588 59.3283L110.331 58.2082C110.21 57.6731 110.545 57.1452 111.073 57.0239C111.587 56.9311 112.115 57.2593 112.243 57.7873Z" fill="#000566"/>
<path d="M113.663 73.768C112.464 73.768 111.287 73.3756 110.31 72.6193C106.122 69.3946 103.81 65.2639 103.718 65.0927C103.454 64.6147 103.625 64.0082 104.103 63.7443C104.581 63.4803 105.187 63.6515 105.451 64.1295C105.473 64.1652 107.677 68.0819 111.523 71.0498C112.364 71.699 113.435 71.9273 114.462 71.6919C115.489 71.4493 116.353 70.7715 116.816 69.8156C118.957 65.4565 119.206 60.969 119.206 60.9262C119.235 60.3769 119.698 59.9488 120.248 59.9845C120.797 60.013 121.218 60.4768 121.19 61.019C121.182 61.2187 120.926 65.9416 118.6 70.686C117.865 72.177 116.524 73.24 114.919 73.6181C114.498 73.7252 114.077 73.768 113.663 73.768Z" fill="#000566"/>
<path d="M108.648 70.5431C108.491 70.5431 108.327 70.486 108.192 70.379C107.892 70.1293 107.849 69.6799 108.106 69.3802C108.177 69.2946 109.918 67.2471 113.25 66.4766C113.628 66.3909 114.013 66.6264 114.099 67.0045C114.185 67.3826 113.949 67.7678 113.571 67.8535C110.696 68.5241 109.205 70.272 109.191 70.2934C109.048 70.4575 108.848 70.5431 108.648 70.5431Z" fill="#000566"/>
<path d="M118.857 68.1672C118.765 68.1672 118.665 68.1458 118.572 68.1101C118.544 68.0958 116.41 67.1969 113.564 67.8604C113.186 67.946 112.8 67.7106 112.715 67.3325C112.629 66.9544 112.865 66.5691 113.243 66.4835C116.574 65.713 119.036 66.776 119.143 66.8188C119.5 66.9757 119.664 67.3967 119.507 67.7534C119.385 68.0102 119.129 68.1672 118.857 68.1672Z" fill="#000566"/>
<path d="M87.7027 100.792C85.5909 90.0759 89.1438 76.2354 89.2936 75.6504L91.2128 76.1498C91.1771 76.2853 87.6242 90.1473 89.6432 100.406L87.7027 100.792Z" fill="#000566"/>
<path d="M118.25 78.9252C120.162 79.9739 122.003 80.9798 123.901 81.9073C125.791 82.8347 127.789 83.5268 129.829 84.0119C130.343 84.126 130.85 84.2616 131.37 84.3401C131.891 84.4328 132.391 84.5256 132.94 84.6112C133.482 84.7039 134.024 84.7824 134.567 84.8894C135.109 84.9893 135.651 85.0963 136.193 85.2176C137.278 85.453 138.355 85.7384 139.432 86.1308C139.703 86.2235 139.974 86.3377 140.238 86.4447C140.51 86.5731 140.781 86.673 141.052 86.8299C141.323 86.9726 141.594 87.1296 141.872 87.3293C142.008 87.4221 142.15 87.5434 142.293 87.6718C142.364 87.7431 142.443 87.8216 142.514 87.9072L142.636 88.0642C142.657 88.0927 142.685 88.1427 142.707 88.1783L142.743 88.2425C142.757 88.2782 142.792 88.3424 142.807 88.3924L142.771 88.3139C143.035 88.906 143.228 89.4554 143.42 90.0333C143.613 90.6111 143.777 91.1961 143.913 91.7954C144.177 92.994 144.369 94.2425 144.191 95.6051C144.098 96.2758 143.898 96.9963 143.477 97.6527C143.064 98.309 142.407 98.8512 141.708 99.1437C141.622 99.1794 141.537 99.2222 141.444 99.2508L141.18 99.3292C141.002 99.3792 140.831 99.4362 140.659 99.4576L140.139 99.5361L139.632 99.5504C139.461 99.5575 139.297 99.5575 139.14 99.5433L138.655 99.5076C138.341 99.4719 138.027 99.4148 137.713 99.372C137.171 99.2936 136.8 98.7942 136.878 98.252C136.957 97.724 137.435 97.353 137.963 97.4101L138.055 97.4173C138.312 97.4458 138.576 97.4815 138.833 97.5029C139.083 97.5029 139.347 97.5385 139.582 97.51C140.074 97.5029 140.517 97.403 140.88 97.246C141.244 97.0819 141.515 96.8536 141.708 96.5326C141.908 96.2115 142.036 95.7906 142.093 95.3269C142.207 94.3852 142.065 93.315 141.836 92.2663C141.601 91.2247 141.244 90.1403 140.838 89.17L140.802 89.0915C140.816 89.1272 140.838 89.1771 140.845 89.1985L140.852 89.2199L140.873 89.2485L140.823 89.1914C140.766 89.1415 140.702 89.0844 140.617 89.0202C140.46 88.8989 140.26 88.7847 140.053 88.6706C139.853 88.5565 139.618 88.4566 139.404 88.3496C139.168 88.2568 138.947 88.1569 138.705 88.0713C137.756 87.7075 136.735 87.4292 135.715 87.1724C135.202 87.044 134.688 86.9227 134.167 86.8157C133.653 86.6944 133.126 86.6088 132.605 86.5089C132.091 86.4162 131.527 86.2949 130.985 86.1879C130.436 86.088 129.901 85.931 129.359 85.7884C127.211 85.1891 125.128 84.3829 123.166 83.327C122.174 82.8205 121.24 82.2141 120.369 81.5292C119.934 81.1867 119.52 80.8086 119.121 80.4234C118.729 80.0238 118.358 79.6101 118.044 79.1392C118.001 79.075 118.015 78.9822 118.086 78.9394C118.143 78.8966 118.201 78.8966 118.25 78.9252Z" fill="#000566"/>
<path d="M137.742 91.7533C138.349 92.7735 138.684 93.9008 138.862 95.0851C139.027 96.2622 138.969 97.525 138.513 98.7806C138.292 99.4084 137.928 100.022 137.45 100.55C136.972 101.078 136.358 101.499 135.709 101.763C134.404 102.284 133.077 102.291 131.885 102.07C131.343 101.97 130.986 101.449 131.086 100.914C131.172 100.436 131.585 100.1 132.056 100.1H132.085C133.098 100.093 134.061 99.9935 134.824 99.6653C135.588 99.3514 136.137 98.7806 136.522 97.9673C136.915 97.1611 137.079 96.1552 137.193 95.1207C137.314 94.0791 137.336 92.9876 137.393 91.8532V91.839C137.4 91.7319 137.486 91.6535 137.593 91.6606C137.65 91.6677 137.707 91.7034 137.742 91.7533Z" fill="#000566"/>
<path d="M131.87 94.0148C132.413 94.6926 132.841 95.4345 133.169 96.2478C133.497 97.054 133.74 97.9244 133.775 98.8804C133.79 99.3584 133.761 99.8507 133.633 100.357C133.504 100.864 133.276 101.37 132.948 101.82C132.284 102.747 131.243 103.282 130.294 103.532C129.809 103.668 129.352 103.71 128.895 103.767C128.781 103.782 128.667 103.803 128.546 103.803H128.189H127.483C126.527 103.717 125.571 103.489 124.686 103.075C123.816 102.64 123.031 102.048 122.403 101.335C122.239 101.163 122.104 100.971 121.954 100.785C121.811 100.593 121.69 100.4 121.561 100.2C121.44 100 121.326 99.8007 121.226 99.5796C121.119 99.3584 121.033 99.1658 120.934 98.8875L121.989 99.5082C120.812 99.6937 119.721 99.7436 118.579 99.7436C117.452 99.7365 116.325 99.658 115.198 99.5011C114.078 99.3441 112.957 99.1087 111.859 98.7805C110.76 98.4523 109.69 98.0243 108.663 97.4963C107.635 96.9755 106.644 96.3406 105.759 95.5844C104.867 94.8353 104.047 94.0005 103.362 93.0588C103.276 92.9447 103.183 92.8305 103.098 92.7092L102.862 92.3454C102.713 92.1028 102.549 91.8531 102.42 91.6034C102.163 91.0826 101.899 90.5761 101.728 90.0267C101.329 88.9566 101.136 87.8222 101.093 86.695C101.086 86.5595 101.193 86.4524 101.321 86.4453C101.414 86.4453 101.5 86.4952 101.543 86.5666L101.55 86.5737C102.606 88.5071 103.583 90.305 104.896 91.8531C105.531 92.6379 106.273 93.3228 107.072 93.9363C107.871 94.5427 108.734 95.0778 109.654 95.513C110.567 95.9482 111.523 96.3049 112.508 96.6045C113.493 96.897 114.506 97.1039 115.526 97.268C116.553 97.4179 117.588 97.5249 118.629 97.5677C119.15 97.5819 119.671 97.6034 120.192 97.5962C120.705 97.5891 121.247 97.5819 121.718 97.5391L121.811 97.532C122.246 97.4963 122.639 97.7603 122.774 98.1598C122.838 98.2526 122.938 98.4238 123.031 98.5593C123.131 98.702 123.238 98.8447 123.338 98.9803C123.559 99.2514 123.794 99.5153 124.044 99.7508C124.551 100.222 125.1 100.614 125.714 100.878C126.32 101.149 126.976 101.285 127.654 101.356L128.175 101.363L128.432 101.37C128.517 101.37 128.61 101.356 128.696 101.349C129.045 101.313 129.409 101.292 129.716 101.22C130.023 101.149 130.322 101.056 130.558 100.921C130.807 100.792 131.021 100.643 131.186 100.443C131.528 100.058 131.749 99.4868 131.842 98.7948C132.027 97.4107 131.778 95.7912 131.492 94.186V94.1718C131.471 94.0576 131.549 93.9435 131.664 93.9221C131.742 93.9221 131.821 93.9577 131.87 94.0148Z" fill="#000566"/>
<path d="M81.9446 101.014C81.5237 101.014 81.1385 100.743 81.0029 100.322C78.4916 92.4383 72.9269 80.4241 68.7105 81.7083C62.7748 83.5275 62.9175 94.4929 62.9175 94.6071C62.9317 95.1564 62.4965 95.6059 61.9472 95.6202C61.9401 95.6202 61.9329 95.6202 61.9258 95.6202C61.3907 95.6202 60.9484 95.1921 60.9341 94.6499C60.9199 94.1362 60.7629 82.0721 68.1255 79.8177C75.5808 77.5347 82.1587 97.4465 82.8864 99.7224C83.0504 100.243 82.7651 100.8 82.2443 100.964C82.1444 100.999 82.0445 101.014 81.9446 101.014Z" fill="#000566"/>
<path d="M87.0595 100.793C84.3698 87.3802 80.5815 81.1234 77.9347 79.7465C77.4567 79.4968 77.0429 79.4255 76.7575 79.5468C74.9454 80.3387 74.5602 83.2209 74.553 83.2495L72.584 83.0069C72.6054 82.8428 73.1119 78.976 75.9585 77.7346C76.5506 77.4778 77.5352 77.3137 78.8408 77.9915C80.7385 78.9832 85.5256 83.1496 88.9929 100.407L87.0595 100.793Z" fill="#000566"/>
<path d="M25.9544 123.608C25.8474 123.608 25.7475 123.594 25.6405 123.558C25.4122 123.479 20.0186 121.603 21.046 113.363C21.2957 111.316 22.002 109.432 23.0793 107.905C25.826 104.024 29.4573 104.039 31.5191 104.745C41.1647 93.8151 60.6699 93.6367 61.8898 93.6367C61.9041 93.6367 61.9112 93.6367 61.9184 93.6367C62.2965 93.6367 62.6389 93.8579 62.8102 94.1932C67.4617 103.796 81.4735 99.1301 81.6162 99.0802C81.7446 99.0374 81.8873 99.016 82.0228 99.0302C97.5898 100.371 122.011 98.4595 122.253 98.4381C122.802 98.4024 123.273 98.8019 123.316 99.3442C123.359 99.8864 122.952 100.364 122.41 100.407C122.167 100.429 97.7825 102.341 82.0442 101.014C80.1893 101.584 66.6127 105.38 61.3191 95.6201C57.9303 95.7271 41.0291 96.7187 32.8318 106.236C33.0815 108.704 33.852 120.355 26.3325 123.515C26.2183 123.586 26.0899 123.608 25.9544 123.608ZM29.279 106.379C27.9591 106.379 26.2255 106.899 24.6987 109.054C23.807 110.317 23.2219 111.893 23.015 113.613C22.3302 119.135 24.9912 121.04 25.9472 121.539C31.5691 118.757 31.0982 109.082 30.8842 106.635C30.5132 106.507 29.9496 106.379 29.279 106.379Z" fill="#000566"/>
<path d="M28.308 144.868H24.3484C23.9204 144.868 23.5423 144.597 23.4067 144.191C20.2676 134.781 22.6433 121.354 22.7432 120.79C22.8431 120.255 23.3496 119.891 23.8918 119.991C24.4269 120.091 24.7908 120.605 24.6909 121.14C24.6695 121.268 22.4222 133.974 25.069 142.885H28.3008C28.8502 142.885 29.2925 143.327 29.2925 143.877C29.2925 144.426 28.8502 144.868 28.308 144.868Z" fill="#000566"/>
<path d="M30.9554 146.48C30.2705 146.48 29.5999 146.266 29.022 145.845C28.2515 145.289 27.7307 144.425 27.6023 143.476C27.0315 139.196 26.3823 124.578 42.0492 116.223C47.0575 113.548 52.9076 112.571 58.9646 113.377C64.6506 114.14 70.0727 116.466 74.232 119.94C81.2736 125.819 83.7706 133.974 81.0952 142.321C80.553 143.997 79.1119 145.253 77.4068 145.517C76.1797 145.709 75.3806 145.324 74.9383 144.967C74.2035 144.39 73.7825 143.434 73.6755 142.135C73.2546 136.877 70.3438 124.635 52.4653 124.635C47.1574 124.635 42.891 126.219 39.7876 129.329C34.1943 134.944 34.1658 143.776 34.1658 143.862C34.1658 143.969 34.1515 144.069 34.1159 144.168C33.8947 144.86 33.1099 146.116 31.5689 146.409C31.362 146.459 31.1551 146.48 30.9554 146.48ZM54.948 115.118C50.7388 115.118 46.5866 116.052 42.9838 117.971C28.8436 125.512 28.8936 138.14 29.5713 143.212C29.6284 143.619 29.8496 143.997 30.1849 144.233C30.4916 144.454 30.8555 144.532 31.2051 144.468C31.7901 144.354 32.0826 143.89 32.1896 143.676C32.2181 142.214 32.6248 133.731 38.375 127.952C41.8637 124.442 46.608 122.659 52.4653 122.659C71.999 122.659 75.188 136.171 75.6517 141.978C75.7088 142.685 75.8943 143.198 76.1654 143.412C76.3652 143.569 76.6862 143.619 77.1071 143.555C78.0703 143.405 78.8978 142.685 79.2046 141.714C81.6231 134.173 79.3473 126.796 72.955 121.46C67.9681 117.301 61.3903 115.118 54.948 115.118Z" fill="#000566"/>
<path d="M53.6784 156.789C44.3253 156.789 35.7642 150.932 32.3896 142.207L34.2374 141.493C37.3266 149.455 45.1386 154.806 53.6784 154.806C62.8602 154.806 70.8649 148.92 73.5902 140.159L75.4808 140.751C72.4915 150.34 63.7306 156.789 53.6784 156.789Z" fill="#000566"/>
<path d="M53.6776 145.625C48.1841 145.625 43.7109 141.151 43.7109 135.658C43.7109 130.165 48.1841 125.691 53.6776 125.691C59.171 125.691 63.6442 130.165 63.6442 135.658C63.6442 141.151 59.171 145.625 53.6776 145.625ZM53.6776 127.675C49.2757 127.675 45.6943 131.256 45.6943 135.658C45.6943 140.06 49.2757 143.641 53.6776 143.641C58.0794 143.641 61.6608 140.06 61.6608 135.658C61.6608 131.256 58.0794 127.675 53.6776 127.675Z" fill="#000566"/>
<path d="M169.462 145.625C163.968 145.625 159.495 141.151 159.495 135.658C159.495 130.165 163.968 125.691 169.462 125.691C174.955 125.691 179.428 130.165 179.428 135.658C179.428 141.151 174.955 145.625 169.462 145.625ZM169.462 127.675C165.06 127.675 161.478 131.256 161.478 135.658C161.478 140.06 165.06 143.641 169.462 143.641C173.864 143.641 177.445 140.06 177.445 135.658C177.445 131.256 173.864 127.675 169.462 127.675Z" fill="#000566"/>
<path d="M140.109 106.322C135.244 106.322 133.538 102.926 133.324 101.128C133.26 100.586 133.645 100.093 134.188 100.022C134.73 99.9577 135.222 100.343 135.293 100.878C135.343 101.235 135.893 104.338 140.116 104.338C143.105 104.338 148.199 103.525 149.548 98.2312C148.513 97.6748 146.138 96.5904 143.127 96.5475C142.578 96.5404 142.142 96.0909 142.149 95.5416C142.157 94.9923 142.606 94.5428 143.155 94.5642C147.828 94.6284 151.089 96.8258 151.224 96.9185C151.545 97.1397 151.709 97.5321 151.638 97.9173C150.661 103.261 146.459 106.322 140.109 106.322Z" fill="#000566"/>
<path d="M193.61 108.868C193.367 108.868 193.118 108.775 192.925 108.596C182.737 98.9152 164.238 97.0174 162.24 96.8391C157.61 98.1803 151.018 98.7154 150.74 98.7368C150.183 98.7796 149.72 98.373 149.677 97.8308C149.634 97.2886 150.041 96.8105 150.583 96.7677C150.654 96.7606 157.418 96.2113 161.855 94.8986C161.969 94.8629 162.091 94.8486 162.212 94.8629C163.061 94.9271 183.058 96.4967 194.288 107.177C194.687 107.555 194.701 108.183 194.323 108.575C194.131 108.768 193.874 108.868 193.61 108.868Z" fill="#000566"/>
<path d="M162.141 96.825C161.705 96.825 161.306 96.5325 161.185 96.0973C158.445 86.095 153.059 80.2877 149.021 77.1772C148.493 76.7705 147.815 76.6992 147.208 76.9988C146.602 77.2985 146.238 77.8835 146.238 78.5612V95.7549C146.238 96.3042 145.796 96.7465 145.247 96.7465C144.697 96.7465 144.255 96.3042 144.255 95.7549V78.5612C144.255 77.1344 145.054 75.8573 146.331 75.2224C147.608 74.5945 149.099 74.7444 150.226 75.6076C154.507 78.9037 160.207 85.0392 163.089 95.5765C163.232 96.1045 162.925 96.6467 162.397 96.7965C162.319 96.8179 162.233 96.825 162.141 96.825Z" fill="#000566"/>
<path d="M203.013 131.128C202.792 131.128 202.578 131.056 202.399 130.914C190.043 121.09 189.693 109.097 189.679 108.59C189.672 108.134 189.978 107.727 190.421 107.613C190.571 107.577 205.032 103.91 208.735 113.898C212.53 124.122 203.698 130.864 203.605 130.928C203.427 131.063 203.22 131.128 203.013 131.128ZM191.726 109.361C192.033 112.072 193.738 121.154 203.006 128.859C204.768 127.282 209.641 122.053 206.88 114.597C204.247 107.513 194.594 108.804 191.726 109.361Z" fill="#000566"/>
<path d="M208.178 123.551C207.986 123.551 207.786 123.494 207.615 123.373C198.754 117.237 196.328 108.526 196.236 108.155C196.093 107.628 196.407 107.085 196.935 106.943C197.463 106.8 198.005 107.114 198.148 107.642C198.176 107.756 200.523 116.046 208.742 121.746C209.191 122.06 209.306 122.674 208.992 123.123C208.799 123.401 208.492 123.551 208.178 123.551Z" fill="#000566"/>
<path d="M196.706 141.501C196.285 141.501 195.893 141.23 195.764 140.809C195.6 140.288 195.893 139.732 196.414 139.568C204.04 137.171 203.284 129.487 203.248 129.159C203.191 128.617 203.584 128.124 204.126 128.067C204.661 128.003 205.16 128.403 205.217 128.945C205.224 129.038 206.166 138.583 197.006 141.458C196.899 141.487 196.799 141.501 196.706 141.501Z" fill="#000566"/>
<path d="M192.468 144.875C191.348 144.875 190.271 144.49 189.379 143.762C188.338 142.913 187.674 141.658 187.56 140.317C187.111 135.13 184.35 123.073 168.426 123.073C162.89 123.073 158.638 124.536 155.77 127.418C151.981 131.235 151.446 136.764 151.468 139.717C151.482 141.23 150.804 142.635 149.613 143.577C148.471 144.476 147.023 144.797 145.639 144.455C144.241 144.112 142.386 142.978 141.522 139.539C141.515 139.51 141.508 139.489 141.508 139.461C141.437 139.018 139.796 128.516 146.566 120.533C151.382 114.861 159.151 111.986 169.674 111.986C190.913 111.986 196.178 129.08 197.434 139.275C197.755 141.9 196 144.326 193.439 144.79C193.31 144.811 193.175 144.833 193.039 144.847C192.846 144.868 192.654 144.875 192.468 144.875ZM168.426 121.097C176.038 121.097 181.767 123.637 185.448 128.652C188.495 132.797 189.315 137.634 189.529 140.153C189.6 140.973 189.993 141.708 190.628 142.236C191.248 142.742 192.019 142.971 192.797 142.878C192.889 142.864 192.982 142.856 193.075 142.835C194.609 142.557 195.657 141.094 195.465 139.51C194.038 127.853 188.402 113.963 169.674 113.963C159.772 113.963 152.509 116.595 148.086 121.796C142.093 128.845 143.356 138.426 143.456 139.097C143.962 141.066 144.854 142.221 146.11 142.528C146.902 142.721 147.729 142.535 148.386 142.022C149.092 141.465 149.491 140.631 149.484 139.732C149.463 136.471 150.062 130.35 154.357 126.027C157.61 122.759 162.34 121.097 168.426 121.097Z" fill="#000566"/>
<path d="M169.382 156.104C160.165 156.104 151.939 149.926 149.385 141.072L151.29 140.523C153.601 148.528 161.042 154.121 169.382 154.121C177.979 154.121 185.484 148.314 187.617 139.995L189.537 140.487C187.175 149.683 178.885 156.104 169.382 156.104Z" fill="#000566"/>
<path d="M106.565 145.281C91.6968 145.281 79.6469 144.211 79.4258 144.19L79.6041 142.213C79.9894 142.249 118.764 145.702 142.907 140.123L143.349 142.056C132.426 144.582 118.572 145.281 106.565 145.281Z" fill="#000566"/>
<path d="M92.2823 144.319C86.8245 125.998 90.7484 101.335 90.9125 100.293L92.8673 100.614C92.8245 100.864 88.8507 125.877 94.18 143.762L92.2823 144.319Z" fill="#000566"/>
<path d="M96.6193 110.509C95.1211 110.509 93.9297 109.317 93.9297 107.848C93.9297 106.378 95.1211 105.187 96.5908 105.187C96.6193 105.187 96.6407 105.187 96.6621 105.194L105.352 106.114C106.386 106.221 107.164 107.091 107.164 108.133C107.164 109.225 106.308 110.116 105.216 110.159L96.6193 110.509ZM96.5551 106.599C95.8845 106.613 95.3423 107.17 95.3423 107.848C95.3423 108.533 95.9059 109.096 96.5908 109.096L105.166 108.739C105.494 108.725 105.758 108.454 105.758 108.126C105.758 107.812 105.523 107.548 105.209 107.512L96.5551 106.599Z" fill="#000566"/>
<path d="M134.923 86.324C133.796 78.9043 128.481 71.4276 128.431 71.3491L130.043 70.1934C130.271 70.5144 135.686 78.1267 136.885 86.0244L134.923 86.324Z" fill="#000566"/>
<path d="M135.701 84.6693L135.073 82.793C138.655 81.6015 142.293 79.3899 144.719 77.749L145.832 79.3899C142.158 81.8726 138.747 83.6562 135.701 84.6693Z" fill="#000566"/>
<path d="M149.478 76.7358L148.258 75.1734C148.843 74.7168 149.178 74.4315 149.185 74.4315C149.335 74.3031 149.52 74.2246 149.713 74.2032C155.05 73.6039 158.338 72.2127 158.973 70.3007C159.587 68.4743 157.732 66.1985 156.969 65.4779C156.676 65.1997 156.576 64.7716 156.726 64.3935C157.689 61.925 157.789 60.1629 157.019 59.2925C155.998 58.1439 153.466 58.4935 152.574 58.7217C152.289 58.7931 151.989 58.736 151.746 58.5719C151.511 58.4007 151.354 58.1367 151.333 57.8442C151.19 55.9251 150.626 54.6837 149.656 54.1629C147.894 53.2141 145.119 54.7051 145.09 54.7194L144.127 52.9858C144.277 52.9002 147.865 50.9454 150.598 52.4222C151.968 53.157 152.831 54.5624 153.173 56.6029C154.607 56.4102 157.054 56.3746 158.488 57.9798C159.73 59.371 159.83 61.5683 158.788 64.5219C159.744 65.5849 161.742 68.2389 160.85 70.9285C159.929 73.6966 156.455 75.4017 150.22 76.1437C150.056 76.2721 149.806 76.479 149.478 76.7358Z" fill="#000566"/>
<path d="M15.2524 155.335C17.3071 154.957 19.3618 154.764 21.4164 154.607C23.4711 154.45 25.5258 154.4 27.5805 154.35C31.6898 154.25 35.7992 154.3 39.9085 154.357L46.0726 154.4H52.2366H64.5647H113.905H163.232H187.895H194.059C196.114 154.4 198.169 154.336 200.223 154.307C202.278 154.279 204.333 154.322 206.387 154.443C207.415 154.507 208.442 154.6 209.469 154.75C210.497 154.892 211.524 155.064 212.551 155.335C212.808 155.406 212.958 155.67 212.894 155.927C212.851 156.098 212.715 156.226 212.551 156.269C211.524 156.54 210.497 156.712 209.469 156.854C208.442 157.004 207.415 157.097 206.387 157.161C204.333 157.275 202.278 157.325 200.223 157.297C198.169 157.268 196.114 157.204 194.059 157.204H187.895H163.232H113.905H64.5789H52.2509H46.0868L39.9228 157.247C35.8134 157.304 31.7041 157.354 27.5947 157.254C25.5401 157.211 23.4854 157.161 21.4307 156.997C19.376 156.84 17.3213 156.647 15.2667 156.269C15.0098 156.219 14.8386 155.977 14.8885 155.72C14.9099 155.513 15.0669 155.37 15.2524 155.335Z" fill="#000566"/>
<g opacity="0.3">
<path d="M211.996 155.798H15.8167C5.77164 156.618 0 157.581 0 158.609C0 161.662 86.0681 164.138 113.899 164.138C175.596 164.138 227.798 161.662 227.798 158.609C227.805 157.581 222.034 156.618 211.996 155.798Z" fill="#000566"/>
</g>
</svg>
