<svg width="331" height="159" fill="none" xmlns="http://www.w3.org/2000/svg"><g filter="url(#a)"><mask id="b" fill="#fff"><path fill-rule="evenodd" clip-rule="evenodd" d="M166.502 1.298c-.668-1.73-2.336-1.73-3.004 0L155.517 22H10C4.477 22 0 26.477 0 32v107c0 5.523 4.477 10 10 10h301c5.523 0 10-4.477 10-10V32c0-5.523-4.477-10-10-10H174.483l-7.981-20.702Z"/></mask><path fill-rule="evenodd" clip-rule="evenodd" d="M166.502 1.298c-.668-1.73-2.336-1.73-3.004 0L155.517 22H10C4.477 22 0 26.477 0 32v107c0 5.523 4.477 10 10 10h301c5.523 0 10-4.477 10-10V32c0-5.523-4.477-10-10-10H174.483l-7.981-20.702Z" fill="#FAFAFA"/><path d="m163.498 1.298-.933-.36.933.36Zm3.004 0 .933-.36-.933.36ZM155.517 22v1h.686l.247-.64-.933-.36Zm18.966 0-.933.36.247.64h.686v-1ZM164.431 1.658c.242-.627.536-.658.569-.658.033 0 .327.031.569.658l1.866-.72C167.009-.165 166.135-1 165-1s-2.009.834-2.435 1.939l1.866.719ZM156.45 22.36l7.981-20.702-1.866-.72-7.981 20.702 1.866.72ZM10 23h145.517v-2H10v2Zm-9 9a9 9 0 0 1 9-9v-2C3.925 21-1 25.925-1 32h2Zm0 107V32h-2v107h2Zm9 9a9 9 0 0 1-9-9h-2c0 6.075 4.925 11 11 11v-2Zm301 0H10v2h301v-2Zm9-9a9 9 0 0 1-9 9v2c6.075 0 11-4.925 11-11h-2Zm0-107v107h2V32h-2Zm-9-9a9 9 0 0 1 9 9h2c0-6.075-4.925-11-11-11v2Zm-136.517 0H311v-2H174.483v2Zm-8.914-21.342 7.981 20.702 1.866-.72-7.981-20.7-1.866.719Z" fill="#035FB1" mask="url(#b)"/></g><defs><filter id="a" x="0" y="0" width="331" height="159" filterUnits="userSpaceOnUse" color-interpolation-filters="sRGB"><feFlood flood-opacity="0" result="BackgroundImageFix"/><feColorMatrix in="SourceAlpha" values="0 0 0 0 0 0 0 0 0 0 0 0 0 0 0 0 0 0 127 0" result="hardAlpha"/><feOffset dx="5" dy="5"/><feGaussianBlur stdDeviation="2.5"/><feComposite in2="hardAlpha" operator="out"/><feColorMatrix values="0 0 0 0 0 0 0 0 0 0 0 0 0 0 0 0 0 0 0.1 0"/><feBlend in2="BackgroundImageFix" result="effect1_dropShadow_3168_3787"/><feBlend in="SourceGraphic" in2="effect1_dropShadow_3168_3787" result="shape"/></filter></defs></svg>