<svg width="38" height="38" fill="none" xmlns="http://www.w3.org/2000/svg"><g clip-path="url(#a)" fill-rule="evenodd" clip-rule="evenodd"><path d="M19 0c10.49 0 19 8.51 19 19s-8.51 19-19 19S0 29.49 0 19 8.51 0 19 0Z" fill="#454545"/><path d="M19 .169c10.4 0 18.842 8.442 18.842 18.842 0 10.4-8.442 18.843-18.842 18.843C8.6 37.854.157 29.412.157 19.01.168 8.6 8.6.17 19 .17Z" fill="#FC0"/><path d="M19.034 37.505C29.221 37.482 37.483 29.198 37.483 19c0-.146 0-.304-.012-.45h-1.643c0 .146.011.304.011.45 0 9.297-7.519 16.839-16.805 16.861v1.644Z" fill="#E21C2A"/><path d="M19.034 37.505a18.429 18.429 0 0 0 13.046-5.437c.202-.214.416-.428.608-.641l.01-.012.294-.326c.1-.113.19-.225.28-.338l.271-.338.023-.033c.078-.102.157-.214.247-.315l.023-.034c.078-.113.157-.214.236-.327l.011-.01c.17-.237.327-.474.484-.721l.012-.011c.078-.124.157-.237.225-.36.078-.125.146-.26.225-.383l.011-.034c.068-.124.135-.236.203-.36l.011-.034c.068-.124.124-.236.191-.36l.034-.068.169-.337.011-.012c.056-.124.124-.259.18-.394.011-.022.023-.045.034-.079.045-.112.101-.225.146-.337a.398.398 0 0 1 .045-.102c.045-.1.09-.213.136-.315.01-.045.033-.078.044-.123.034-.102.08-.203.113-.293a.595.595 0 0 0 .045-.135c.034-.09.068-.192.101-.282.023-.067.045-.123.057-.191.022-.079.056-.158.078-.248.023-.056.034-.123.057-.18.022-.09.056-.169.078-.259.012-.045.023-.078.034-.123.034-.102.057-.214.09-.316.012-.033.023-.078.034-.112.023-.113.056-.214.079-.326a2.48 2.48 0 0 1 .034-.158l.067-.282c.012-.078.034-.157.045-.236.011-.067.023-.146.045-.214l.034-.191c.011-.09.034-.18.045-.27l.068-.45c.01-.113.022-.226.033-.338 0-.045.012-.079.012-.124.01-.09.01-.18.022-.259.011-.067.011-.135.023-.203l.033-.472c.012-.158.012-.315.023-.473 0-.158.011-.315.011-.473v-.461h-.259c0 .146.011.304.011.45 0 10.052-8.137 18.212-18.19 18.246v.214h-.033Z" fill="#fff"/><path d="M19.034 35.873c9.286-.034 16.805-7.576 16.805-16.862 0-.146 0-.304-.011-.45h-1.643c0 .146.01.304.01.45 0 8.386-6.786 15.196-15.16 15.23v1.632Z" fill="#fff"/><path d="M19.034 34.23c8.375-.034 15.162-6.833 15.162-15.23 0-.146 0-.304-.011-.45H32.54c0 .146.012.304.012.45 0 7.485-6.056 13.552-13.519 13.586v1.643Z" fill="#E21C2A"/><path d="M32.822 18.55h-.27c0 .146.011.304.011.45 0 7.485-6.055 13.552-13.518 13.586v.27c7.62-.034 13.8-6.225 13.8-13.856a6.003 6.003 0 0 1-.023-.45Z" fill="#fff"/><path d="M18.944 37.505C8.746 37.482.495 29.198.495 19c0-.146 0-.304.011-.45h4.919c0 .146-.011.304-.011.45 0 7.485 6.056 13.552 13.518 13.586v4.919h.012Z" fill="#E21C2A"/><path d="M18.887 37.505a18.458 18.458 0 0 1-12.989-5.437c-.203-.214-.416-.428-.608-.641l-.011-.012-.293-.326a7.614 7.614 0 0 1-.281-.338l-.27-.338-.023-.033c-.079-.102-.157-.214-.247-.315l-.023-.034c-.079-.113-.158-.214-.236-.327l-.012-.01a16.048 16.048 0 0 1-.484-.721l-.01-.011c-.08-.124-.158-.237-.226-.36-.079-.125-.146-.26-.225-.383l-.011-.034c-.068-.124-.135-.237-.203-.36l-.011-.034c-.068-.124-.124-.236-.192-.36-.01-.023-.022-.045-.033-.068l-.17-.337-.01-.012c-.057-.124-.124-.259-.18-.394a.433.433 0 0 1-.034-.079c-.045-.112-.102-.225-.147-.337a.35.35 0 0 0-.045-.102c-.045-.1-.09-.213-.135-.315-.01-.045-.033-.078-.045-.123-.033-.102-.078-.203-.112-.293a.634.634 0 0 1-.045-.135c-.034-.09-.068-.192-.102-.282-.022-.067-.045-.123-.056-.191-.022-.079-.056-.158-.079-.248-.022-.056-.033-.123-.056-.18-.022-.09-.056-.169-.079-.259-.011-.045-.022-.078-.033-.123-.034-.102-.057-.214-.09-.316-.012-.033-.023-.078-.034-.112-.023-.113-.057-.214-.08-.327a2.641 2.641 0 0 0-.033-.157l-.067-.282c-.012-.078-.034-.157-.045-.236-.012-.067-.023-.146-.045-.214l-.034-.191c-.011-.09-.034-.18-.045-.27l-.068-.45-.034-.338c0-.045-.01-.079-.01-.124-.012-.09-.012-.18-.023-.259-.012-.067-.012-.135-.023-.203l-.034-.472c-.01-.158-.01-.315-.022-.473 0-.158-.011-.315-.011-.473v-.461h.259c0 .146-.012.304-.012.45 0 10.04 8.105 18.178 18.134 18.246v-.259C9.004 36.919 1.024 28.894 1.024 19c0-.146 0-.304.011-.45h.26c0 .146-.012.304-.012.45 0 9.748 7.868 17.66 17.604 17.717V33.34C11.02 33.272 4.66 26.88 4.66 19c0-.146 0-.304.011-.45h.259c0 .146-.011.304-.011.45 0 7.733 6.247 14.014 13.968 14.081v-.225C11.29 32.788 5.144 26.609 5.144 19c0-.146 0-.304.011-.45h.27c0 .146-.011.304-.011.45 0 7.463 6.022 13.518 13.462 13.586v-.011h.236v4.963h-.236v-.033h.011ZM18.955.484c10.074 0 18.257 8.048 18.505 18.054H.45C.698 8.532 8.892.485 18.955.485Z" fill="#FC0"/><path d="M.766 18.29h36.458C36.852 8.52 28.815.755 19 .755 9.196.754 1.148 8.521.766 18.291Z" fill="#fff"/><path d="M19 2.139c9.162 0 16.625 7.305 16.861 16.41H2.14C2.386 9.445 9.838 2.14 19 2.14Z" fill="#FC0"/><path d="M2.41 18.29h33.17c-.37-8.857-7.687-15.891-16.59-15.891-8.893 0-16.198 7.023-16.58 15.893Z" fill="#002ED3"/><path d="M18.955 3.77c8.25 0 14.982 6.574 15.218 14.768H3.737c.237-8.194 6.968-14.767 15.218-14.767Z" fill="#FC0"/><path d="M4.052 18.29h29.884c-.371-7.957-6.945-14.25-14.948-14.25-7.98 0-14.554 6.293-14.936 14.25Z" fill="#E21C2A"/><path d="M18.966 5.414c7.496 0 13.586 6.09 13.586 13.586 0 7.497-6.09 13.586-13.586 13.586-7.497 0-13.586-6.09-13.586-13.586S11.47 5.414 18.966 5.414Z" fill="#FC0"/><path d="M18.966 5.64c7.373 0 13.361 5.987 13.361 13.36 0 7.373-5.988 13.36-13.36 13.36-7.373 0-13.362-5.976-13.362-13.36 0-7.373 5.989-13.36 13.361-13.36Z" fill="#fff"/><path d="M23.289 27.577c-.563.518-1.171 1.07-1.835 1.43a6.43 6.43 0 0 1-.754.337c-.608.237-1.036.428-1.542.856-.08.067-.158.056-.248-.012-.506-.427-.934-.619-1.542-.855a6.439 6.439 0 0 1-.754-.338c-.664-.36-1.272-.912-1.835-1.43l-.687.08-.045-.136c-.337-1.08-.405-2.24.27-3.207l.18-.26.113.305a5.081 5.081 0 0 0 1.373 2.082l.203.18-.259.09a1.193 1.193 0 0 0-.529.371l.9.406c.383.067.744.281 1.138.056.765-.428.832-2.274.844-3.005l.056-3.073.034-.968.191-5.74h-1.193a.262.262 0 0 1-.259-.26v-.529c0-.135.113-.259.259-.259h.653a1.583 1.583 0 0 1-.642-1.283 1.597 1.597 0 1 1 3.197 0c0 .53-.259.99-.642 1.284h.732c.135 0 .259.112.259.258v.54a.262.262 0 0 1-.259.26h-1.182l.225 6.72.056 3.072c.012.72.08 2.578.845 3.006.394.225.754 0 1.137-.057l.9-.405a1.192 1.192 0 0 0-.529-.371l-.259-.09.203-.18a5.184 5.184 0 0 0 1.373-2.083l.113-.304.18.26c.675.967.607 2.126.27 3.207l-.045.135-.664-.09ZM19 11.729c.383 0 .698.315.698.698a.701.701 0 0 1-.698.697.701.701 0 0 1-.698-.697c0-.383.315-.698.698-.698Z" fill="#2C2C2B"/><path d="M19.045 14.464h.293l.191 6.033.034.968.056 3.073c.068 4.176 1.677 3.185 2.195 3.095l1.103-.495a1.378 1.378 0 0 0-.72-.585 5.363 5.363 0 0 0 1.418-2.15c.54.777.642 1.8.248 3.062l-.63-.08c-.631.586-1.228 1.115-1.858 1.464-.765.416-1.396.428-2.319 1.204-.022.012-.011.012-.034-.01-.922-.778-1.553-.789-2.318-1.205-.63-.35-1.227-.878-1.857-1.464l-.63.08c-.395-1.261-.293-2.286.247-3.062.293.81.754 1.542 1.418 2.15a1.388 1.388 0 0 0-.72.585l1.103.495c.518.079 2.127 1.07 2.195-3.095l.056-3.073.034-.968.191-6.033h.304v.01Z" fill="#FC0"/><path d="M19.124 15.32v13.46a6.622 6.622 0 0 0 1.34-.157 4.37 4.37 0 0 0 1.125-.417 4.25 4.25 0 0 0 1.058-.788c.27-.28.507-.596.653-.956.113-.27.191-.574.225-.923a5.01 5.01 0 0 0 .023-.923c0-.023-.012-.034 0-.057l.067-.168.09.168c.011.012 0 .034 0 .046.023.337.011.652-.022.956a3.91 3.91 0 0 1-.237.968c-.157.372-.405.71-.686 1.013a4.85 4.85 0 0 1-1.103.822 4.71 4.71 0 0 1-1.16.428c-.405.09-.855.146-1.373.157v.923h-.169v-.923a6.992 6.992 0 0 1-1.373-.157 4.54 4.54 0 0 1-2.263-1.25 3.133 3.133 0 0 1-.923-1.981 5.337 5.337 0 0 1-.022-.957v-.045l.09-.168.068.168c.01.023 0 .034 0 .057-.023.326-.012.641.022.923.034.337.113.653.225.923.147.36.383.675.653.956a4.417 4.417 0 0 0 2.184 1.204c.394.09.833.147 1.34.158V15.32h.168Z" fill="#2C2C2B"/><path d="M19.034 13.867h1.644c.045 0 .09.045.09.09v.54c0 .046-.045.09-.09.09H17.39a.096.096 0 0 1-.09-.09v-.54c0-.045.045-.09.09-.09h1.643ZM19 10.986c.8 0 1.441.641 1.441 1.44 0 .8-.641 1.441-1.44 1.441-.8 0-1.441-.641-1.441-1.44 0-.8.652-1.441 1.44-1.441Zm0 .563a.88.88 0 0 1 0 1.756.88.88 0 0 1 0-1.756Z" fill="#FC0"/><path d="m20.52 18.865-.023.011-.067-.034c-.09-.045-.192-.067-.282-.112l-.27-.135.259-.158c.416-.247.822-.641 1.16-.99.326-.316.652-.653 1.001-.946a2.152 2.152 0 0 1 1.306-.54c.056 0 .1-.011.157-.011.507-.023 1.013.135 1.486.292 1.16.383 2.274.957 3.456 1.261.495.079 1.148.135 1.632-.045.146-.045.326-.068.427.068.113.157.023.36-.078.483a2.117 2.117 0 0 1-.226.226l-.044.112c-.124.338-.36.563-.676.63-.157.428-.405.575-.822.563-.157.428-.45.462-.821.44l-.011.022c-.158.293-.518.338-.901.281a.594.594 0 0 1-.338.282c-.281.1-.607.01-.911-.102-.023.034-.034.068-.08.09-.348.226-.82.124-1.237-.056-.023.034-.034.056-.08.079-.967.54-1.845-.574-2.633-.923-.067-.034-.146-.056-.169-.124-.124-.023-.236-.09-.405-.191l-.81-.473Z" fill="#2C2C2B"/><path d="M20.485 18.696c-.09-.045-.19-.067-.28-.113.708-.427 1.519-1.395 2.194-1.947a2 2 0 0 1 1.204-.506c.045 0 .102-.011.147-.011.484-.023.979.135 1.43.28 1.159.372 2.295.969 3.477 1.262.788.123 1.34.09 1.723-.057.46-.157.258.405-.27.63-.35.147-.721.08-1.081.012-.754-.135-1.509-.394-2.285-.72-.664-.282-1.283-.653-1.981-.867-.664-.203-1.227-.248-1.7-.034-.743.338-1.407 1.474-2.578 2.071Z" fill="#FC0"/><path d="M22.804 16.918c1.002-.81 2.533.067 3.557.54.113.056.135.045.135.169-.011.067-.09.112-.191.135-.214.045-.372-.034-.574-.113-.934-.349-1.858-.788-2.882-.686-.101 0-.135.022-.045-.045Z" fill="#FC0"/><path d="M26.158 17.874c.282-.033.45-.123.462-.292.81.371 1.902.743 2.915.844.293.023.473-.034.71-.113-.136.394-.451.575-.845.552-1.058-.079-2.015-.338-3.242-.99Zm-3.849-.54c.124-.101.202-.225.36-.247.99-.18 2.217.349 3.084.686.236.09.09.27-.09.304a.915.915 0 0 1-.574-.056c-.934-.35-1.677-.878-2.746-.642-.09.023-.136.034-.034-.045Z" fill="#FC0"/><path d="M25.472 18.19c.292-.012.495-.102.506-.27.754.337 2.184 1.102 3.613 1.012-.135.394-.349.485-.742.462-.428-.034-.845-.146-1.284-.293-.653-.202-1.362-.517-2.093-.911Zm-3.568-.473c.123-.101.213-.203.36-.237 1.002-.247 1.88.26 2.746.62.237.1.113.247-.067.28a.916.916 0 0 1-.574-.055c-.935-.35-1.351-.8-2.42-.563-.09.011-.136.034-.045-.045Z" fill="#FC0"/><path d="M24.74 18.494c.293-.012.495-.102.507-.27.518.213 2.105 1.102 3.512 1.26-.136.394-.417.36-.81.338-.755-.045-2.545-.968-3.209-1.328Zm-3.174-.439c.124-.102.113-.136.259-.18 1.07-.305 1.654.19 2.521.55.236.102.169.204-.011.237-.214.045-.35-.045-.552-.112-.923-.293-1.058-.54-2.172-.462-.101.011-.135.034-.045-.034Z" fill="#FC0"/><path d="M24.133 18.786c.281-.011.45-.09.461-.259.394.17 1.43.777 2.5 1.17.27.102.562.215.832.237-.45.845-3.22-.957-3.793-1.148Zm-2.859-.506c.123-.102.101-.102.247-.113 1.306-.056 1.43.225 2.173.473.247.079.123.214-.057.225-.675.056-1.44-.653-2.273-.54-.09.01-.192.033-.09-.045Z" fill="#FC0"/><path d="M23.502 19c.281-.011.416-.056.416-.225.957.383 2.15 1.238 3.13 1.407a.483.483 0 0 1-.26.236c-.348.135-.843-.123-1.147-.27-.856-.394-1.824-1.047-2.139-1.148Zm-.652.169c.214-.023.337-.079.405-.203.878.428 1.643 1.013 2.544 1.396a.228.228 0 0 1-.034.056c-.765.484-2.386-.878-2.949-1.204-.113-.056-.068-.034.034-.045Z" fill="#FC0"/><path d="M21.971 19.45c.214-.022.417-.124.507-.225.011-.022.022-.034.034-.056.045.022.09.045.124.079.698.416.99.787 1.857 1.136a.244.244 0 0 1-.034.057c-.867.484-1.756-.608-2.488-.934-.112-.046-.123-.046 0-.057Zm-.945-.968c.123-.101.1-.067.247-.078.237-.012.473-.023.687.044.337.102.653.304 1.024.394.09.023.135.046.135.068.023.09-.27.225-.495.18-.484-.101-.743-.416-1.508-.552-.09-.022-.18.023-.09-.056Zm.383.721-.765-.45.258-.17c.113 0 .36.057.63.17.26.112.575.213.721.348.135.124 0 .18-.236.248-.293.067-.35 0-.608-.146Z" fill="#FC0"/><path d="m17.436 18.865.022.011.068-.034c.09-.045.191-.067.281-.112l.27-.135-.259-.158c-.416-.247-.821-.641-1.159-.99-.326-.316-.653-.653-1.002-.946a2.152 2.152 0 0 0-1.306-.54c-.056 0-.1-.011-.157-.011-.507-.023-1.013.135-1.486.292-1.16.383-2.262.957-3.455 1.261-.496.079-1.149.135-1.633-.045-.146-.045-.326-.068-.427.068-.113.157-.023.36.079.483a2 2 0 0 0 .225.226l.045.112c.123.338.36.563.675.63.158.428.405.575.822.563.157.428.45.462.821.44l.012.022c.157.293.517.338.9.281a.594.594 0 0 0 .338.282c.281.1.608.01.912-.102.022.034.033.068.078.09.35.226.822.124 1.239-.056.022.034.033.056.078.079.968.54 1.846-.574 2.634-.923.068-.034.147-.056.169-.124.124-.023.236-.09.405-.191l.81-.473Z" fill="#2C2C2B"/><path d="M17.47 18.696c.09-.045.19-.067.28-.113-.708-.427-1.519-1.395-2.194-1.947a2 2 0 0 0-1.205-.506c-.045 0-.1-.011-.146-.011-.484-.023-.98.135-1.43.28-1.159.372-2.296.969-3.478 1.262-.787.123-1.339.09-1.722-.057-.461-.157-.259.405.27.63.35.147.72.08 1.081.012.754-.135 1.508-.394 2.285-.72.664-.282 1.283-.653 1.981-.867.664-.203 1.227-.248 1.7-.034.743.338 1.407 1.474 2.577 2.071Z" fill="#FC0"/><path d="M15.15 16.918c-1-.81-2.532.067-3.556.54-.112.056-.135.045-.135.169.011.067.09.112.191.135.214.045.372-.034.574-.113.935-.349 1.858-.788 2.882-.686.09 0 .135.022.045-.045Z" fill="#FC0"/><path d="M11.785 17.874c-.281-.033-.45-.123-.461-.292-.81.371-1.903.743-2.916.844-.292.023-.472-.034-.709-.113.135.394.45.575.844.552 1.07-.079 2.027-.338 3.242-.99Zm3.861-.54c-.123-.101-.202-.225-.36-.247-.99-.18-2.217.349-3.084.686-.236.09-.09.27.09.304a.915.915 0 0 0 .574-.056c.934-.35 1.677-.878 2.747-.642.078.023.123.034.033-.045Z" fill="#FC0"/><path d="M12.483 18.19c-.293-.012-.495-.102-.507-.27-.754.337-2.183 1.102-3.613 1.012.135.394.35.485.743.462.428-.034.844-.146 1.283-.293.653-.202 1.362-.517 2.094-.911Zm3.568-.473c-.123-.101-.213-.203-.36-.237-1.002-.247-1.88.26-2.746.62-.237.1-.113.247.067.28a.916.916 0 0 0 .574-.055c.934-.35 1.351-.8 2.42-.563.09.011.135.034.045-.045Z" fill="#FC0"/><path d="M13.203 18.494c-.293-.012-.495-.102-.507-.27-.517.213-2.104 1.102-3.511 1.26.135.394.416.36.81.338.765-.045 2.555-.968 3.208-1.328Zm3.187-.439c-.125-.102-.113-.136-.26-.18-1.069-.305-1.654.19-2.521.55-.236.102-.169.204.011.237.214.045.35-.045.552-.112.923-.293 1.058-.54 2.172-.462.09.011.135.034.045-.034Z" fill="#FC0"/><path d="M13.81 18.786c-.28-.011-.45-.09-.46-.259-.395.17-1.43.777-2.5 1.17-.27.102-.562.215-.832.237.461.845 3.23-.957 3.793-1.148Zm2.871-.506c-.124-.102-.101-.102-.248-.113-1.305-.056-1.429.225-2.172.473-.247.079-.124.214.056.225.676.056 1.441-.653 2.274-.54.079.01.18.033.09-.045Z" fill="#FC0"/><path d="M14.453 19c-.282-.011-.417-.056-.417-.225-.956.383-2.15 1.238-3.129 1.407a.483.483 0 0 0 .26.236c.348.135.843-.123 1.147-.27.844-.394 1.824-1.047 2.139-1.148Zm.652.169c-.214-.023-.337-.079-.405-.203-.878.428-1.643 1.013-2.544 1.396a.228.228 0 0 0 .034.056c.765.484 2.386-.878 2.95-1.204.112-.056.067-.034-.035-.045Z" fill="#FC0"/><path d="M15.983 19.45c-.214-.022-.416-.124-.506-.225-.011-.022-.023-.034-.034-.056a.464.464 0 0 0-.124.079c-.698.416-.99.787-1.857 1.136a.208.208 0 0 0 .034.057c.866.484 1.756-.608 2.487-.934.101-.046.124-.046 0-.057Zm.946-.968c-.124-.101-.101-.067-.248-.078-.236-.012-.473-.023-.686.044-.338.102-.653.304-1.025.394-.09.023-.135.046-.135.068-.022.09.27.225.495.18.485-.101.743-.416 1.509-.552.09-.022.18.023.09-.056Zm-.383.721.766-.45-.26-.17c-.112 0-.36.057-.63.17-.258.112-.574.213-.72.348-.135.124 0 .18.236.248.293.067.35 0 .608-.146Z" fill="#FC0"/><path d="m23.221 23.874-11.796-12.09c-.248-.27-.394-.55-.417-.91-.01-.09-.01-.158-.022-.26l-.011-.169.213.012c.102 0 .203 0 .304.011.327.034.586.18.833.416l12.09 11.797c-.811.889-.62.349-1.194 1.193Z" fill="#2C2C2B"/><path d="M25.855 25.979c.191.225.416.427.709.506.146.045.236.045.349-.079l.078-.078c.102-.102.136-.158.124-.316-.022-.382-.236-.63-.54-.81a.21.21 0 0 0-.056-.158l-.101-.1c-.057-.057-.124-.068-.192-.057l-1.688-1.925-.304-.405-.225.506-.833.53.304.247.191.191 1.823 1.61c-.01.068 0 .135.057.18l.101.101c.045.08.135.09.203.057Z" fill="#2C2C2B"/><path d="m24.042 23.244-.079.844-.18-.17-.19-.19-.136-.102.585-.383Zm2.049 2.06.022-.293.124.146-.146.146Zm-.079-.395-.045.518-.236.236-.034-.033.09-.98.225.26Zm-.315-.371-.09 1.002-.225-.203.101-1.058.214.259Zm-.315-.36-.102 1.08-.225-.202.113-1.126.214.248Zm-.327-.372-.112 1.148-.225-.202.112-1.205.225.26Zm-.315-.36-.112 1.227-.226-.203.124-1.283.214.26Zm-.326-.371-.124 1.294-.225-.203.101-1.046.113-.237.135.192Zm1.475 2.679.326-.35.011.012c.09.067.203.157.293.27.101.113.18.248.203.416 0 .023.033.046.056.046.022 0 .045-.034.045-.057a.851.851 0 0 0-.225-.461 1.832 1.832 0 0 0-.315-.293l.067-.067c.35.168.597.393.62.765 0 .101-.012.113-.08.191a50.64 50.64 0 0 1-.078.08c-.068.067-.09.055-.192.033-.259-.079-.506-.259-.731-.585Z" fill="#FC0"/><path d="M26.395 24.932c-.08-.079-.214-.068-.293.022l-.563.63c-.079.08-.067.215.011.293l.102.09c.078.08.213.068.292-.022l.563-.63c.079-.08.068-.214-.011-.293l-.101-.09Z" fill="#2C2C2B"/><path d="m26.294 25.056.1.09c.012.011.012.034 0 .056l-.562.63c-.011.023-.045.023-.056.012l-.102-.09c-.01-.012-.01-.034 0-.057l.563-.63c.012-.023.034-.023.057-.011Z" fill="#FC0"/><path d="m23.795 23.491-4.109-4.198-8.52-8.532c-.011.371.112.641.371.923l11.74 12.032.518-.225Zm.225-.225-4.198-4.108-8.521-8.521c.371-.011.641.112.923.371l12.032 11.74-.236.518Z" fill="#D9DBDC"/><path d="M25.067 21.758c.203.011.428-.113.552-.237.169-.169.36-.551.146-.765-.202-.203-.608-.045-.788.135-.135.135-.247.372-.225.574l-1.62 1.148-1.149 1.621c-.202-.023-.439.09-.574.225-.168.169-.337.574-.135.788.203.203.597.023.766-.146.123-.124.247-.35.236-.552l1.722-1.058 1.07-1.733Z" fill="#2C2C2B"/><path d="m23.896 23.356-1.79 1.103c.068.102.012.338-.168.518-.191.191-.45.236-.53.146-.078-.079-.056-.36.136-.551.169-.17.416-.214.529-.147l1.193-1.688 1.7-1.193c-.057-.101-.023-.35.146-.53.191-.19.473-.213.552-.134.078.079.033.337-.147.529-.18.18-.416.225-.517.169l-1.104 1.778Z" fill="#FC0"/><path d="M22.388 24.076a.07.07 0 0 0-.012.08c.023.022.057.01.08-.012l1.136-1.047.135.203c.023.022.101.011.124 0 .023-.023.023-.09 0-.113l-.203-.135 1.025-1.137c.022-.022.045-.045.022-.067-.022-.023-.045.011-.067.034l-1.092 1.046-.135-.18c-.023-.022-.09 0-.102.023-.022.022-.033.067-.01.09l.19.124-1.091 1.091Zm-10.254 1.88c-.191.225-.427.417-.72.495-.158.034-.236.046-.349-.078a28.939 28.939 0 0 0-.079-.08c-.101-.112-.135-.157-.124-.314.023-.383.248-.63.552-.8a.21.21 0 0 1 .056-.157l.101-.101a.196.196 0 0 1 .203-.045l1.722-1.903.316-.394.225.507.821.552-.315.236-.191.191-1.846 1.576a.208.208 0 0 1-.056.18l-.102.101c-.045.057-.135.068-.214.034Z" fill="#2C2C2B"/><path d="m14.003 23.255.068.844.191-.158.191-.191.135-.101-.585-.394Zm-2.082 2.026-.023-.293-.124.135.147.158Zm.079-.405.045.517.236.237.034-.034-.08-.98-.236.26Zm.326-.36.079 1.001.236-.202-.079-1.059-.236.26Zm.326-.35.08 1.081.236-.203-.09-1.125-.226.247Zm.327-.36.09 1.148.236-.202-.09-1.205-.236.26Zm.326-.36.09 1.227.237-.203-.102-1.283-.225.26Zm.327-.36.1 1.306.237-.203-.079-1.047-.1-.247-.158.19Zm-1.52 2.645-.326-.349-.012.011c-.09.068-.202.158-.303.27a.766.766 0 0 0-.203.417c0 .023-.034.045-.056.045-.023 0-.045-.034-.045-.056.022-.18.123-.338.225-.462.101-.124.225-.214.315-.281l-.056-.068c-.35.158-.597.383-.63.754-.012.102 0 .113.078.192l.079.079c.067.067.09.067.191.033.26-.09.507-.27.743-.585Z" fill="#FC0"/><path d="m14.734 23.874 11.796-12.09c.248-.27.394-.55.417-.91.011-.09.011-.158.022-.26l.012-.169-.214.012c-.102 0-.203 0-.304.011-.327.034-.585.18-.833.416L13.54 22.681c.81.889.608.349 1.193 1.193Zm-3.118 1.024c.09-.079.214-.056.293.023l.551.641a.201.201 0 0 1-.022.293l-.101.09c-.09.079-.214.056-.293-.023l-.552-.641c-.067-.09-.067-.214.023-.293l.101-.09Z" fill="#2C2C2B"/><path d="m11.718 25.022-.101.09c-.011.011-.011.034 0 .056l.551.642c.012.022.045.022.057.011l.101-.09c.011-.011.011-.034 0-.056l-.552-.642c-.01-.022-.033-.022-.056-.011Z" fill="#FC0"/><path d="m14.149 23.491 4.108-4.198 8.532-8.532c.012.371-.112.641-.371.923L14.667 23.705l-.518-.214Zm-.214-.225 4.199-4.108 8.52-8.521c-.371-.011-.641.112-.923.371L13.71 22.748l.225.518Z" fill="#D9DBDC"/><path d="M15.657 24.572c-.011.202.113.427.236.551.17.17.552.36.766.158.214-.203.056-.608-.124-.788-.135-.135-.371-.248-.574-.236l-1.126-1.644-1.61-1.17a.762.762 0 0 0-.213-.575c-.169-.18-.574-.348-.777-.146-.214.203-.034.597.135.766.124.123.35.258.552.247l1.024 1.734 1.711 1.103Z" fill="#2C2C2B"/><path d="m14.082 23.367-1.07-1.812c-.1.056-.337.011-.506-.169-.18-.191-.225-.45-.146-.529.09-.078.36-.056.551.135.169.18.203.428.146.53l1.678 1.226 1.17 1.711c.101-.056.35-.022.53.158.18.191.202.473.123.551-.09.08-.349.034-.53-.157-.168-.18-.224-.417-.157-.518l-1.79-1.126Z" fill="#FC0"/><path d="M13.384 21.848c-.023-.023-.056-.034-.079-.011-.022.022-.011.056.011.078l1.025 1.148-.203.136c-.022.022-.011.1 0 .123.023.023.09.023.113 0l.135-.202 1.125 1.035c.023.023.045.045.068.023.022-.023 0-.045-.034-.068l-1.035-1.103.18-.124c.022-.022 0-.09-.011-.101-.023-.023-.068-.034-.09-.011l-.124.191-1.081-1.114Z" fill="#2C2C2B"/><path d="m32.225 13.158 3.456-1.058.371 1.193-1.204.372 1.418.36.338 1.092-3.636 1.114-.371-1.193 1.182-.36-1.407-.372-.327-1.058-.033.023-.608-1.092 1.08-.597-1.452-.067-.551-1.002 3.331-1.846.608 1.092-1.092.608 1.464.056.551 1.002-3.118 1.733Zm-2.814-6.067c.057-.067.124-.135.192-.202.382-.372.844-.642 1.384-.653.507-.011.946.202 1.295.563.304.315.495.697.495 1.136 0 .282-.101.563-.236.81l-.17.294-1.114-.71.18-.281a.406.406 0 0 0 .068-.225.418.418 0 0 0-.101-.214c-.09-.09-.192-.146-.327-.135-.18.011-.405.203-.529.315-.123.124-.349.36-.36.54a.37.37 0 0 0 .113.316.298.298 0 0 0 .214.1c.112.012.258-.055.348-.112l.304-.18.586 1.182-.282.146c-.337.18-.709.293-1.091.226-.372-.057-.687-.26-.946-.53a1.695 1.695 0 0 1-.495-1.283c.022-.382.157-.709.382-1.001l-.123.1c-.293.248-.642.417-1.025.429a1.734 1.734 0 0 1-1.035-.338c-.405-.282-.664-.675-.732-1.16-.079-.517.101-1.013.394-1.429.304-.428.71-.788 1.238-.9.495-.102.968.022 1.385.303.36.248.619.586.709 1.025.056.281.011.563-.079.833l-.113.326-1.226-.484.123-.304a.346.346 0 0 0 .023-.236.4.4 0 0 0-.146-.192.372.372 0 0 0-.338-.067c-.18.045-.36.27-.462.416-.1.147-.27.417-.259.597a.398.398 0 0 0 .17.293.31.31 0 0 0 .224.056c.113-.011.237-.113.327-.18l.259-.237.776 1.047ZM9.286 8.296a1.65 1.65 0 0 1-.484.9 1.63 1.63 0 0 1-1.26.54c-.53-.01-.98-.259-1.352-.619-.382-.371-.664-.821-.697-1.362-.023-.506.168-.956.517-1.317.304-.315.676-.517 1.115-.54a1.59 1.59 0 0 1 .81.214l.304.158-.675 1.136-.282-.168a.324.324 0 0 0-.225-.057.365.365 0 0 0-.202.113.388.388 0 0 0-.124.326c.011.18.214.394.337.518.124.124.372.338.552.349a.378.378 0 0 0 .315-.124.288.288 0 0 0 .09-.214.67.67 0 0 0-.135-.349l-.19-.292 1.16-.63.123.213L8.34 4.48l.912-.642 2.533 1.655-.034-3.04 1.036-.416 2.858 2.972-1.305.529-.518-.563-.743.304.023.765-.72.293-.822.574-.642-.428-.653.462.203.732-1.137.799-.045-.18Zm-4.367 4.423a2.355 2.355 0 0 1-.653-.27 2.284 2.284 0 0 1-.732-.619 2.097 2.097 0 0 1-.281-.574 1.656 1.656 0 0 1-.057-.62c.034-.27.135-.54.27-.776.26-.45.63-.776 1.137-.9.518-.135 1.036.011 1.497.27.462.259.833.63.98 1.148.146.495.045.99-.214 1.43-.259.45-.63.776-1.137.911a1.316 1.316 0 0 1-.36.045l1.34.484-.406 1.115-.642-.237-.45 1.25.642.236-.405 1.114-1.756-.63.123-.36a2.66 2.66 0 0 0-.562-.36c-.394-.192-.8-.36-1.216-.507l-.619-.225.968-2.668 2.465.9.068-.157Zm12.55-8.25.056.394-1.272.18-.056-.394c-.371 0-.743-.068-1.036-.315-.315-.26-.484-.62-.54-1.014-.056-.416.011-.81.26-1.148.213-.292.54-.461.888-.562l-.045-.338 1.272-.18.045.337c.36 0 .743.068 1.024.304.316.26.484.62.552 1.025.056.405-.011.788-.236 1.125-.214.315-.552.484-.912.586Zm3.906-.676-.192 1.17-1.272-.202.597-3.76 1.328.215c.26.045.586.09.822.191.247.101.428.281.551.518.147.259.17.551.124.844a1.268 1.268 0 0 1-.247.608 1.098 1.098 0 0 1-.428.36 1.18 1.18 0 0 1-.473.124 3.124 3.124 0 0 1-.72-.068h-.09Zm1.834-.371c.113-.304.26-.597.484-.822.147-.157.327-.281.518-.371a1.62 1.62 0 0 1 .608-.158c.281-.011.552.045.81.135.484.18.878.484 1.092.957.225.495.17 1.024-.011 1.52-.18.495-.484.922-.968 1.159-.473.225-.968.214-1.44.034-.485-.18-.879-.484-1.093-.957-.225-.484-.18-1.013 0-1.497ZM2.971 13.867c.44.17.9.372 1.306.63l.146-.405-1.35-.495-.102.27Zm1.936-2.555c.17.102.394.192.597.158a.48.48 0 0 0 .338-.248c.078-.135.1-.259.045-.405-.068-.191-.27-.349-.44-.439-.157-.09-.393-.203-.585-.158-.157.034-.247.124-.326.26a.497.497 0 0 0-.056.416c.045.169.258.315.427.416ZM17.3 3.242a.3.3 0 0 0 .056-.068.67.67 0 0 0 0-.259c-.022-.135-.056-.225-.146-.27l.09.597Zm-1.26.18-.09-.608c-.012.011-.012.011-.012.022-.056.08-.056.226-.034.316.012.146.045.225.135.27Zm5.56-1.036-.034.237h.023c.078.01.315.045.382.033.023 0 .034-.01.057-.022a.086.086 0 0 0 .022-.056c0-.023 0-.045-.011-.068-.011-.022-.034-.034-.068-.045a1.461 1.461 0 0 0-.371-.079Zm2.803 2.071a.49.49 0 0 0 .303.293c.147.056.27.045.417-.023.18-.1.293-.326.36-.517.068-.18.124-.428.056-.608-.056-.146-.168-.225-.304-.282a.453.453 0 0 0-.416.023c-.18.09-.281.326-.349.507-.09.18-.146.416-.067.607Z" fill="#fff"/><path d="m11.976 5.808-.045-3.23.833-.338 2.6 2.701-.968.394-.517-.562-.957.382.022.766-.63.259-.743.517-.653-.427-.844.596.203.732-.844.585-.89-3.624.732-.518 2.701 1.767Zm-7.012 7.283.09-.26 1.452.53-.293.81-.641-.236-.563 1.553.642.237-.293.81-1.452-.53.113-.303a2.767 2.767 0 0 0-.676-.461c-.394-.203-.821-.36-1.227-.518l-.472-.17.855-2.352 2.465.89Zm-.619-.777a2.086 2.086 0 0 1-.675-.574 1.566 1.566 0 0 1-.248-.518 1.353 1.353 0 0 1-.045-.563c.034-.259.124-.495.248-.709.236-.405.574-.709 1.035-.821.484-.124.957.01 1.373.258.417.237.766.575.9 1.058.136.45.035.901-.19 1.306-.237.405-.575.72-1.036.833-.484.09-.946-.034-1.362-.27Zm3.602-4.739.867-.472.078.135c.17.292.282.63.248.979a1.51 1.51 0 0 1-.45.867 1.542 1.542 0 0 1-1.148.495c-.484-.011-.9-.237-1.238-.574-.35-.338-.62-.754-.642-1.25-.023-.461.157-.866.473-1.193.27-.281.607-.473 1.013-.484.259-.011.506.068.731.192l.147.078-.507.856-.146-.09a.5.5 0 0 0-.642.079.554.554 0 0 0-.169.45c.023.225.226.461.383.619.158.157.428.371.653.394a.508.508 0 0 0 .439-.18.486.486 0 0 0 .146-.315c.011-.158-.079-.316-.157-.44l-.08-.146Zm9.342-3.23.057.371-.946.135-.056-.371c-.372.022-.777-.023-1.07-.27a1.381 1.381 0 0 1-.483-.912c-.057-.371 0-.732.225-1.036.225-.292.585-.45.934-.529l-.045-.315.945-.135.045.315c.372-.022.777.023 1.07.27.281.237.439.552.484.923.056.36-.012.71-.214 1.014-.203.303-.585.461-.946.54Zm3.951-.743-.191 1.182-.957-.147.54-3.433 1.17.18c.226.034.575.09.778.18a.99.99 0 0 1 .484.45c.123.226.146.485.1.744a1.19 1.19 0 0 1-.213.54 1.042 1.042 0 0 1-.788.428 3.463 3.463 0 0 1-.686-.057l-.237-.067Zm2.116-.124c.101-.281.237-.551.45-.765a1.58 1.58 0 0 1 .473-.338c.17-.079.35-.135.54-.146.26-.012.507.033.743.124.44.157.8.438.99.877.204.45.159.935-.01 1.396-.17.45-.44.856-.878 1.07-.428.202-.878.19-1.317.033-.44-.157-.8-.439-1.002-.878-.191-.45-.146-.923.011-1.373Zm5.257 2.837.596.776-.123.102c-.27.213-.575.382-.923.394-.338.01-.653-.113-.935-.304a1.515 1.515 0 0 1-.664-1.058c-.067-.473.102-.923.372-1.306.281-.394.641-.732 1.137-.833.45-.101.877.022 1.249.281.326.225.563.53.642.923.056.248.01.507-.08.743l-.056.158-.911-.36.067-.158a.5.5 0 0 0 .023-.338.542.542 0 0 0-.203-.27.55.55 0 0 0-.473-.09c-.225.056-.427.293-.551.473-.124.18-.304.473-.282.709.012.18.102.304.248.405a.512.512 0 0 0 .338.09c.157-.022.304-.124.416-.225l.113-.112Zm2.375.09c.461-.012.855.18 1.17.517.27.282.45.63.45 1.025 0 .259-.09.506-.213.72l-.09.146-.833-.529.09-.135a.499.499 0 0 0 .09-.326.448.448 0 0 0-.158-.304.563.563 0 0 0-.45-.18c-.236.011-.473.214-.63.36-.158.158-.394.405-.417.642a.525.525 0 0 0 .158.45.5.5 0 0 0 .315.157c.158.012.326-.067.45-.135l.158-.09.439.878-.135.08c-.304.168-.642.27-.98.213-.337-.056-.619-.236-.855-.473-.315-.326-.473-.709-.45-1.16.022-.483.27-.888.608-1.215.36-.371.788-.63 1.283-.641Zm1.756 4.097 1.958.079.428.776-3.04 1.689-.45-.81 1.441-.8-1.936-.09-.427-.777 3.039-1.688.45.81-1.463.81Zm1.497 3.174 1.902.484.259.855-3.332 1.014-.27-.879 1.576-.484-1.869-.495-.259-.855 3.332-1.013.27.889-1.61.484Zm-31.472.281c.518.192 1.137.462 1.587.788l.27-.754-1.654-.608-.203.574Zm2.049-2.51c.202.124.461.225.709.17a.622.622 0 0 0 .439-.327.613.613 0 0 0 .056-.54c-.079-.237-.304-.417-.518-.53-.202-.112-.461-.225-.698-.18a.637.637 0 0 0-.439.338c-.1.18-.135.36-.067.552.09.225.315.405.518.517Zm5.346-5.684-.461-.326.146.54.315-.214Zm3.073-1.655-.383-.416.023.563.36-.147Zm3.94-.619c.067-.022.123-.045.191-.078a.41.41 0 0 0 .158-.18.86.86 0 0 0 .01-.338c-.044-.327-.224-.45-.494-.45l.135 1.046Zm-.946.135-.146-1.046a.576.576 0 0 0-.282.157c-.09.124-.09.293-.067.44.045.337.214.45.495.45Zm5.234-1.43-.09.564.18.033c.102.012.338.057.44.034a.209.209 0 0 0 .134-.079.35.35 0 0 0 .068-.146.25.25 0 0 0-.034-.18.288.288 0 0 0-.146-.113c-.113-.045-.293-.067-.417-.09l-.135-.022Zm2.826 1.6c-.08.224-.136.495-.046.73a.633.633 0 0 0 .394.384.674.674 0 0 0 .552-.034c.214-.124.349-.372.439-.597.079-.214.146-.495.056-.72a.633.633 0 0 0-.405-.372.673.673 0 0 0-.551.023c-.226.101-.36.36-.44.585Z" fill="#2C2C2B"/><path d="m1.846 14.441.743-2.048 2.465.9.09-.259 1.148.417-.18.495-.642-.236-.675 1.868.641.237-.18.495-1.148-.417.09-.247a2.89 2.89 0 0 0-.799-.563 10.606 10.606 0 0 0-1.25-.518l-.303-.124Zm.709-.382c.9.326 1.53.652 1.88.956l.405-1.125-1.97-.72-.315.889Zm1.88-1.891a2.011 2.011 0 0 1-.63-.53 1.522 1.522 0 0 1-.226-.472c-.045-.169-.067-.338-.045-.495a1.59 1.59 0 0 1 .236-.653c.237-.405.54-.653.935-.754.394-.102.81-.023 1.25.236.438.259.72.574.82.957.113.382.046.776-.18 1.17-.236.406-.54.653-.934.755-.382.112-.799.033-1.226-.214Zm.303-.574c.304.18.586.236.822.19a.842.842 0 0 0 .552-.404.799.799 0 0 0 .078-.676c-.078-.236-.27-.439-.585-.619-.315-.18-.585-.247-.822-.202-.236.045-.416.191-.551.416a.785.785 0 0 0-.079.687c.079.225.27.428.585.608Zm3.445-3.962.574-.304c.18.303.259.596.225.866s-.169.53-.405.777c-.293.304-.63.45-1.025.439-.393 0-.765-.18-1.125-.53-.383-.36-.574-.742-.597-1.136-.022-.394.124-.754.428-1.07.27-.28.563-.427.9-.438.192-.011.406.045.642.169l-.326.562a.636.636 0 0 0-.44-.1.717.717 0 0 0-.405.213.722.722 0 0 0-.213.585c.022.225.168.462.439.72.281.282.54.428.765.44a.695.695 0 0 0 .574-.225.681.681 0 0 0 .191-.428 1.405 1.405 0 0 0-.202-.54Zm3.94-1.52-.563.394-.642-.428-1.036.72.203.732-.552.383-.799-3.287.552-.383 2.836 1.869Zm-1.678-.349-1.024-.71.326 1.205.698-.495Zm4.626-.878-.641.259-.518-.563-1.17.473.022.765-.63.248-.045-3.377.619-.247 2.363 2.442Zm-1.553-.71-.844-.922.045 1.238.8-.315Zm3.59.035.057.36-.62.09-.055-.36c-.507.056-.867-.023-1.103-.225a1.248 1.248 0 0 1-.428-.81c-.056-.361.011-.665.203-.913.18-.247.517-.416.99-.506l-.045-.304.619-.09.045.304c.495-.056.867.022 1.103.214.236.191.383.473.428.81.045.35-.011.642-.192.9-.18.27-.506.45-1.001.53Zm-.078-.518a.915.915 0 0 0 .416-.146.549.549 0 0 0 .226-.26.951.951 0 0 0 .022-.416c-.067-.45-.349-.641-.844-.574l.18 1.396Zm-.62.079-.19-1.396c-.27.034-.45.124-.552.259-.101.135-.135.326-.101.563.067.461.349.653.844.574Zm3.873.72.495-3.107 1.013.158c.383.056.63.113.743.169a.92.92 0 0 1 .405.371c.09.18.124.383.09.63-.033.192-.09.35-.18.462a.9.9 0 0 1-.315.27.845.845 0 0 1-.349.09c-.157.012-.371-.01-.664-.056l-.405-.067-.192 1.17-.641-.09Zm1.035-2.487-.135.877.35.057c.247.034.416.045.506.034a.446.446 0 0 0 .225-.124.531.531 0 0 0 .113-.225.368.368 0 0 0-.057-.293.503.503 0 0 0-.225-.18 3.307 3.307 0 0 0-.45-.09l-.327-.056Zm2.195 1.53c.113-.304.248-.54.417-.709.124-.124.259-.225.428-.304.157-.078.315-.124.484-.124a1.64 1.64 0 0 1 .675.113c.439.158.732.417.9.788.17.36.158.788-.022 1.272-.169.484-.44.8-.8.98-.36.18-.753.18-1.192.022-.44-.158-.743-.428-.9-.788-.17-.36-.159-.777.01-1.25Zm.62.203c-.124.338-.136.619-.046.844.09.225.26.383.496.473a.79.79 0 0 0 .675-.045c.214-.113.383-.35.507-.687.123-.337.146-.619.056-.844-.09-.225-.26-.371-.507-.461a.81.81 0 0 0-.686.033c-.203.113-.36.338-.496.687Zm4.457 2.814.394.518c-.27.225-.552.349-.822.36-.27.011-.552-.079-.833-.27a1.354 1.354 0 0 1-.596-.946c-.057-.394.056-.788.337-1.193.304-.428.642-.686 1.036-.765.382-.08.765 0 1.125.259.316.225.507.495.574.821.045.192.023.417-.067.664l-.608-.236a.63.63 0 0 0 .034-.45.658.658 0 0 0-.27-.36.743.743 0 0 0-.608-.124c-.214.056-.428.236-.642.54-.225.326-.337.597-.315.822a.697.697 0 0 0 .315.529.656.656 0 0 0 .45.124c.147-.045.316-.135.496-.293Zm2.431 2.375.293.574c-.316.169-.608.236-.878.191a1.357 1.357 0 0 1-.766-.427c-.292-.304-.427-.653-.405-1.036.023-.394.203-.765.563-1.103.383-.36.765-.552 1.16-.552.393-.01.742.147 1.057.462.27.281.406.585.406.912 0 .191-.057.405-.192.63l-.551-.349a.619.619 0 0 0 .112-.439.637.637 0 0 0-.202-.405.704.704 0 0 0-.574-.237c-.226.012-.462.147-.732.406-.282.281-.439.529-.462.743a.679.679 0 0 0 .203.574.614.614 0 0 0 .416.202c.17.034.35-.022.552-.146Zm2.668.18.292.518-1.834 1.013 2.453.101.304.552-2.757 1.53-.293-.517 1.8-1.002-2.42-.113-.303-.551 2.758-1.531Zm1.778 3.4.169.573-2.004.608 2.387.608.18.608-3.017.923-.169-.574 1.97-.597-2.341-.619-.191-.608 3.016-.923Z" fill="#FC0"/><g clip-path="url(#b)"><path d="M19 0c10.49 0 19 8.51 19 19s-8.51 19-19 19S0 29.49 0 19 8.51 0 19 0Z" fill="#454545"/><path d="M19 .169c10.4 0 18.842 8.442 18.842 18.842 0 10.4-8.442 18.843-18.842 18.843C8.6 37.854.157 29.412.157 19.01.168 8.6 8.6.17 19 .17Z" fill="#FC0"/><path d="M19.034 37.505C29.221 37.482 37.483 29.198 37.483 19c0-.146 0-.304-.012-.45h-1.643c0 .146.011.304.011.45 0 9.297-7.519 16.839-16.805 16.861v1.644Z" fill="#E21C2A"/><path d="M19.034 37.505a18.429 18.429 0 0 0 13.046-5.437c.202-.214.416-.428.608-.641l.01-.012.294-.326c.1-.113.19-.225.28-.338l.271-.338.023-.033c.078-.102.157-.214.247-.315l.023-.034c.078-.113.157-.214.236-.327l.011-.01c.17-.237.327-.474.484-.721l.012-.011c.078-.124.157-.237.225-.36.078-.125.146-.26.225-.383l.011-.034c.068-.124.135-.236.203-.36l.011-.034c.068-.124.124-.236.191-.36l.034-.068.169-.337.011-.012c.056-.124.124-.259.18-.394.011-.022.023-.045.034-.079.045-.112.101-.225.146-.337a.398.398 0 0 1 .045-.102c.045-.1.09-.213.136-.315.01-.045.033-.078.044-.123.034-.102.08-.203.113-.293a.595.595 0 0 0 .045-.135c.034-.09.068-.192.101-.282.023-.067.045-.123.057-.191.022-.079.056-.158.078-.248.023-.056.034-.123.057-.18.022-.09.056-.169.078-.259.012-.045.023-.078.034-.123.034-.102.057-.214.09-.316.012-.033.023-.078.034-.112.023-.113.056-.214.079-.326a2.48 2.48 0 0 1 .034-.158l.067-.282c.012-.078.034-.157.045-.236.011-.067.023-.146.045-.214l.034-.191c.011-.09.034-.18.045-.27l.068-.45c.01-.113.022-.226.033-.338 0-.045.012-.079.012-.124.01-.09.01-.18.022-.259.011-.067.011-.135.023-.203l.033-.472c.012-.158.012-.315.023-.473 0-.158.011-.315.011-.473v-.461h-.259c0 .146.011.304.011.45 0 10.052-8.137 18.212-18.19 18.246v.214h-.033Z" fill="#fff"/><path d="M19.034 35.873c9.286-.034 16.805-7.576 16.805-16.862 0-.146 0-.304-.011-.45h-1.643c0 .146.01.304.01.45 0 8.386-6.786 15.196-15.16 15.23v1.632Z" fill="#fff"/><path d="M19.034 34.23c8.375-.034 15.162-6.833 15.162-15.23 0-.146 0-.304-.011-.45H32.54c0 .146.012.304.012.45 0 7.485-6.056 13.552-13.519 13.586v1.643Z" fill="#E21C2A"/><path d="M32.822 18.55h-.27c0 .146.011.304.011.45 0 7.485-6.055 13.552-13.518 13.586v.27c7.62-.034 13.8-6.225 13.8-13.856a6.003 6.003 0 0 1-.023-.45Z" fill="#fff"/><path d="M18.944 37.505C8.746 37.482.495 29.198.495 19c0-.146 0-.304.011-.45h4.919c0 .146-.011.304-.011.45 0 7.485 6.056 13.552 13.518 13.586v4.919h.012Z" fill="#E21C2A"/><path d="M18.887 37.505a18.458 18.458 0 0 1-12.989-5.437c-.203-.214-.416-.428-.608-.641l-.011-.012-.293-.326a7.614 7.614 0 0 1-.281-.338l-.27-.338-.023-.033c-.079-.102-.157-.214-.247-.315l-.023-.034c-.079-.113-.158-.214-.236-.327l-.012-.01a16.048 16.048 0 0 1-.484-.721l-.01-.011c-.08-.124-.158-.237-.226-.36-.079-.125-.146-.26-.225-.383l-.011-.034c-.068-.124-.135-.237-.203-.36l-.011-.034c-.068-.124-.124-.236-.192-.36-.01-.023-.022-.045-.033-.068l-.17-.337-.01-.012c-.057-.124-.124-.259-.18-.394a.433.433 0 0 1-.034-.079c-.045-.112-.102-.225-.147-.337a.35.35 0 0 0-.045-.102c-.045-.1-.09-.213-.135-.315-.01-.045-.033-.078-.045-.123-.033-.102-.078-.203-.112-.293a.634.634 0 0 1-.045-.135c-.034-.09-.068-.192-.102-.282-.022-.067-.045-.123-.056-.191-.022-.079-.056-.158-.079-.248-.022-.056-.033-.123-.056-.18-.022-.09-.056-.169-.079-.259-.011-.045-.022-.078-.033-.123-.034-.102-.057-.214-.09-.316-.012-.033-.023-.078-.034-.112-.023-.113-.057-.214-.08-.327a2.641 2.641 0 0 0-.033-.157l-.067-.282c-.012-.078-.034-.157-.045-.236-.012-.067-.023-.146-.045-.214l-.034-.191c-.011-.09-.034-.18-.045-.27l-.068-.45-.034-.338c0-.045-.01-.079-.01-.124-.012-.09-.012-.18-.023-.259-.012-.067-.012-.135-.023-.203l-.034-.472c-.01-.158-.01-.315-.022-.473 0-.158-.011-.315-.011-.473v-.461h.259c0 .146-.012.304-.012.45 0 10.04 8.105 18.178 18.134 18.246v-.259C9.004 36.919 1.024 28.894 1.024 19c0-.146 0-.304.011-.45h.26c0 .146-.012.304-.012.45 0 9.748 7.868 17.66 17.604 17.717V33.34C11.02 33.272 4.66 26.88 4.66 19c0-.146 0-.304.011-.45h.259c0 .146-.011.304-.011.45 0 7.733 6.247 14.014 13.968 14.081v-.225C11.29 32.788 5.144 26.609 5.144 19c0-.146 0-.304.011-.45h.27c0 .146-.011.304-.011.45 0 7.463 6.022 13.518 13.462 13.586v-.011h.236v4.963h-.236v-.033h.011ZM18.955.484c10.074 0 18.257 8.048 18.505 18.054H.45C.698 8.532 8.892.485 18.955.485Z" fill="#FC0"/><path d="M.766 18.29h36.458C36.852 8.52 28.815.755 19 .755 9.196.754 1.148 8.521.766 18.291Z" fill="#fff"/><path d="M19 2.139c9.162 0 16.625 7.305 16.861 16.41H2.14C2.386 9.445 9.838 2.14 19 2.14Z" fill="#FC0"/><path d="M2.41 18.29h33.17c-.37-8.857-7.687-15.891-16.59-15.891-8.893 0-16.198 7.023-16.58 15.893Z" fill="#002ED3"/><path d="M18.955 3.77c8.25 0 14.982 6.574 15.218 14.768H3.737c.237-8.194 6.968-14.767 15.218-14.767Z" fill="#FC0"/><path d="M4.052 18.29h29.884c-.371-7.957-6.945-14.25-14.948-14.25-7.98 0-14.554 6.293-14.936 14.25Z" fill="#E21C2A"/><path d="M18.966 5.414c7.496 0 13.586 6.09 13.586 13.586 0 7.497-6.09 13.586-13.586 13.586-7.497 0-13.586-6.09-13.586-13.586S11.47 5.414 18.966 5.414Z" fill="#FC0"/><path d="M18.966 5.64c7.373 0 13.361 5.987 13.361 13.36 0 7.373-5.988 13.36-13.36 13.36-7.373 0-13.362-5.976-13.362-13.36 0-7.373 5.989-13.36 13.361-13.36Z" fill="#fff"/><path d="M23.289 27.577c-.563.518-1.171 1.07-1.835 1.43a6.43 6.43 0 0 1-.754.337c-.608.237-1.036.428-1.542.856-.08.067-.158.056-.248-.012-.506-.427-.934-.619-1.542-.855a6.439 6.439 0 0 1-.754-.338c-.664-.36-1.272-.912-1.835-1.43l-.687.08-.045-.136c-.337-1.08-.405-2.24.27-3.207l.18-.26.113.305a5.081 5.081 0 0 0 1.373 2.082l.203.18-.259.09a1.193 1.193 0 0 0-.529.371l.9.406c.383.067.744.281 1.138.056.765-.428.832-2.274.844-3.005l.056-3.073.034-.968.191-5.74h-1.193a.262.262 0 0 1-.259-.26v-.529c0-.135.113-.259.259-.259h.653a1.583 1.583 0 0 1-.642-1.283 1.597 1.597 0 1 1 3.197 0c0 .53-.259.99-.642 1.284h.732c.135 0 .259.112.259.258v.54a.262.262 0 0 1-.259.26h-1.182l.225 6.72.056 3.072c.012.72.08 2.578.845 3.006.394.225.754 0 1.137-.057l.9-.405a1.192 1.192 0 0 0-.529-.371l-.259-.09.203-.18a5.184 5.184 0 0 0 1.373-2.083l.113-.304.18.26c.675.967.607 2.126.27 3.207l-.045.135-.664-.09ZM19 11.729c.383 0 .698.315.698.698a.701.701 0 0 1-.698.697.701.701 0 0 1-.698-.697c0-.383.315-.698.698-.698Z" fill="#2C2C2B"/><path d="M19.045 14.464h.293l.191 6.033.034.968.056 3.073c.068 4.176 1.677 3.185 2.195 3.095l1.103-.495a1.378 1.378 0 0 0-.72-.585 5.363 5.363 0 0 0 1.418-2.15c.54.777.642 1.8.248 3.062l-.63-.08c-.631.586-1.228 1.115-1.858 1.464-.765.416-1.396.428-2.319 1.204-.022.012-.011.012-.034-.01-.922-.778-1.553-.789-2.318-1.205-.63-.35-1.227-.878-1.857-1.464l-.63.08c-.395-1.261-.293-2.286.247-3.062.293.81.754 1.542 1.418 2.15a1.388 1.388 0 0 0-.72.585l1.103.495c.518.079 2.127 1.07 2.195-3.095l.056-3.073.034-.968.191-6.033h.304v.01Z" fill="#FC0"/><path d="M19.124 15.32v13.46a6.622 6.622 0 0 0 1.34-.157 4.37 4.37 0 0 0 1.125-.417 4.25 4.25 0 0 0 1.058-.788c.27-.28.507-.596.653-.956.113-.27.191-.574.225-.923a5.01 5.01 0 0 0 .023-.923c0-.023-.012-.034 0-.057l.067-.168.09.168c.011.012 0 .034 0 .046.023.337.011.652-.022.956a3.91 3.91 0 0 1-.237.968c-.157.372-.405.71-.686 1.013a4.85 4.85 0 0 1-1.103.822 4.71 4.71 0 0 1-1.16.428c-.405.09-.855.146-1.373.157v.923h-.169v-.923a6.992 6.992 0 0 1-1.373-.157 4.54 4.54 0 0 1-2.263-1.25 3.133 3.133 0 0 1-.923-1.981 5.337 5.337 0 0 1-.022-.957v-.045l.09-.168.068.168c.01.023 0 .034 0 .057-.023.326-.012.641.022.923.034.337.113.653.225.923.147.36.383.675.653.956a4.417 4.417 0 0 0 2.184 1.204c.394.09.833.147 1.34.158V15.32h.168Z" fill="#2C2C2B"/><path d="M19.034 13.867h1.644c.045 0 .09.045.09.09v.54c0 .046-.045.09-.09.09H17.39a.096.096 0 0 1-.09-.09v-.54c0-.045.045-.09.09-.09h1.643ZM19 10.986c.8 0 1.441.641 1.441 1.44 0 .8-.641 1.441-1.44 1.441-.8 0-1.441-.641-1.441-1.44 0-.8.652-1.441 1.44-1.441Zm0 .563a.88.88 0 0 1 0 1.756.88.88 0 0 1 0-1.756Z" fill="#FC0"/><path d="m20.52 18.865-.023.011-.067-.034c-.09-.045-.192-.067-.282-.112l-.27-.135.259-.158c.416-.247.822-.641 1.16-.99.326-.316.652-.653 1.001-.946a2.152 2.152 0 0 1 1.306-.54c.056 0 .1-.011.157-.011.507-.023 1.013.135 1.486.292 1.16.383 2.274.957 3.456 1.261.495.079 1.148.135 1.632-.045.146-.045.326-.068.427.068.113.157.023.36-.078.483a2.117 2.117 0 0 1-.226.226l-.044.112c-.124.338-.36.563-.676.63-.157.428-.405.575-.822.563-.157.428-.45.462-.821.44l-.011.022c-.158.293-.518.338-.901.281a.594.594 0 0 1-.338.282c-.281.1-.607.01-.911-.102-.023.034-.034.068-.08.09-.348.226-.82.124-1.237-.056-.023.034-.034.056-.08.079-.967.54-1.845-.574-2.633-.923-.067-.034-.146-.056-.169-.124-.124-.023-.236-.09-.405-.191l-.81-.473Z" fill="#2C2C2B"/><path d="M20.485 18.696c-.09-.045-.19-.067-.28-.113.708-.427 1.519-1.395 2.194-1.947a2 2 0 0 1 1.204-.506c.045 0 .102-.011.147-.011.484-.023.979.135 1.43.28 1.159.372 2.295.969 3.477 1.262.788.123 1.34.09 1.723-.057.46-.157.258.405-.27.63-.35.147-.721.08-1.081.012-.754-.135-1.509-.394-2.285-.72-.664-.282-1.283-.653-1.981-.867-.664-.203-1.227-.248-1.7-.034-.743.338-1.407 1.474-2.578 2.071Z" fill="#FC0"/><path d="M22.804 16.918c1.002-.81 2.533.067 3.557.54.113.056.135.045.135.169-.011.067-.09.112-.191.135-.214.045-.372-.034-.574-.113-.934-.349-1.858-.788-2.882-.686-.101 0-.135.022-.045-.045Z" fill="#FC0"/><path d="M26.158 17.874c.282-.033.45-.123.462-.292.81.371 1.902.743 2.915.844.293.023.473-.034.71-.113-.136.394-.451.575-.845.552-1.058-.079-2.015-.338-3.242-.99Zm-3.849-.54c.124-.101.202-.225.36-.247.99-.18 2.217.349 3.084.686.236.09.09.27-.09.304a.915.915 0 0 1-.574-.056c-.934-.35-1.677-.878-2.746-.642-.09.023-.136.034-.034-.045Z" fill="#FC0"/><path d="M25.472 18.19c.292-.012.495-.102.506-.27.754.337 2.184 1.102 3.613 1.012-.135.394-.349.485-.742.462-.428-.034-.845-.146-1.284-.293-.653-.202-1.362-.517-2.093-.911Zm-3.568-.473c.123-.101.213-.203.36-.237 1.002-.247 1.88.26 2.746.62.237.1.113.247-.067.28a.916.916 0 0 1-.574-.055c-.935-.35-1.351-.8-2.42-.563-.09.011-.136.034-.045-.045Z" fill="#FC0"/><path d="M24.74 18.494c.293-.012.495-.102.507-.27.518.213 2.105 1.102 3.512 1.26-.136.394-.417.36-.81.338-.755-.045-2.545-.968-3.209-1.328Zm-3.174-.439c.124-.102.113-.136.259-.18 1.07-.305 1.654.19 2.521.55.236.102.169.204-.011.237-.214.045-.35-.045-.552-.112-.923-.293-1.058-.54-2.172-.462-.101.011-.135.034-.045-.034Z" fill="#FC0"/><path d="M24.133 18.786c.281-.011.45-.09.461-.259.394.17 1.43.777 2.5 1.17.27.102.562.215.832.237-.45.845-3.22-.957-3.793-1.148Zm-2.859-.506c.123-.102.101-.102.247-.113 1.306-.056 1.43.225 2.173.473.247.079.123.214-.057.225-.675.056-1.44-.653-2.273-.54-.09.01-.192.033-.09-.045Z" fill="#FC0"/><path d="M23.502 19c.281-.011.416-.056.416-.225.957.383 2.15 1.238 3.13 1.407a.483.483 0 0 1-.26.236c-.348.135-.843-.123-1.147-.27-.856-.394-1.824-1.047-2.139-1.148Zm-.652.169c.214-.023.337-.079.405-.203.878.428 1.643 1.013 2.544 1.396a.228.228 0 0 1-.034.056c-.765.484-2.386-.878-2.949-1.204-.113-.056-.068-.034.034-.045Z" fill="#FC0"/><path d="M21.971 19.45c.214-.022.417-.124.507-.225.011-.022.022-.034.034-.056.045.022.09.045.124.079.698.416.99.787 1.857 1.136a.244.244 0 0 1-.034.057c-.867.484-1.756-.608-2.488-.934-.112-.046-.123-.046 0-.057Zm-.945-.968c.123-.101.1-.067.247-.078.237-.012.473-.023.687.044.337.102.653.304 1.024.394.09.023.135.046.135.068.023.09-.27.225-.495.18-.484-.101-.743-.416-1.508-.552-.09-.022-.18.023-.09-.056Zm.383.721-.765-.45.258-.17c.113 0 .36.057.63.17.26.112.575.213.721.348.135.124 0 .18-.236.248-.293.067-.35 0-.608-.146Z" fill="#FC0"/><path d="m17.436 18.865.022.011.068-.034c.09-.045.191-.067.281-.112l.27-.135-.259-.158c-.416-.247-.821-.641-1.159-.99-.326-.316-.653-.653-1.002-.946a2.152 2.152 0 0 0-1.306-.54c-.056 0-.1-.011-.157-.011-.507-.023-1.013.135-1.486.292-1.16.383-2.262.957-3.455 1.261-.496.079-1.149.135-1.633-.045-.146-.045-.326-.068-.427.068-.113.157-.023.36.079.483a2 2 0 0 0 .225.226l.045.112c.123.338.36.563.675.63.158.428.405.575.822.563.157.428.45.462.821.44l.012.022c.157.293.517.338.9.281a.594.594 0 0 0 .338.282c.281.1.608.01.912-.102.022.034.033.068.078.09.35.226.822.124 1.239-.056.022.034.033.056.078.079.968.54 1.846-.574 2.634-.923.068-.034.147-.056.169-.124.124-.023.236-.09.405-.191l.81-.473Z" fill="#2C2C2B"/><path d="M17.47 18.696c.09-.045.19-.067.28-.113-.708-.427-1.519-1.395-2.194-1.947a2 2 0 0 0-1.205-.506c-.045 0-.1-.011-.146-.011-.484-.023-.98.135-1.43.28-1.159.372-2.296.969-3.478 1.262-.787.123-1.339.09-1.722-.057-.461-.157-.259.405.27.63.35.147.72.08 1.081.012.754-.135 1.508-.394 2.285-.72.664-.282 1.283-.653 1.981-.867.664-.203 1.227-.248 1.7-.034.743.338 1.407 1.474 2.577 2.071Z" fill="#FC0"/><path d="M15.15 16.918c-1-.81-2.532.067-3.556.54-.112.056-.135.045-.135.169.011.067.09.112.191.135.214.045.372-.034.574-.113.935-.349 1.858-.788 2.882-.686.09 0 .135.022.045-.045Z" fill="#FC0"/><path d="M11.785 17.874c-.281-.033-.45-.123-.461-.292-.81.371-1.903.743-2.916.844-.292.023-.472-.034-.709-.113.135.394.45.575.844.552 1.07-.079 2.027-.338 3.242-.99Zm3.861-.54c-.123-.101-.202-.225-.36-.247-.99-.18-2.217.349-3.084.686-.236.09-.09.27.09.304a.915.915 0 0 0 .574-.056c.934-.35 1.677-.878 2.747-.642.078.023.123.034.033-.045Z" fill="#FC0"/><path d="M12.483 18.19c-.293-.012-.495-.102-.507-.27-.754.337-2.183 1.102-3.613 1.012.135.394.35.485.743.462.428-.034.844-.146 1.283-.293.653-.202 1.362-.517 2.094-.911Zm3.568-.473c-.123-.101-.213-.203-.36-.237-1.002-.247-1.88.26-2.746.62-.237.1-.113.247.067.28a.916.916 0 0 0 .574-.055c.934-.35 1.351-.8 2.42-.563.09.011.135.034.045-.045Z" fill="#FC0"/><path d="M13.203 18.494c-.293-.012-.495-.102-.507-.27-.517.213-2.104 1.102-3.511 1.26.135.394.416.36.81.338.765-.045 2.555-.968 3.208-1.328Zm3.187-.439c-.125-.102-.113-.136-.26-.18-1.069-.305-1.654.19-2.521.55-.236.102-.169.204.011.237.214.045.35-.045.552-.112.923-.293 1.058-.54 2.172-.462.09.011.135.034.045-.034Z" fill="#FC0"/><path d="M13.81 18.786c-.28-.011-.45-.09-.46-.259-.395.17-1.43.777-2.5 1.17-.27.102-.562.215-.832.237.461.845 3.23-.957 3.793-1.148Zm2.871-.506c-.124-.102-.101-.102-.248-.113-1.305-.056-1.429.225-2.172.473-.247.079-.124.214.056.225.676.056 1.441-.653 2.274-.54.079.01.18.033.09-.045Z" fill="#FC0"/><path d="M14.453 19c-.282-.011-.417-.056-.417-.225-.956.383-2.15 1.238-3.129 1.407a.483.483 0 0 0 .26.236c.348.135.843-.123 1.147-.27.844-.394 1.824-1.047 2.139-1.148Zm.652.169c-.214-.023-.337-.079-.405-.203-.878.428-1.643 1.013-2.544 1.396a.228.228 0 0 0 .034.056c.765.484 2.386-.878 2.95-1.204.112-.056.067-.034-.035-.045Z" fill="#FC0"/><path d="M15.983 19.45c-.214-.022-.416-.124-.506-.225-.011-.022-.023-.034-.034-.056a.464.464 0 0 0-.124.079c-.698.416-.99.787-1.857 1.136a.208.208 0 0 0 .034.057c.866.484 1.756-.608 2.487-.934.101-.046.124-.046 0-.057Zm.946-.968c-.124-.101-.101-.067-.248-.078-.236-.012-.473-.023-.686.044-.338.102-.653.304-1.025.394-.09.023-.135.046-.135.068-.022.09.27.225.495.18.485-.101.743-.416 1.509-.552.09-.022.18.023.09-.056Zm-.383.721.766-.45-.26-.17c-.112 0-.36.057-.63.17-.258.112-.574.213-.72.348-.135.124 0 .18.236.248.293.067.35 0 .608-.146Z" fill="#FC0"/><path d="m23.221 23.874-11.796-12.09c-.248-.27-.394-.55-.417-.91-.01-.09-.01-.158-.022-.26l-.011-.169.213.012c.102 0 .203 0 .304.011.327.034.586.18.833.416l12.09 11.797c-.811.889-.62.349-1.194 1.193Z" fill="#2C2C2B"/><path d="M25.855 25.979c.191.225.416.427.709.506.146.045.236.045.349-.079l.078-.078c.102-.102.136-.158.124-.316-.022-.382-.236-.63-.54-.81a.21.21 0 0 0-.056-.158l-.101-.1c-.057-.057-.124-.068-.192-.057l-1.688-1.925-.304-.405-.225.506-.833.53.304.247.191.191 1.823 1.61c-.01.068 0 .135.057.18l.101.101c.045.08.135.09.203.057Z" fill="#2C2C2B"/><path d="m24.042 23.244-.079.844-.18-.17-.19-.19-.136-.102.585-.383Zm2.049 2.06.022-.293.124.146-.146.146Zm-.079-.395-.045.518-.236.236-.034-.033.09-.98.225.26Zm-.315-.371-.09 1.002-.225-.203.101-1.058.214.259Zm-.315-.36-.102 1.08-.225-.202.113-1.126.214.248Zm-.327-.372-.112 1.148-.225-.202.112-1.205.225.26Zm-.315-.36-.112 1.227-.226-.203.124-1.283.214.26Zm-.326-.371-.124 1.294-.225-.203.101-1.046.113-.237.135.192Zm1.475 2.679.326-.35.011.012c.09.067.203.157.293.27.101.113.18.248.203.416 0 .023.033.046.056.046.022 0 .045-.034.045-.057a.851.851 0 0 0-.225-.461 1.832 1.832 0 0 0-.315-.293l.067-.067c.35.168.597.393.62.765 0 .101-.012.113-.08.191a50.64 50.64 0 0 1-.078.08c-.068.067-.09.055-.192.033-.259-.079-.506-.259-.731-.585Z" fill="#FC0"/><path d="M26.395 24.932c-.08-.079-.214-.068-.293.022l-.563.63c-.079.08-.067.215.011.293l.102.09c.078.08.213.068.292-.022l.563-.63c.079-.08.068-.214-.011-.293l-.101-.09Z" fill="#2C2C2B"/><path d="m26.294 25.056.1.09c.012.011.012.034 0 .056l-.562.63c-.011.023-.045.023-.056.012l-.102-.09c-.01-.012-.01-.034 0-.057l.563-.63c.012-.023.034-.023.057-.011Z" fill="#FC0"/><path d="m23.795 23.491-4.109-4.198-8.52-8.532c-.011.371.112.641.371.923l11.74 12.032.518-.225Zm.225-.225-4.198-4.108-8.521-8.521c.371-.011.641.112.923.371l12.032 11.74-.236.518Z" fill="#D9DBDC"/><path d="M25.067 21.758c.203.011.428-.113.552-.237.169-.169.36-.551.146-.765-.202-.203-.608-.045-.788.135-.135.135-.247.372-.225.574l-1.62 1.148-1.149 1.621c-.202-.023-.439.09-.574.225-.168.169-.337.574-.135.788.203.203.597.023.766-.146.123-.124.247-.35.236-.552l1.722-1.058 1.07-1.733Z" fill="#2C2C2B"/><path d="m23.896 23.356-1.79 1.103c.068.102.012.338-.168.518-.191.191-.45.236-.53.146-.078-.079-.056-.36.136-.551.169-.17.416-.214.529-.147l1.193-1.688 1.7-1.193c-.057-.101-.023-.35.146-.53.191-.19.473-.213.552-.134.078.079.033.337-.147.529-.18.18-.416.225-.517.169l-1.104 1.778Z" fill="#FC0"/><path d="M22.388 24.076a.07.07 0 0 0-.012.08c.023.022.057.01.08-.012l1.136-1.047.135.203c.023.022.101.011.124 0 .023-.023.023-.09 0-.113l-.203-.135 1.025-1.137c.022-.022.045-.045.022-.067-.022-.023-.045.011-.067.034l-1.092 1.046-.135-.18c-.023-.022-.09 0-.102.023-.022.022-.033.067-.01.09l.19.124-1.091 1.091Zm-10.254 1.88c-.191.225-.427.417-.72.495-.158.034-.236.046-.349-.078a28.939 28.939 0 0 0-.079-.08c-.101-.112-.135-.157-.124-.314.023-.383.248-.63.552-.8a.21.21 0 0 1 .056-.157l.101-.101a.196.196 0 0 1 .203-.045l1.722-1.903.316-.394.225.507.821.552-.315.236-.191.191-1.846 1.576a.208.208 0 0 1-.056.18l-.102.101c-.045.057-.135.068-.214.034Z" fill="#2C2C2B"/><path d="m14.003 23.255.068.844.191-.158.191-.191.135-.101-.585-.394Zm-2.082 2.026-.023-.293-.124.135.147.158Zm.079-.405.045.517.236.237.034-.034-.08-.98-.236.26Zm.326-.36.079 1.001.236-.202-.079-1.059-.236.26Zm.326-.35.08 1.081.236-.203-.09-1.125-.226.247Zm.327-.36.09 1.148.236-.202-.09-1.205-.236.26Zm.326-.36.09 1.227.237-.203-.102-1.283-.225.26Zm.327-.36.1 1.306.237-.203-.079-1.047-.1-.247-.158.19Zm-1.52 2.645-.326-.349-.012.011c-.09.068-.202.158-.303.27a.766.766 0 0 0-.203.417c0 .023-.034.045-.056.045-.023 0-.045-.034-.045-.056.022-.18.123-.338.225-.462.101-.124.225-.214.315-.281l-.056-.068c-.35.158-.597.383-.63.754-.012.102 0 .113.078.192l.079.079c.067.067.09.067.191.033.26-.09.507-.27.743-.585Z" fill="#FC0"/><path d="m14.734 23.874 11.796-12.09c.248-.27.394-.55.417-.91.011-.09.011-.158.022-.26l.012-.169-.214.012c-.102 0-.203 0-.304.011-.327.034-.585.18-.833.416L13.54 22.681c.81.889.608.349 1.193 1.193Zm-3.118 1.024c.09-.079.214-.056.293.023l.551.641a.201.201 0 0 1-.022.293l-.101.09c-.09.079-.214.056-.293-.023l-.552-.641c-.067-.09-.067-.214.023-.293l.101-.09Z" fill="#2C2C2B"/><path d="m11.718 25.022-.101.09c-.011.011-.011.034 0 .056l.551.642c.012.022.045.022.057.011l.101-.09c.011-.011.011-.034 0-.056l-.552-.642c-.01-.022-.033-.022-.056-.011Z" fill="#FC0"/><path d="m14.149 23.491 4.108-4.198 8.532-8.532c.012.371-.112.641-.371.923L14.667 23.705l-.518-.214Zm-.214-.225 4.199-4.108 8.52-8.521c-.371-.011-.641.112-.923.371L13.71 22.748l.225.518Z" fill="#D9DBDC"/><path d="M15.657 24.572c-.011.202.113.427.236.551.17.17.552.36.766.158.214-.203.056-.608-.124-.788-.135-.135-.371-.248-.574-.236l-1.126-1.644-1.61-1.17a.762.762 0 0 0-.213-.575c-.169-.18-.574-.348-.777-.146-.214.203-.034.597.135.766.124.123.35.258.552.247l1.024 1.734 1.711 1.103Z" fill="#2C2C2B"/><path d="m14.082 23.367-1.07-1.812c-.1.056-.337.011-.506-.169-.18-.191-.225-.45-.146-.529.09-.078.36-.056.551.135.169.18.203.428.146.53l1.678 1.226 1.17 1.711c.101-.056.35-.022.53.158.18.191.202.473.123.551-.09.08-.349.034-.53-.157-.168-.18-.224-.417-.157-.518l-1.79-1.126Z" fill="#FC0"/><path d="M13.384 21.848c-.023-.023-.056-.034-.079-.011-.022.022-.011.056.011.078l1.025 1.148-.203.136c-.022.022-.011.1 0 .123.023.023.09.023.113 0l.135-.202 1.125 1.035c.023.023.045.045.068.023.022-.023 0-.045-.034-.068l-1.035-1.103.18-.124c.022-.022 0-.09-.011-.101-.023-.023-.068-.034-.09-.011l-.124.191-1.081-1.114Z" fill="#2C2C2B"/><path d="m32.225 13.158 3.456-1.058.371 1.193-1.204.372 1.418.36.338 1.092-3.636 1.114-.371-1.193 1.182-.36-1.407-.372-.327-1.058-.033.023-.608-1.092 1.08-.597-1.452-.067-.551-1.002 3.331-1.846.608 1.092-1.092.608 1.464.056.551 1.002-3.118 1.733Zm-2.814-6.067c.057-.067.124-.135.192-.202.382-.372.844-.642 1.384-.653.507-.011.946.202 1.295.563.304.315.495.697.495 1.136 0 .282-.101.563-.236.81l-.17.294-1.114-.71.18-.281a.406.406 0 0 0 .068-.225.418.418 0 0 0-.101-.214c-.09-.09-.192-.146-.327-.135-.18.011-.405.203-.529.315-.123.124-.349.36-.36.54a.37.37 0 0 0 .113.316.298.298 0 0 0 .214.1c.112.012.258-.055.348-.112l.304-.18.586 1.182-.282.146c-.337.18-.709.293-1.091.226-.372-.057-.687-.26-.946-.53a1.695 1.695 0 0 1-.495-1.283c.022-.382.157-.709.382-1.001l-.123.1c-.293.248-.642.417-1.025.429a1.734 1.734 0 0 1-1.035-.338c-.405-.282-.664-.675-.732-1.16-.079-.517.101-1.013.394-1.429.304-.428.71-.788 1.238-.9.495-.102.968.022 1.385.303.36.248.619.586.709 1.025.056.281.011.563-.079.833l-.113.326-1.226-.484.123-.304a.346.346 0 0 0 .023-.236.4.4 0 0 0-.146-.192.372.372 0 0 0-.338-.067c-.18.045-.36.27-.462.416-.1.147-.27.417-.259.597a.398.398 0 0 0 .17.293.31.31 0 0 0 .224.056c.113-.011.237-.113.327-.18l.259-.237.776 1.047ZM9.286 8.296a1.65 1.65 0 0 1-.484.9 1.63 1.63 0 0 1-1.26.54c-.53-.01-.98-.259-1.352-.619-.382-.371-.664-.821-.697-1.362-.023-.506.168-.956.517-1.317.304-.315.676-.517 1.115-.54a1.59 1.59 0 0 1 .81.214l.304.158-.675 1.136-.282-.168a.324.324 0 0 0-.225-.057.365.365 0 0 0-.202.113.388.388 0 0 0-.124.326c.011.18.214.394.337.518.124.124.372.338.552.349a.378.378 0 0 0 .315-.124.288.288 0 0 0 .09-.214.67.67 0 0 0-.135-.349l-.19-.292 1.16-.63.123.213L8.34 4.48l.912-.642 2.533 1.655-.034-3.04 1.036-.416 2.858 2.972-1.305.529-.518-.563-.743.304.023.765-.72.293-.822.574-.642-.428-.653.462.203.732-1.137.799-.045-.18Zm-4.367 4.423a2.355 2.355 0 0 1-.653-.27 2.284 2.284 0 0 1-.732-.619 2.097 2.097 0 0 1-.281-.574 1.656 1.656 0 0 1-.057-.62c.034-.27.135-.54.27-.776.26-.45.63-.776 1.137-.9.518-.135 1.036.011 1.497.27.462.259.833.63.98 1.148.146.495.045.99-.214 1.43-.259.45-.63.776-1.137.911a1.316 1.316 0 0 1-.36.045l1.34.484-.406 1.115-.642-.237-.45 1.25.642.236-.405 1.114-1.756-.63.123-.36a2.66 2.66 0 0 0-.562-.36c-.394-.192-.8-.36-1.216-.507l-.619-.225.968-2.668 2.465.9.068-.157Zm12.55-8.25.056.394-1.272.18-.056-.394c-.371 0-.743-.068-1.036-.315-.315-.26-.484-.62-.54-1.014-.056-.416.011-.81.26-1.148.213-.292.54-.461.888-.562l-.045-.338 1.272-.18.045.337c.36 0 .743.068 1.024.304.316.26.484.62.552 1.025.056.405-.011.788-.236 1.125-.214.315-.552.484-.912.586Zm3.906-.676-.192 1.17-1.272-.202.597-3.76 1.328.215c.26.045.586.09.822.191.247.101.428.281.551.518.147.259.17.551.124.844a1.268 1.268 0 0 1-.247.608 1.098 1.098 0 0 1-.428.36 1.18 1.18 0 0 1-.473.124 3.124 3.124 0 0 1-.72-.068h-.09Zm1.834-.371c.113-.304.26-.597.484-.822.147-.157.327-.281.518-.371a1.62 1.62 0 0 1 .608-.158c.281-.011.552.045.81.135.484.18.878.484 1.092.957.225.495.17 1.024-.011 1.52-.18.495-.484.922-.968 1.159-.473.225-.968.214-1.44.034-.485-.18-.879-.484-1.093-.957-.225-.484-.18-1.013 0-1.497ZM2.971 13.867c.44.17.9.372 1.306.63l.146-.405-1.35-.495-.102.27Zm1.936-2.555c.17.102.394.192.597.158a.48.48 0 0 0 .338-.248c.078-.135.1-.259.045-.405-.068-.191-.27-.349-.44-.439-.157-.09-.393-.203-.585-.158-.157.034-.247.124-.326.26a.497.497 0 0 0-.056.416c.045.169.258.315.427.416ZM17.3 3.242a.3.3 0 0 0 .056-.068.67.67 0 0 0 0-.259c-.022-.135-.056-.225-.146-.27l.09.597Zm-1.26.18-.09-.608c-.012.011-.012.011-.012.022-.056.08-.056.226-.034.316.012.146.045.225.135.27Zm5.56-1.036-.034.237h.023c.078.01.315.045.382.033.023 0 .034-.01.057-.022a.086.086 0 0 0 .022-.056c0-.023 0-.045-.011-.068-.011-.022-.034-.034-.068-.045a1.461 1.461 0 0 0-.371-.079Zm2.803 2.071a.49.49 0 0 0 .303.293c.147.056.27.045.417-.023.18-.1.293-.326.36-.517.068-.18.124-.428.056-.608-.056-.146-.168-.225-.304-.282a.453.453 0 0 0-.416.023c-.18.09-.281.326-.349.507-.09.18-.146.416-.067.607Z" fill="#fff"/><path d="m11.976 5.808-.045-3.23.833-.338 2.6 2.701-.968.394-.517-.562-.957.382.022.766-.63.259-.743.517-.653-.427-.844.596.203.732-.844.585-.89-3.624.732-.518 2.701 1.767Zm-7.012 7.283.09-.26 1.452.53-.293.81-.641-.236-.563 1.553.642.237-.293.81-1.452-.53.113-.303a2.767 2.767 0 0 0-.676-.461c-.394-.203-.821-.36-1.227-.518l-.472-.17.855-2.352 2.465.89Zm-.619-.777a2.086 2.086 0 0 1-.675-.574 1.566 1.566 0 0 1-.248-.518 1.353 1.353 0 0 1-.045-.563c.034-.259.124-.495.248-.709.236-.405.574-.709 1.035-.821.484-.124.957.01 1.373.258.417.237.766.575.9 1.058.136.45.035.901-.19 1.306-.237.405-.575.72-1.036.833-.484.09-.946-.034-1.362-.27Zm3.602-4.739.867-.472.078.135c.17.292.282.63.248.979a1.51 1.51 0 0 1-.45.867 1.542 1.542 0 0 1-1.148.495c-.484-.011-.9-.237-1.238-.574-.35-.338-.62-.754-.642-1.25-.023-.461.157-.866.473-1.193.27-.281.607-.473 1.013-.484.259-.011.506.068.731.192l.147.078-.507.856-.146-.09a.5.5 0 0 0-.642.079.554.554 0 0 0-.169.45c.023.225.226.461.383.619.158.157.428.371.653.394a.508.508 0 0 0 .439-.18.486.486 0 0 0 .146-.315c.011-.158-.079-.316-.157-.44l-.08-.146Zm9.342-3.23.057.371-.946.135-.056-.371c-.372.022-.777-.023-1.07-.27a1.381 1.381 0 0 1-.483-.912c-.057-.371 0-.732.225-1.036.225-.292.585-.45.934-.529l-.045-.315.945-.135.045.315c.372-.022.777.023 1.07.27.281.237.439.552.484.923.056.36-.012.71-.214 1.014-.203.303-.585.461-.946.54Zm3.951-.743-.191 1.182-.957-.147.54-3.433 1.17.18c.226.034.575.09.778.18a.99.99 0 0 1 .484.45c.123.226.146.485.1.744a1.19 1.19 0 0 1-.213.54 1.042 1.042 0 0 1-.788.428 3.463 3.463 0 0 1-.686-.057l-.237-.067Zm2.116-.124c.101-.281.237-.551.45-.765a1.58 1.58 0 0 1 .473-.338c.17-.079.35-.135.54-.146.26-.012.507.033.743.124.44.157.8.438.99.877.204.45.159.935-.01 1.396-.17.45-.44.856-.878 1.07-.428.202-.878.19-1.317.033-.44-.157-.8-.439-1.002-.878-.191-.45-.146-.923.011-1.373Zm5.257 2.837.596.776-.123.102c-.27.213-.575.382-.923.394-.338.01-.653-.113-.935-.304a1.515 1.515 0 0 1-.664-1.058c-.067-.473.102-.923.372-1.306.281-.394.641-.732 1.137-.833.45-.101.877.022 1.249.281.326.225.563.53.642.923.056.248.01.507-.08.743l-.056.158-.911-.36.067-.158a.5.5 0 0 0 .023-.338.542.542 0 0 0-.203-.27.55.55 0 0 0-.473-.09c-.225.056-.427.293-.551.473-.124.18-.304.473-.282.709.012.18.102.304.248.405a.512.512 0 0 0 .338.09c.157-.022.304-.124.416-.225l.113-.112Zm2.375.09c.461-.012.855.18 1.17.517.27.282.45.63.45 1.025 0 .259-.09.506-.213.72l-.09.146-.833-.529.09-.135a.499.499 0 0 0 .09-.326.448.448 0 0 0-.158-.304.563.563 0 0 0-.45-.18c-.236.011-.473.214-.63.36-.158.158-.394.405-.417.642a.525.525 0 0 0 .158.45.5.5 0 0 0 .315.157c.158.012.326-.067.45-.135l.158-.09.439.878-.135.08c-.304.168-.642.27-.98.213-.337-.056-.619-.236-.855-.473-.315-.326-.473-.709-.45-1.16.022-.483.27-.888.608-1.215.36-.371.788-.63 1.283-.641Zm1.756 4.097 1.958.079.428.776-3.04 1.689-.45-.81 1.441-.8-1.936-.09-.427-.777 3.039-1.688.45.81-1.463.81Zm1.497 3.174 1.902.484.259.855-3.332 1.014-.27-.879 1.576-.484-1.869-.495-.259-.855 3.332-1.013.27.889-1.61.484Zm-31.472.281c.518.192 1.137.462 1.587.788l.27-.754-1.654-.608-.203.574Zm2.049-2.51c.202.124.461.225.709.17a.622.622 0 0 0 .439-.327.613.613 0 0 0 .056-.54c-.079-.237-.304-.417-.518-.53-.202-.112-.461-.225-.698-.18a.637.637 0 0 0-.439.338c-.1.18-.135.36-.067.552.09.225.315.405.518.517Zm5.346-5.684-.461-.326.146.54.315-.214Zm3.073-1.655-.383-.416.023.563.36-.147Zm3.94-.619c.067-.022.123-.045.191-.078a.41.41 0 0 0 .158-.18.86.86 0 0 0 .01-.338c-.044-.327-.224-.45-.494-.45l.135 1.046Zm-.946.135-.146-1.046a.576.576 0 0 0-.282.157c-.09.124-.09.293-.067.44.045.337.214.45.495.45Zm5.234-1.43-.09.564.18.033c.102.012.338.057.44.034a.209.209 0 0 0 .134-.079.35.35 0 0 0 .068-.146.25.25 0 0 0-.034-.18.288.288 0 0 0-.146-.113c-.113-.045-.293-.067-.417-.09l-.135-.022Zm2.826 1.6c-.08.224-.136.495-.046.73a.633.633 0 0 0 .394.384.674.674 0 0 0 .552-.034c.214-.124.349-.372.439-.597.079-.214.146-.495.056-.72a.633.633 0 0 0-.405-.372.673.673 0 0 0-.551.023c-.226.101-.36.36-.44.585Z" fill="#2C2C2B"/><path d="m1.846 14.441.743-2.048 2.465.9.09-.259 1.148.417-.18.495-.642-.236-.675 1.868.641.237-.18.495-1.148-.417.09-.247a2.89 2.89 0 0 0-.799-.563 10.606 10.606 0 0 0-1.25-.518l-.303-.124Zm.709-.382c.9.326 1.53.652 1.88.956l.405-1.125-1.97-.72-.315.889Zm1.88-1.891a2.011 2.011 0 0 1-.63-.53 1.522 1.522 0 0 1-.226-.472c-.045-.169-.067-.338-.045-.495a1.59 1.59 0 0 1 .236-.653c.237-.405.54-.653.935-.754.394-.102.81-.023 1.25.236.438.259.72.574.82.957.113.382.046.776-.18 1.17-.236.406-.54.653-.934.755-.382.112-.799.033-1.226-.214Zm.303-.574c.304.18.586.236.822.19a.842.842 0 0 0 .552-.404.799.799 0 0 0 .078-.676c-.078-.236-.27-.439-.585-.619-.315-.18-.585-.247-.822-.202-.236.045-.416.191-.551.416a.785.785 0 0 0-.079.687c.079.225.27.428.585.608Zm3.445-3.962.574-.304c.18.303.259.596.225.866s-.169.53-.405.777c-.293.304-.63.45-1.025.439-.393 0-.765-.18-1.125-.53-.383-.36-.574-.742-.597-1.136-.022-.394.124-.754.428-1.07.27-.28.563-.427.9-.438.192-.011.406.045.642.169l-.326.562a.636.636 0 0 0-.44-.1.717.717 0 0 0-.405.213.722.722 0 0 0-.213.585c.022.225.168.462.439.72.281.282.54.428.765.44a.695.695 0 0 0 .574-.225.681.681 0 0 0 .191-.428 1.405 1.405 0 0 0-.202-.54Zm3.94-1.52-.563.394-.642-.428-1.036.72.203.732-.552.383-.799-3.287.552-.383 2.836 1.869Zm-1.678-.349-1.024-.71.326 1.205.698-.495Zm4.626-.878-.641.259-.518-.563-1.17.473.022.765-.63.248-.045-3.377.619-.247 2.363 2.442Zm-1.553-.71-.844-.922.045 1.238.8-.315Zm3.59.035.057.36-.62.09-.055-.36c-.507.056-.867-.023-1.103-.225a1.248 1.248 0 0 1-.428-.81c-.056-.361.011-.665.203-.913.18-.247.517-.416.99-.506l-.045-.304.619-.09.045.304c.495-.056.867.022 1.103.214.236.191.383.473.428.81.045.35-.011.642-.192.9-.18.27-.506.45-1.001.53Zm-.078-.518a.915.915 0 0 0 .416-.146.549.549 0 0 0 .226-.26.951.951 0 0 0 .022-.416c-.067-.45-.349-.641-.844-.574l.18 1.396Zm-.62.079-.19-1.396c-.27.034-.45.124-.552.259-.101.135-.135.326-.101.563.067.461.349.653.844.574Zm3.873.72.495-3.107 1.013.158c.383.056.63.113.743.169a.92.92 0 0 1 .405.371c.09.18.124.383.09.63-.033.192-.09.35-.18.462a.9.9 0 0 1-.315.27.845.845 0 0 1-.349.09c-.157.012-.371-.01-.664-.056l-.405-.067-.192 1.17-.641-.09Zm1.035-2.487-.135.877.35.057c.247.034.416.045.506.034a.446.446 0 0 0 .225-.124.531.531 0 0 0 .113-.225.368.368 0 0 0-.057-.293.503.503 0 0 0-.225-.18 3.307 3.307 0 0 0-.45-.09l-.327-.056Zm2.195 1.53c.113-.304.248-.54.417-.709.124-.124.259-.225.428-.304.157-.078.315-.124.484-.124a1.64 1.64 0 0 1 .675.113c.439.158.732.417.9.788.17.36.158.788-.022 1.272-.169.484-.44.8-.8.98-.36.18-.753.18-1.192.022-.44-.158-.743-.428-.9-.788-.17-.36-.159-.777.01-1.25Zm.62.203c-.124.338-.136.619-.046.844.09.225.26.383.496.473a.79.79 0 0 0 .675-.045c.214-.113.383-.35.507-.687.123-.337.146-.619.056-.844-.09-.225-.26-.371-.507-.461a.81.81 0 0 0-.686.033c-.203.113-.36.338-.496.687Zm4.457 2.814.394.518c-.27.225-.552.349-.822.36-.27.011-.552-.079-.833-.27a1.354 1.354 0 0 1-.596-.946c-.057-.394.056-.788.337-1.193.304-.428.642-.686 1.036-.765.382-.08.765 0 1.125.259.316.225.507.495.574.821.045.192.023.417-.067.664l-.608-.236a.63.63 0 0 0 .034-.45.658.658 0 0 0-.27-.36.743.743 0 0 0-.608-.124c-.214.056-.428.236-.642.54-.225.326-.337.597-.315.822a.697.697 0 0 0 .315.529.656.656 0 0 0 .45.124c.147-.045.316-.135.496-.293Zm2.431 2.375.293.574c-.316.169-.608.236-.878.191a1.357 1.357 0 0 1-.766-.427c-.292-.304-.427-.653-.405-1.036.023-.394.203-.765.563-1.103.383-.36.765-.552 1.16-.552.393-.01.742.147 1.057.462.27.281.406.585.406.912 0 .191-.057.405-.192.63l-.551-.349a.619.619 0 0 0 .112-.439.637.637 0 0 0-.202-.405.704.704 0 0 0-.574-.237c-.226.012-.462.147-.732.406-.282.281-.439.529-.462.743a.679.679 0 0 0 .203.574.614.614 0 0 0 .416.202c.17.034.35-.022.552-.146Zm2.668.18.292.518-1.834 1.013 2.453.101.304.552-2.757 1.53-.293-.517 1.8-1.002-2.42-.113-.303-.551 2.758-1.531Zm1.778 3.4.169.573-2.004.608 2.387.608.18.608-3.017.923-.169-.574 1.97-.597-2.341-.619-.191-.608 3.016-.923Z" fill="#FC0"/></g></g><defs><clipPath id="a"><path fill="#fff" d="M0 0h38v38H0z"/></clipPath><clipPath id="b"><path fill="#fff" d="M0 0h38v38H0z"/></clipPath></defs></svg>