<svg width="19" height="18" fill="none" xmlns="http://www.w3.org/2000/svg"><path d="M14.1 0h-9A4.5 4.5 0 0 0 .6 4.5v9A4.5 4.5 0 0 0 5.1 18h9a4.5 4.5 0 0 0 4.5-4.5v-9A4.5 4.5 0 0 0 14.1 0Z" fill="#fff"/><path d="M9.975 0H14.1a4.5 4.5 0 0 1 4.5 4.5v4.125h-4.125a4.5 4.5 0 0 1-4.5-4.5V0Zm-.75 0H5.1A4.5 4.5 0 0 0 .6 4.5v4.125h4.125a4.5 4.5 0 0 0 4.5-4.5V0ZM18.6 9.375h-4.125a4.5 4.5 0 0 0-4.5 4.5V18H14.1a4.5 4.5 0 0 0 4.5-4.5V9.375Zm-18 0h4.125a4.5 4.5 0 0 1 4.5 4.5V18H5.1a4.5 4.5 0 0 1-4.5-4.5V9.375Z" fill="#2C75B9" fill-opacity=".3"/></svg>