<svg width="19" height="18" viewBox="0 0 19 18" fill="none" xmlns="http://www.w3.org/2000/svg">
<path d="M14.0996 0H5.09961C2.61433 0 0.599609 2.01472 0.599609 4.5V13.5C0.599609 15.9853 2.61433 18 5.09961 18H14.0996C16.5849 18 18.5996 15.9853 18.5996 13.5V4.5C18.5996 2.01472 16.5849 0 14.0996 0Z" fill="white"/>
<path d="M9.97461 0H14.0996C16.5849 0 18.5996 2.01472 18.5996 4.5V8.625H14.4746C11.9893 8.625 9.97461 6.61028 9.97461 4.125V0Z" fill="#2C75B9" fill-opacity="0.3"/>
<path d="M9.22461 0H5.09961C2.61433 0 0.599609 2.01472 0.599609 4.5V8.625H4.72461C7.20989 8.625 9.22461 6.61028 9.22461 4.125V0Z" fill="#2C75B9" fill-opacity="0.3"/>
<path d="M18.5996 9.375H14.4746C11.9893 9.375 9.97461 11.3897 9.97461 13.875V18H14.0996C16.5849 18 18.5996 15.9853 18.5996 13.5V9.375Z" fill="#2C75B9" fill-opacity="0.3"/>
<path d="M0.599609 9.375H4.72461C7.20989 9.375 9.22461 11.3897 9.22461 13.875V18H5.09961C2.61433 18 0.599609 15.9853 0.599609 13.5V9.375Z" fill="#2C75B9" fill-opacity="0.3"/>
</svg>
