<svg width="18" height="18" fill="none" xmlns="http://www.w3.org/2000/svg"><path d="M8.63 18h.75c4.069 0 6.103 0 7.367-1.263C18.011 15.473 18 13.439 18 9.38v-.76c0-4.058 0-6.093-1.253-7.357C15.495 0 13.45 0 9.38 0h-.75C4.562 0 2.528 0 1.264 1.263 0 2.527 0 4.56 0 8.62v.76c0 4.059 0 6.093 1.263 7.357C2.527 18 4.561 18 8.631 18Z" fill="rgba(44, 117, 185, 0.3)"/><path d="M9.66 12.978c-4.059 0-6.522-2.816-6.618-7.496h2.055c.065 3.438 1.629 4.896 2.827 5.194V5.482h1.97v2.966c1.157-.128 2.367-1.478 2.774-2.966h1.938c-.31 1.831-1.628 3.18-2.559 3.738.931.45 2.43 1.627 3.009 3.758h-2.13c-.45-1.424-1.554-2.528-3.031-2.678v2.678H9.66Z" fill="#fff"/></svg>