<svg width="11" height="14" viewBox="0 0 11 14" fill="none" xmlns="http://www.w3.org/2000/svg">
<path fill-rule="evenodd" clip-rule="evenodd" d="M5.5 0C2.46724 0 0 2.46744 0 5.49987C0 9.26373 4.92216 13.6026 5.13138 13.8358C5.32829 14.055 5.6723 14.0544 5.86862 13.8358C6.07784 13.6026 11 9.26373 11 5.49987C11 2.46744 8.53277 0 5.5 0ZM5.5 7.46444C4.41641 7.46444 3.535 6.58355 3.535 5.49987C3.535 4.41677 4.41641 3.53529 5.5 3.53529C6.583 3.53529 7.46441 4.41677 7.46441 5.49987C7.46441 6.58355 6.583 7.46444 5.5 7.46444Z" fill="#E21C2A"/>
</svg>
