<svg width="94" height="21" fill="none" xmlns="http://www.w3.org/2000/svg"><path d="M13.653 14.1V17H2.664v-2.9h10.99Zm-9.743 0v6.735H.42L.16 14.1h3.75Zm12.31 0-.397 6.746H12.44V14.1h3.78ZM12.01 1.36v2.91H4.157V1.36h7.853Zm2.535 0V17h-3.75V1.36h3.75Zm-10.635 0h3.76l-.462 6.412c-.079 1.096-.204 2.049-.376 2.858-.172.81-.376 1.507-.612 2.095a8.518 8.518 0 0 1-.774 1.514 7.487 7.487 0 0 1-.88 1.107c-.301.315-.602.601-.903.86-.3.257-.59.522-.87.794H.505v-2.9h.752a3.62 3.62 0 0 0 .666-.634c.229-.272.444-.641.644-1.107.2-.465.376-1.07.527-1.815.15-.745.265-1.669.344-2.772L3.91 1.36Zm26.587 7.508v.634c0 1.196-.168 2.27-.505 3.223-.33.945-.798 1.754-1.407 2.427a6.237 6.237 0 0 1-2.16 1.537c-.83.35-1.747.526-2.75.526-1.009 0-1.933-.176-2.77-.526a6.345 6.345 0 0 1-2.17-1.537c-.61-.673-1.082-1.482-1.419-2.427-.329-.953-.494-2.027-.494-3.223v-.634c0-1.196.165-2.27.494-3.222.337-.953.806-1.762 1.408-2.428a6.056 6.056 0 0 1 2.159-1.536c.838-.358 1.762-.537 2.771-.537 1.003 0 1.92.179 2.75.537.838.35 1.561.863 2.17 1.536.609.666 1.082 1.475 1.418 2.428.337.952.505 2.026.505 3.222Zm-3.824.634v-.655c0-.774-.068-1.454-.204-2.041-.13-.595-.323-1.092-.58-1.494a2.552 2.552 0 0 0-.956-.902 2.58 2.58 0 0 0-1.279-.311c-.501 0-.938.103-1.31.311-.373.2-.684.501-.935.902-.25.402-.44.9-.57 1.494a10.26 10.26 0 0 0-.182 2.04v.656c0 .766.061 1.447.183 2.041.129.587.319 1.085.57 1.493.257.408.572.716.945.924.379.208.82.311 1.32.311.48 0 .907-.103 1.28-.311.372-.208.683-.516.934-.924.258-.408.45-.906.58-1.493.136-.594.204-1.275.204-2.041Zm14.674 2.202h3.76c-.05 1.089-.344 2.048-.881 2.879-.538.83-1.282 1.479-2.235 1.944-.945.459-2.062.688-3.351.688-1.046 0-1.98-.176-2.804-.526a5.713 5.713 0 0 1-2.084-1.515c-.566-.659-1-1.457-1.3-2.396-.294-.938-.44-1.994-.44-3.169v-.848c0-1.175.154-2.231.462-3.17.315-.945.759-1.747 1.332-2.405A5.779 5.779 0 0 1 35.89 1.66c.809-.35 1.708-.526 2.696-.526 1.36 0 2.51.243 3.448.73.938.487 1.665 1.157 2.18 2.01.517.844.82 1.807.914 2.889h-3.76c-.014-.588-.114-1.078-.3-1.472a1.859 1.859 0 0 0-.881-.902c-.401-.2-.935-.301-1.601-.301-.466 0-.87.086-1.214.258-.344.172-.63.444-.86.816-.229.373-.4.856-.515 1.45-.107.588-.161 1.297-.161 2.127v.87c0 .831.05 1.54.15 2.127.1.588.262 1.067.484 1.44.222.372.508.648.86.827.357.172.794.258 1.31.258.573 0 1.056-.09 1.45-.269a2.03 2.03 0 0 0 .913-.838c.215-.38.33-.863.344-1.45Zm12.17-7.058L49.705 17h-4.05l5.747-15.64h2.568l-.451 3.286ZM56.677 17 52.852 4.646l-.495-3.287h2.6L60.737 17h-4.061Zm-.15-5.833v2.911H48.5v-2.911h8.024Zm11.988-6.52L64.7 17h-4.05l5.747-15.64h2.568l-.451 3.286ZM71.672 17 67.848 4.646l-.495-3.287h2.6L75.733 17h-4.061Zm-.15-5.833v2.911h-8.025v-2.911h8.025Zm11.472-8.476h3.91c.946 0 1.816.154 2.61.462a6.074 6.074 0 0 1 2.074 1.322 5.91 5.91 0 0 1 1.364 2.073c.322.81.484 1.719.484 2.728 0 .974-.162 1.855-.484 2.643a5.756 5.756 0 0 1-1.364 2.02 6.104 6.104 0 0 1-2.073 1.288c-.795.294-1.665.441-2.61.441h-3.91c-.953 0-1.83-.147-2.633-.44a6.28 6.28 0 0 1-2.094-1.279 5.903 5.903 0 0 1-1.375-2.009c-.323-.787-.484-1.668-.484-2.642 0-1.01.161-1.92.484-2.729a6.133 6.133 0 0 1 1.375-2.084 6.085 6.085 0 0 1 2.094-1.332c.802-.308 1.68-.462 2.632-.462Zm0 3.03a3.1 3.1 0 0 0-1.547.386c-.458.258-.82.652-1.085 1.182-.265.523-.397 1.192-.397 2.009 0 .566.079 1.06.236 1.482.158.423.376.77.655 1.042.28.272.602.477.967.613.366.136.756.204 1.171.204h3.932c.558 0 1.06-.122 1.504-.366.444-.25.795-.626 1.052-1.127.265-.502.398-1.125.398-1.87 0-.608-.075-1.135-.226-1.579a3.034 3.034 0 0 0-.633-1.106 2.492 2.492 0 0 0-.935-.655 3.095 3.095 0 0 0-1.16-.215h-3.932Zm3.76-5.006v16.93h-3.62V.715h3.62Z" fill="#13353F"/></svg>