<svg width="101" height="23" fill="none" xmlns="http://www.w3.org/2000/svg"><path d="M15.14 15.504v2.531H2.708v-2.531h12.434Zm-11.554 0v6.715H.527l-.152-6.715h3.21Zm13.957 0-.246 6.726h-2.988v-6.726h3.234ZM13.137.973v2.543h-8.04V.973h8.04Zm2.379 0v17.062h-3.211V.973h3.21Zm-10.934 0h3.223L7.37 7.91a21.994 21.994 0 0 1-.351 2.988 15.48 15.48 0 0 1-.61 2.332c-.242.68-.512 1.278-.808 1.793-.29.508-.598.95-.926 1.325a7.26 7.26 0 0 1-.996.972 12.59 12.59 0 0 1-.996.715H.89v-2.531h.773c.227-.195.465-.469.715-.82.258-.352.504-.817.738-1.395.242-.578.453-1.309.633-2.191.18-.883.309-1.946.387-3.188L4.582.973ZM33.094 9.07v.88c0 1.288-.172 2.448-.516 3.48-.344 1.023-.832 1.894-1.465 2.613a6.393 6.393 0 0 1-2.261 1.652c-.875.383-1.848.575-2.918.575-1.055 0-2.024-.192-2.907-.575a6.506 6.506 0 0 1-2.273-1.652c-.64-.719-1.137-1.59-1.488-2.613-.352-1.032-.528-2.192-.528-3.48v-.88c0-1.297.176-2.457.528-3.48.351-1.024.843-1.895 1.476-2.613a6.33 6.33 0 0 1 2.262-1.664C23.887.93 24.855.738 25.91.738c1.07 0 2.043.192 2.918.575a6.33 6.33 0 0 1 2.262 1.664c.64.718 1.133 1.59 1.476 2.613.352 1.023.528 2.183.528 3.48Zm-3.258.88v-.903c0-.93-.086-1.746-.258-2.45-.172-.71-.426-1.308-.762-1.792a3.245 3.245 0 0 0-1.242-1.09c-.492-.25-1.047-.375-1.664-.375-.625 0-1.18.125-1.664.375a3.298 3.298 0 0 0-1.219 1.09c-.336.484-.593 1.082-.773 1.793-.172.703-.258 1.52-.258 2.449v.902c0 .922.086 1.739.258 2.45.18.71.437 1.312.773 1.804a3.47 3.47 0 0 0 1.242 1.102c.485.25 1.04.375 1.665.375s1.18-.125 1.664-.375a3.28 3.28 0 0 0 1.218-1.102c.336-.492.59-1.094.762-1.805.172-.71.258-1.527.258-2.449Zm15.973 2.472h3.222c-.086 1.14-.402 2.152-.949 3.035-.547.875-1.309 1.563-2.285 2.063-.977.5-2.16.75-3.55.75-1.071 0-2.036-.188-2.895-.563a6.263 6.263 0 0 1-2.192-1.629c-.601-.71-1.062-1.562-1.383-2.555-.32-1-.48-2.12-.48-3.363v-1.3c0-1.243.164-2.364.492-3.364.328-1 .797-1.851 1.406-2.555a6.286 6.286 0 0 1 2.215-1.64c.867-.383 1.836-.574 2.906-.574 1.391 0 2.567.257 3.528.773.96.508 1.707 1.207 2.238 2.098.531.89.852 1.914.961 3.07H45.82c-.062-.719-.218-1.328-.468-1.828-.243-.5-.61-.88-1.102-1.137-.484-.265-1.129-.398-1.934-.398-.625 0-1.175.117-1.652.351-.469.235-.86.586-1.172 1.055-.312.46-.547 1.039-.703 1.734-.156.688-.234 1.485-.234 2.39v1.325c0 .867.07 1.645.21 2.332.141.688.36 1.27.657 1.746.297.477.68.84 1.148 1.09.47.25 1.028.375 1.676.375.79 0 1.43-.125 1.922-.375.5-.25.879-.617 1.137-1.101.265-.485.433-1.086.504-1.805Zm12.504-8.86-4.864 14.473h-3.41L56.414.973h2.18l-.282 2.59Zm4.066 14.473L57.492 3.562 57.2.973h2.192l6.41 17.063H62.38Zm-.223-6.34v2.543h-9.152v-2.543h9.152Zm12.188-8.133L69.48 18.035h-3.41L72.444.973h2.18l-.281 2.59Zm4.066 14.473L73.523 3.562l-.292-2.59h2.19l6.411 17.063H78.41Zm-.222-6.34v2.543h-9.153v-2.543h9.153Zm11.706-9.152h3.575c1.015 0 1.949.168 2.8.504a6.642 6.642 0 0 1 2.227 1.43 6.4 6.4 0 0 1 1.488 2.214c.352.86.528 1.82.528 2.883 0 1.04-.176 1.985-.528 2.836a6.426 6.426 0 0 1-1.488 2.203 6.584 6.584 0 0 1-2.227 1.407c-.851.328-1.785.492-2.8.492h-3.575c-1.015 0-1.953-.164-2.812-.492a6.712 6.712 0 0 1-2.238-1.407 6.41 6.41 0 0 1-1.477-2.18c-.351-.851-.527-1.796-.527-2.835 0-1.063.176-2.024.527-2.883a6.605 6.605 0 0 1 1.477-2.227 6.68 6.68 0 0 1 2.238-1.441c.86-.336 1.797-.504 2.813-.504Zm0 2.578c-.812 0-1.519.176-2.12.527-.602.352-1.067.86-1.395 1.524-.328.664-.492 1.473-.492 2.426 0 .695.094 1.312.281 1.851.195.54.469.992.82 1.36a3.53 3.53 0 0 0 1.266.843 4.563 4.563 0 0 0 1.64.282h3.598c.805 0 1.5-.172 2.086-.516a3.497 3.497 0 0 0 1.383-1.488c.328-.657.492-1.442.492-2.356 0-.71-.094-1.34-.281-1.886a3.982 3.982 0 0 0-.797-1.407 3.291 3.291 0 0 0-1.254-.867 4.321 4.321 0 0 0-1.629-.293h-3.598ZM93.234.27v18.468h-3.093V.27h3.093Z" fill="#191C21"/></svg>