<svg width="137" height="137" viewBox="0 0 137 137" fill="none" xmlns="http://www.w3.org/2000/svg">
<g clip-path="url(#clip0_402_4446)">
<path fill-rule="evenodd" clip-rule="evenodd" d="M68.5 0C106.321 0 137 30.6789 137 68.5C137 106.321 106.321 137 68.5 137C30.6789 137 0 106.321 0 68.5C0 30.6789 30.6789 0 68.5 0Z" fill="#454545"/>
<path fill-rule="evenodd" clip-rule="evenodd" d="M68.5002 0.608765C105.997 0.608765 136.432 31.0442 136.432 68.5406C136.432 106.037 105.997 136.473 68.5002 136.473C31.0038 136.473 0.568359 106.037 0.568359 68.5406C0.60894 31.0036 31.0038 0.608765 68.5002 0.608765Z" fill="#FFCC00"/>
<path fill-rule="evenodd" clip-rule="evenodd" d="M68.6221 135.215C105.347 135.133 135.134 105.266 135.134 68.5001C135.134 67.9725 135.134 67.4044 135.093 66.8768H129.168C129.168 67.4044 129.209 67.9725 129.209 68.5001C129.209 102.02 102.101 129.209 68.6221 129.29V135.215Z" fill="#E21C2A"/>
<path fill-rule="evenodd" clip-rule="evenodd" d="M68.6221 135.214C87.0051 135.174 103.643 127.666 115.655 115.614C116.385 114.843 117.156 114.072 117.846 113.301L117.887 113.26C118.252 112.855 118.577 112.489 118.942 112.083C119.307 111.678 119.632 111.272 119.956 110.866C120.281 110.46 120.606 110.054 120.93 109.649L121.012 109.527C121.296 109.162 121.58 108.756 121.904 108.391L121.986 108.269C122.27 107.863 122.554 107.498 122.838 107.092L122.878 107.051C123.487 106.199 124.055 105.347 124.623 104.454L124.664 104.414C124.948 103.967 125.232 103.562 125.475 103.115C125.76 102.669 126.003 102.182 126.287 101.735L126.328 101.614C126.571 101.167 126.815 100.762 127.058 100.315L127.099 100.193C127.342 99.747 127.545 99.3412 127.789 98.8948C127.829 98.8136 127.87 98.7325 127.91 98.6513C128.113 98.2455 128.316 97.8397 128.519 97.4339L128.56 97.3933C128.762 96.9469 129.006 96.46 129.209 95.973C129.249 95.8918 129.29 95.8107 129.331 95.6889C129.493 95.2831 129.696 94.8773 129.858 94.4715C129.899 94.3498 129.939 94.228 130.02 94.1063C130.183 93.7411 130.345 93.3353 130.507 92.97C130.548 92.8077 130.629 92.686 130.67 92.5237C130.791 92.1584 130.954 91.7932 131.076 91.4686C131.157 91.3062 131.197 91.1439 131.238 90.9816C131.36 90.657 131.481 90.2917 131.603 89.9671C131.684 89.7236 131.765 89.5207 131.806 89.2772C131.887 88.9932 132.009 88.7091 132.09 88.3844C132.171 88.1815 132.212 87.9381 132.293 87.7352C132.374 87.4105 132.496 87.1264 132.577 86.8018C132.618 86.6395 132.658 86.5177 132.699 86.3554C132.821 85.9902 132.902 85.5844 133.023 85.2192C133.064 85.0974 133.105 84.9351 133.145 84.8134C133.226 84.4075 133.348 84.0423 133.429 83.6365C133.47 83.4336 133.51 83.2307 133.551 83.0684C133.632 82.7437 133.713 82.3785 133.794 82.0539C133.835 81.7698 133.916 81.4857 133.957 81.2017C133.997 80.9582 134.038 80.6741 134.119 80.4306C134.16 80.1872 134.2 79.9843 134.241 79.7408C134.281 79.4161 134.363 79.0915 134.403 78.7669C134.484 78.2393 134.565 77.6712 134.647 77.1436C134.687 76.7378 134.728 76.332 134.768 75.9262C134.768 75.7639 134.809 75.6421 134.809 75.4798C134.85 75.1552 134.85 74.8305 134.89 74.5465C134.931 74.303 134.931 74.0595 134.971 73.816C135.012 73.2479 135.052 72.6798 135.093 72.1116C135.134 71.5435 135.134 70.9754 135.174 70.4073C135.174 69.8391 135.215 69.271 135.215 68.7029V68.6623V68.6217C135.215 68.0942 135.215 67.6072 135.215 67.0796V67.0391H134.281C134.281 67.5666 134.322 68.1347 134.322 68.6623C134.322 104.901 104.982 134.322 68.7438 134.443V135.214H68.6221Z" fill="white"/>
<path fill-rule="evenodd" clip-rule="evenodd" d="M68.6221 129.33C102.101 129.209 129.209 102.02 129.209 68.5406C129.209 68.013 129.209 67.4449 129.168 66.9174H123.244C123.244 67.4449 123.284 68.013 123.284 68.5406C123.284 98.7731 98.814 123.324 68.6221 123.446V129.33Z" fill="white"/>
<path fill-rule="evenodd" clip-rule="evenodd" d="M68.6221 123.406C98.814 123.284 123.284 98.7732 123.284 68.5001C123.284 67.9725 123.284 67.4044 123.244 66.8768H117.319C117.319 67.4044 117.359 67.9725 117.359 68.5001C117.359 95.4861 95.527 117.359 68.6221 117.481V123.406Z" fill="#E21C2A"/>
<path fill-rule="evenodd" clip-rule="evenodd" d="M118.333 66.8768H117.359C117.359 67.4044 117.399 67.9725 117.399 68.5001C117.399 95.4861 95.567 117.359 68.6621 117.481V118.455C96.1352 118.333 118.414 96.0137 118.414 68.5001C118.373 67.9725 118.333 67.4044 118.333 66.8768Z" fill="white"/>
<path fill-rule="evenodd" clip-rule="evenodd" d="M68.2967 135.215C31.5307 135.133 1.78516 105.266 1.78516 68.5001C1.78516 67.9725 1.78516 67.4044 1.82574 66.8768H7.70992H13.6347H19.5594C19.5594 67.4044 19.5189 67.9725 19.5189 68.5001C19.5189 95.4861 41.3512 117.359 68.2561 117.481V123.406V129.33V135.215H68.2967Z" fill="#E21C2A"/>
<path fill-rule="evenodd" clip-rule="evenodd" d="M68.0939 135.215C49.7921 135.093 33.2352 127.626 21.2639 115.614C20.5335 114.843 19.7625 114.072 19.0726 113.301L19.032 113.26C18.6668 112.855 18.3421 112.489 17.9769 112.084C17.6117 111.678 17.287 111.272 16.9624 110.866C16.6377 110.46 16.3131 110.055 15.9885 109.649L15.9073 109.527C15.6232 109.162 15.3392 108.756 15.0145 108.391L14.9334 108.269C14.6493 107.863 14.3652 107.498 14.0812 107.092L14.0406 107.052C13.4319 106.199 12.8638 105.347 12.2956 104.454L12.255 104.414C11.971 103.967 11.6869 103.562 11.4434 103.115C11.1594 102.669 10.9159 102.182 10.6318 101.736L10.5912 101.614C10.3478 101.167 10.1043 100.762 9.8608 100.315L9.82022 100.193C9.57673 99.7471 9.37383 99.3413 9.13035 98.8949C9.08976 98.8137 9.04918 98.7326 9.0086 98.6514C8.8057 98.2456 8.6028 97.8398 8.3999 97.434L8.35932 97.3934C8.15641 96.947 7.91293 96.4601 7.71003 95.9731C7.66945 95.8919 7.62886 95.8108 7.58828 95.689C7.42596 95.2832 7.22306 94.8774 7.06074 94.4716C7.02016 94.3499 6.97958 94.2281 6.89841 94.1064C6.73609 93.7412 6.57377 93.3354 6.41145 92.9701C6.37087 92.8078 6.28971 92.6861 6.24913 92.5238C6.12738 92.1585 5.96506 91.7933 5.84332 91.4687C5.76216 91.3063 5.72158 91.144 5.681 90.9817C5.55926 90.657 5.43751 90.2918 5.31577 89.9672C5.23461 89.7237 5.15345 89.5208 5.11287 89.2773C5.03171 88.9932 4.90997 88.7092 4.82881 88.3845C4.74764 88.1816 4.70706 87.9381 4.6259 87.7352C4.54474 87.4106 4.423 87.1265 4.34184 86.8019C4.30126 86.6396 4.26068 86.5178 4.2201 86.3555C4.09836 85.9903 4.01719 85.5845 3.89545 85.2192C3.85487 85.0975 3.81429 84.9352 3.77371 84.8134C3.69255 84.4076 3.57081 84.0424 3.48965 83.6366C3.44907 83.4337 3.40849 83.2308 3.36791 83.0685C3.28674 82.7438 3.20558 82.3786 3.12442 82.054C3.08384 81.7699 3.00268 81.4858 2.9621 81.2018C2.92152 80.9583 2.88094 80.6742 2.79978 80.4307C2.7592 80.1873 2.71862 79.9844 2.67804 79.7409C2.63745 79.4162 2.55629 79.0916 2.51571 78.7669C2.43455 78.2394 2.35339 77.6713 2.27223 77.1437C2.23165 76.7379 2.19107 76.3321 2.15049 75.9263C2.15049 75.764 2.10991 75.6422 2.10991 75.4799C2.06933 75.1553 2.06933 74.8306 2.02875 74.5466C1.98817 74.3031 1.98817 74.0596 1.94759 73.8161C1.907 73.248 1.86642 72.6799 1.82584 72.1117C1.78526 71.5436 1.78526 70.9755 1.74468 70.4073C1.74468 69.8392 1.7041 69.2711 1.7041 68.703V68.6624V68.6218C1.7041 68.0942 1.7041 67.6073 1.7041 67.0797V67.0392H2.63745C2.63745 67.5667 2.59687 68.1348 2.59687 68.6624C2.59687 104.86 31.8149 134.2 67.9722 134.443V133.51C32.4642 133.104 3.69255 104.17 3.69255 68.5001C3.69255 67.9725 3.69255 67.4044 3.73313 66.8768H4.66648C4.66648 67.4044 4.6259 67.9725 4.6259 68.5001C4.6259 103.643 32.9917 132.171 68.0939 132.374V120.2C39.7281 119.956 16.8001 96.9065 16.8001 68.5001C16.8001 67.9725 16.8001 67.4044 16.8407 66.8768H17.774C17.774 67.4044 17.7334 67.9725 17.7334 68.5001C17.7334 96.3789 40.2556 119.023 68.0939 119.266V118.455C40.702 118.211 18.545 95.9325 18.545 68.5001C18.545 67.9725 18.545 67.4044 18.5856 66.8768H19.5596C19.5596 67.4044 19.519 67.9725 19.519 68.5001C19.519 95.405 41.2296 117.237 68.0533 117.481V117.44H68.9055V135.336H68.0533V135.215H68.0939Z" fill="#FFCC00"/>
<path fill-rule="evenodd" clip-rule="evenodd" d="M68.3375 1.745C104.657 1.745 134.159 30.7601 135.052 66.8362H1.62305C2.51582 30.7601 32.0585 1.745 68.3375 1.745Z" fill="#FFCC00"/>
<path fill-rule="evenodd" clip-rule="evenodd" d="M2.75977 65.9434H134.2C132.861 30.7195 103.887 2.71887 68.5003 2.71887C33.1546 2.71887 4.13951 30.7195 2.75977 65.9434Z" fill="white"/>
<path fill-rule="evenodd" clip-rule="evenodd" d="M68.4996 7.71033C101.532 7.71033 128.437 34.0471 129.289 66.8768H7.70996C8.60273 34.0471 35.4671 7.71033 68.4996 7.71033Z" fill="#FFCC00"/>
<path fill-rule="evenodd" clip-rule="evenodd" d="M8.68359 65.9434H128.275C126.935 34.0065 100.558 8.64368 68.4588 8.64368C36.4001 8.64368 10.0633 33.966 8.68359 65.9434Z" fill="#002ED3"/>
<path fill-rule="evenodd" clip-rule="evenodd" d="M68.3376 13.5945C98.0831 13.5945 122.35 37.2935 123.203 66.8362H13.4727C14.3248 37.2935 38.592 13.5945 68.3376 13.5945Z" fill="#FFCC00"/>
<path fill-rule="evenodd" clip-rule="evenodd" d="M14.6084 65.9435H122.35C121.011 37.253 97.3116 14.5685 68.4588 14.5685C39.6872 14.5685 15.9881 37.253 14.6084 65.9435Z" fill="#E21C2A"/>
<path fill-rule="evenodd" clip-rule="evenodd" d="M68.3782 19.5193C95.4049 19.5193 117.359 41.4734 117.359 68.5C117.359 95.5267 95.4049 117.481 68.3782 117.481C41.3515 117.481 19.3975 95.5267 19.3975 68.5C19.3975 41.4734 41.3515 19.5193 68.3782 19.5193Z" fill="#FFCC00"/>
<path fill-rule="evenodd" clip-rule="evenodd" d="M68.3781 20.3308C94.9584 20.3308 116.547 41.9197 116.547 68.4999C116.547 95.0802 94.9584 116.669 68.3781 116.669C41.7978 116.669 20.209 95.1208 20.209 68.4999C20.209 41.9197 41.7978 20.3308 68.3781 20.3308Z" fill="white"/>
<path fill-rule="evenodd" clip-rule="evenodd" d="M83.9612 99.4224C81.9322 101.289 79.7409 103.278 77.3466 104.576C76.4538 105.063 75.5611 105.428 74.6277 105.794C72.4364 106.646 70.8943 107.336 69.0682 108.878C68.7841 109.121 68.5 109.081 68.1754 108.837C66.3493 107.295 64.8072 106.605 62.6159 105.753C61.6825 105.388 60.7897 105.023 59.897 104.536C57.5027 103.237 55.3114 101.249 53.2823 99.3818L50.8069 99.6659L50.6446 99.1789C49.4272 95.2832 49.1837 91.1034 51.6185 87.6134L52.2678 86.6801L52.6736 87.7758C53.6881 90.657 55.3519 93.2136 57.6244 95.2832L58.3549 95.9325L57.4215 96.2571C56.6505 96.5412 56.0012 96.9876 55.5143 97.5963L58.7607 99.0572C60.1404 99.3006 61.439 100.072 62.8593 99.2601C65.6188 97.718 65.8623 91.0628 65.9029 88.4251L66.1058 77.3466L66.2275 73.8566L66.9174 53.1605H62.6159C62.1289 53.1605 61.6825 52.7547 61.6825 52.2272V50.3199C61.6825 49.8329 62.0883 49.3865 62.6159 49.3865H64.9695C63.5492 48.3315 62.6564 46.6677 62.6564 44.7604C62.6564 41.5545 65.2536 38.9979 68.4189 38.9979C71.6247 38.9979 74.1813 41.5951 74.1813 44.7604C74.1813 46.6677 73.248 48.3315 71.8682 49.3865H74.506C74.9929 49.3865 75.4393 49.7924 75.4393 50.3199V52.2678C75.4393 52.7547 75.0335 53.2011 74.506 53.2011H70.245L71.0566 77.4277L71.2595 88.5062C71.3001 91.1034 71.5436 97.7992 74.3031 99.3412C75.7234 100.153 77.022 99.3412 78.4017 99.1383L81.6481 97.6774C81.1612 97.0687 80.5119 96.6223 79.7409 96.3383L78.8075 96.0136L79.538 95.3643C81.8105 93.2947 83.4337 90.7381 84.4888 87.8569L84.8946 86.7613L85.5439 87.6946C87.9787 91.1845 87.7352 95.3643 86.5178 99.2601L86.3555 99.747L83.9612 99.4224ZM68.5 42.285C69.8798 42.285 71.016 43.4212 71.016 44.8009C71.016 46.1807 69.8798 47.3169 68.5 47.3169C67.1203 47.3169 65.984 46.1807 65.984 44.8009C65.984 43.4212 67.1203 42.285 68.5 42.285Z" fill="#2C2C2B"/>
<path fill-rule="evenodd" clip-rule="evenodd" d="M68.6622 52.1461H69.7173L70.4072 73.8972L70.5289 77.3872L70.7318 88.4657C70.9753 103.521 76.7783 99.95 78.645 99.6253L82.6219 97.8398C82.0132 96.8658 81.161 96.1354 80.0248 95.7296C82.3784 93.5382 84.0828 90.9411 85.1379 87.9787C87.0858 90.7788 87.451 94.4716 86.0307 99.0166L83.7582 98.7325C81.4857 100.843 79.3349 102.75 77.0624 104.008C74.3029 105.509 72.0304 105.55 68.7028 108.35C68.6216 108.391 68.6622 108.391 68.581 108.31C65.2534 105.509 62.9809 105.469 60.2214 103.967C57.9489 102.709 55.7982 100.802 53.5257 98.692L51.2531 98.976C49.8328 94.431 50.1981 90.7382 52.1459 87.9381C53.201 90.8599 54.8648 93.4977 57.2591 95.689C56.1228 96.0948 55.23 96.8658 54.6619 97.7992L58.6388 99.5847C60.5055 99.8688 66.3085 103.44 66.552 88.4251L66.7549 77.3466L66.8767 73.8567L67.5665 52.1055H68.6622V52.1461Z" fill="#FFCC00"/>
<path fill-rule="evenodd" clip-rule="evenodd" d="M68.9465 55.2302V103.765C70.7726 103.724 72.3553 103.521 73.7756 103.196C75.3177 102.831 76.6568 102.344 77.8337 101.695C79.2134 100.965 80.5526 99.9906 81.6482 98.8543C82.6222 97.8398 83.4744 96.7036 84.0019 95.405C84.4077 94.4311 84.6918 93.3354 84.8135 92.0774C84.9353 91.0223 84.9758 89.9266 84.8947 88.7498C84.8947 88.6686 84.8541 88.628 84.8947 88.5469L85.1382 87.9382L85.4628 88.5469C85.5034 88.5874 85.4628 88.6686 85.4628 88.7092C85.544 89.9266 85.5034 91.0629 85.3816 92.1585C85.2193 93.4571 84.9353 94.634 84.5295 95.6485C83.9613 96.9876 83.0686 98.205 82.054 99.3007C80.8772 100.478 79.4975 101.492 78.0771 102.263C76.8597 102.912 75.48 103.44 73.8974 103.805C72.4365 104.13 70.8132 104.333 68.9465 104.373V107.701H68.3378V104.373C66.4711 104.333 64.8479 104.13 63.387 103.805C61.8043 103.44 60.4246 102.912 59.2072 102.263C57.7869 101.492 56.4071 100.518 55.2303 99.3007C54.1752 98.2456 53.323 97.0282 52.7549 95.6485C52.3085 94.634 52.0244 93.4571 51.9027 92.1585C51.7809 91.0629 51.7404 89.9672 51.8215 88.7092C51.8215 88.6686 51.8215 88.5874 51.8215 88.5469L52.1462 87.9382L52.3897 88.5469C52.4302 88.628 52.3897 88.6686 52.3897 88.7498C52.3085 89.9266 52.3491 91.0629 52.4708 92.0774C52.5926 93.2948 52.8766 94.4311 53.2824 95.405C53.81 96.7036 54.6622 97.8398 55.6361 98.8543C56.7724 99.9906 58.1115 100.965 59.4507 101.695C60.6275 102.344 61.9667 102.831 63.5087 103.196C64.929 103.521 66.5117 103.724 68.3378 103.765V55.2302H68.9465Z" fill="#2C2C2B"/>
<path fill-rule="evenodd" clip-rule="evenodd" d="M68.6215 49.9953H74.5462C74.7086 49.9953 74.8709 50.1576 74.8709 50.32V52.2678C74.8709 52.4302 74.7086 52.5925 74.5462 52.5925H68.6215H62.6967C62.5344 52.5925 62.3721 52.4302 62.3721 52.2678V50.32C62.3721 50.1576 62.5344 49.9953 62.6967 49.9953H68.6215ZM68.4997 39.6067C71.381 39.6067 73.6941 41.9198 73.6941 44.801C73.6941 47.6822 71.381 49.9953 68.4997 49.9953C65.6185 49.9953 63.3054 47.6822 63.3054 44.801C63.3054 41.9198 65.6591 39.6067 68.4997 39.6067ZM68.4997 41.6357C70.2447 41.6357 71.665 43.056 71.665 44.801C71.665 46.546 70.2447 47.9663 68.4997 47.9663C66.7548 47.9663 65.3345 46.546 65.3345 44.801C65.3345 43.056 66.7548 41.6357 68.4997 41.6357Z" fill="#FFCC00"/>
<path fill-rule="evenodd" clip-rule="evenodd" d="M73.9781 68.013L73.897 68.0536L73.6535 67.9319C73.3288 67.7695 72.9636 67.6884 72.639 67.526L71.665 67.0391L72.5984 66.471C74.0999 65.5782 75.5608 64.1579 76.7782 62.8999C77.955 61.7636 79.1319 60.5462 80.3899 59.4911C81.8508 58.2737 83.1899 57.7056 85.0972 57.5432C85.3001 57.5432 85.4624 57.5026 85.6653 57.5026C87.4915 57.4215 89.3176 57.9896 91.022 58.5577C95.2018 59.9375 99.2192 62.0071 103.48 63.1028C105.266 63.3868 107.619 63.5897 109.364 62.9404C109.892 62.7781 110.541 62.697 110.906 63.1839C111.312 63.7521 110.988 64.4825 110.622 64.9289C110.379 65.213 110.095 65.497 109.811 65.7405L109.648 66.1463C109.202 67.3637 108.35 68.1753 107.214 68.4188C106.645 69.9609 105.753 70.4884 104.251 70.4479C103.683 71.9899 102.628 72.1117 101.289 72.0305L101.248 72.1117C100.68 73.1667 99.3816 73.3291 98.0018 73.1262C97.7178 73.6131 97.312 73.9784 96.7844 74.1407C95.7699 74.5059 94.5931 74.1813 93.4974 73.7755C93.4162 73.8972 93.3756 74.0189 93.2133 74.1001C91.9553 74.9117 90.2509 74.5465 88.7495 73.8972C88.6683 74.0189 88.6277 74.1001 88.4654 74.1813C84.9755 76.1291 81.8102 72.1117 78.9695 70.8537C78.7261 70.7319 78.442 70.6508 78.3608 70.4073C77.9144 70.3261 77.5086 70.0826 76.8999 69.7174L73.9781 68.013Z" fill="#2C2C2B"/>
<path fill-rule="evenodd" clip-rule="evenodd" d="M73.8563 67.4043C73.5317 67.2419 73.1664 67.1608 72.8418 66.9985C75.3984 65.4564 78.3202 61.9665 80.755 59.978C82.0942 58.8418 83.3522 58.3142 85.0971 58.1519C85.2594 58.1519 85.4624 58.1113 85.6247 58.1113C87.3696 58.0301 89.1552 58.5983 90.7784 59.1258C94.9582 60.465 99.0568 62.6157 103.318 63.6708C106.158 64.1172 108.147 63.9955 109.527 63.4679C111.19 62.8998 110.46 64.9288 108.553 65.7405C107.295 66.268 105.956 66.0245 104.657 65.781C101.938 65.2941 99.2192 64.3607 96.4191 63.1839C94.0249 62.1694 91.7929 60.8302 89.2769 60.0592C86.8827 59.3287 84.8536 59.1664 83.1493 59.9374C80.4709 61.1548 78.0767 65.2535 73.8563 67.4043Z" fill="#FFCC00"/>
<path fill-rule="evenodd" clip-rule="evenodd" d="M82.2156 60.9925C85.8273 58.0707 91.3463 61.236 95.0391 62.9404C95.4449 63.1433 95.5261 63.1027 95.5261 63.5491C95.4855 63.7926 95.2014 63.9549 94.8362 64.0361C94.0652 64.1984 93.497 63.9143 92.7666 63.6303C89.3984 62.3723 86.0708 60.7896 82.378 61.1549C82.0127 61.1549 81.891 61.236 82.2156 60.9925Z" fill="#FFCC00"/>
<path fill-rule="evenodd" clip-rule="evenodd" d="M94.3086 64.4418C95.3231 64.3201 95.9318 63.9954 95.9724 63.3867C98.8942 64.7259 102.831 66.065 106.483 66.4303C107.538 66.5114 108.187 66.3085 109.039 66.0245C108.552 67.4448 107.416 68.0941 105.996 68.0129C102.181 67.7288 98.7319 66.7955 94.3086 64.4418Z" fill="#FFCC00"/>
<path fill-rule="evenodd" clip-rule="evenodd" d="M80.4301 62.494C80.8765 62.1288 81.1606 61.6824 81.7287 61.6013C85.2998 60.952 89.7231 62.8593 92.8478 64.0767C93.7 64.4013 93.1724 65.0506 92.5231 65.1723C91.7521 65.3347 91.184 65.2535 90.4535 64.9694C87.0853 63.7114 84.407 61.8042 80.5518 62.6563C80.2272 62.7375 80.0649 62.7781 80.4301 62.494Z" fill="#FFCC00"/>
<path fill-rule="evenodd" clip-rule="evenodd" d="M91.834 65.5782C92.8891 65.5376 93.6195 65.213 93.6601 64.6042C96.379 65.8217 101.533 68.5811 106.686 68.2565C106.2 69.6768 105.428 70.0015 104.008 69.9203C102.466 69.7986 100.965 69.3928 99.382 68.8652C97.0283 68.1348 94.4717 66.9985 91.834 65.5782Z" fill="#FFCC00"/>
<path fill-rule="evenodd" clip-rule="evenodd" d="M78.9699 63.8737C79.4163 63.5085 79.741 63.1433 80.2685 63.0216C83.8802 62.1288 87.0455 63.9549 90.1702 65.2535C91.0224 65.6187 90.576 66.1463 89.9267 66.268C89.1557 66.4303 88.5875 66.3492 87.8571 66.0651C84.4889 64.8071 82.9874 63.1839 79.1322 64.0361C78.8076 64.0766 78.6453 64.1578 78.9699 63.8737Z" fill="#FFCC00"/>
<path fill-rule="evenodd" clip-rule="evenodd" d="M89.1953 66.6738C90.2504 66.6332 90.9809 66.3085 91.0214 65.6998C92.8881 66.4709 98.61 69.6767 103.683 70.2449C103.196 71.6652 102.181 71.5434 100.761 71.4623C98.0419 71.3 91.5896 67.9723 89.1953 66.6738Z" fill="#FFCC00"/>
<path fill-rule="evenodd" clip-rule="evenodd" d="M77.7518 65.0912C78.1982 64.7259 78.1576 64.6042 78.6851 64.4419C82.5403 63.3462 84.6505 65.1317 87.7752 66.4303C88.6274 66.7956 88.3839 67.1608 87.7346 67.2825C86.9636 67.4448 86.4766 67.1202 85.7461 66.8767C82.4185 65.8216 81.9316 64.9288 77.9141 65.2129C77.5489 65.2535 77.4271 65.3347 77.7518 65.0912Z" fill="#FFCC00"/>
<path fill-rule="evenodd" clip-rule="evenodd" d="M87.0049 67.7289C88.0194 67.6883 88.6281 67.4042 88.6687 66.7955C90.089 67.4042 93.8224 69.5956 97.6776 71.0159C98.6515 71.3811 99.7066 71.7869 100.681 71.8681C99.0573 74.9116 89.0745 68.4188 87.0049 67.7289Z" fill="#FFCC00"/>
<path fill-rule="evenodd" clip-rule="evenodd" d="M76.6972 65.9027C77.1436 65.5375 77.0625 65.5375 77.59 65.4969C82.2974 65.294 82.7437 66.3085 85.4221 67.2013C86.3148 67.4854 85.8684 67.9723 85.2192 68.0129C82.7843 68.2158 80.0248 65.6592 77.0219 66.065C76.6972 66.1056 76.332 66.1868 76.6972 65.9027Z" fill="#FFCC00"/>
<path fill-rule="evenodd" clip-rule="evenodd" d="M84.7314 68.5C85.746 68.4594 86.2329 68.2971 86.2329 67.6884C89.6823 69.0681 93.9838 72.1522 97.5143 72.7609C97.3114 73.1667 96.9868 73.4508 96.581 73.6131C95.323 74.1001 93.5374 73.1667 92.4418 72.6392C89.3576 71.2189 85.8677 68.8652 84.7314 68.5Z" fill="#FFCC00"/>
<path fill-rule="evenodd" clip-rule="evenodd" d="M82.3781 69.1086C83.1491 69.0275 83.5955 68.8246 83.839 68.3782C87.0043 69.9202 89.7638 72.0304 93.0102 73.4102C92.9696 73.4913 92.9291 73.5725 92.8885 73.6131C90.129 75.358 84.2854 70.4478 82.2564 69.2709C81.8506 69.068 82.0129 69.1492 82.3781 69.1086Z" fill="#FFCC00"/>
<path fill-rule="evenodd" clip-rule="evenodd" d="M79.2133 70.1232C79.9843 70.042 80.7148 69.6768 81.0394 69.3115C81.08 69.2304 81.1206 69.1898 81.1612 69.1086C81.3235 69.1898 81.4858 69.271 81.6076 69.3927C84.1236 70.8942 85.1787 72.2333 88.3034 73.4913C88.2628 73.5725 88.2222 73.6537 88.1816 73.6942C85.0569 75.4392 81.851 71.5029 79.2133 70.3261C78.8075 70.1637 78.7669 70.1637 79.2133 70.1232Z" fill="#FFCC00"/>
<path fill-rule="evenodd" clip-rule="evenodd" d="M75.8044 66.6332C76.2508 66.268 76.1696 66.3897 76.6972 66.3492C77.5494 66.3086 78.4016 66.268 79.1726 66.5115C80.39 66.8767 81.5263 67.6072 82.8654 67.9318C83.1901 68.013 83.3524 68.0941 83.3524 68.1753C83.4335 68.4999 82.3784 68.9869 81.5668 68.8246C79.8219 68.4594 78.8885 67.3231 76.129 66.8361C75.8044 66.755 75.4797 66.9173 75.8044 66.6332Z" fill="#FFCC00"/>
<path fill-rule="evenodd" clip-rule="evenodd" d="M77.1843 69.2303L74.4248 67.6071L75.3582 66.9984C75.764 66.9984 76.6567 67.2013 77.6307 67.6071C78.564 68.0129 79.7003 68.3781 80.2278 68.8651C80.7148 69.3115 80.2278 69.5144 79.3756 69.7579C78.3205 70.0014 78.1176 69.7579 77.1843 69.2303Z" fill="#FFCC00"/>
<path fill-rule="evenodd" clip-rule="evenodd" d="M62.8594 68.013L62.9405 68.0536L63.184 67.9319C63.5087 67.7695 63.8739 67.6884 64.1985 67.526L65.1725 67.0391L64.2391 66.471C62.7376 65.5782 61.2767 64.1579 60.0593 62.8999C58.8825 61.7636 57.7057 60.5462 56.4477 59.4911C54.9868 58.2737 53.6476 57.7056 51.7403 57.5432C51.5374 57.5432 51.3751 57.5026 51.1722 57.5026C49.3461 57.4215 47.5199 57.9896 45.8155 58.5577C41.6357 59.9375 37.6588 62.0071 33.3573 63.1028C31.5718 63.3868 29.2181 63.5897 27.4731 62.9404C26.9456 62.7781 26.2963 62.697 25.9311 63.1839C25.5253 63.7521 25.8499 64.4825 26.2151 64.9289C26.4586 65.213 26.7427 65.497 27.0267 65.7405L27.1891 66.1463C27.6355 67.3637 28.4876 68.1753 29.6239 68.4188C30.192 69.9609 31.0848 70.4884 32.5863 70.4479C33.1544 71.9899 34.2095 72.1117 35.5487 72.0305L35.5892 72.1117C36.1574 73.1667 37.4559 73.3291 38.8357 73.1262C39.1198 73.6131 39.5256 73.9784 40.0531 74.1407C41.0676 74.5059 42.2445 74.1813 43.3401 73.7755C43.4213 73.8972 43.4619 74.0189 43.6242 74.1001C44.8822 74.9117 46.5866 74.5465 48.0881 73.8972C48.1692 74.0189 48.2098 74.1001 48.3721 74.1813C51.862 76.1291 55.0273 72.1117 57.868 70.8537C58.1115 70.7319 58.3955 70.6508 58.4767 70.4073C58.9231 70.3261 59.3289 70.0826 59.9376 69.7174L62.8594 68.013Z" fill="#2C2C2B"/>
<path fill-rule="evenodd" clip-rule="evenodd" d="M62.9816 67.4043C63.3062 67.2419 63.6715 67.1608 63.9961 66.9985C61.4395 65.4564 58.5177 61.9665 56.0829 59.978C54.7437 58.8418 53.4857 58.3142 51.7408 58.1519C51.5784 58.1519 51.3755 58.1113 51.2132 58.1113C49.4683 58.0301 47.6827 58.5983 46.0595 59.1258C41.8797 60.465 37.7811 62.6157 33.5201 63.6708C30.6795 64.1172 28.691 63.9955 27.3113 63.4679C25.6475 62.8998 26.3779 64.9288 28.2852 65.7405C29.5432 66.268 30.8824 66.0245 32.1809 65.781C34.8998 65.2941 37.6187 64.3607 40.4188 63.1839C42.813 62.1694 45.045 60.8302 47.561 60.0592C49.9552 59.3287 51.9843 59.1664 53.6886 59.9374C56.367 61.1548 58.7612 65.2535 62.9816 67.4043Z" fill="#FFCC00"/>
<path fill-rule="evenodd" clip-rule="evenodd" d="M54.622 60.9925C51.0103 58.0707 45.4913 61.236 41.7985 62.9404C41.3927 63.1433 41.3115 63.1027 41.3115 63.5491C41.3521 63.7926 41.6362 63.9549 42.0014 64.0361C42.7724 64.1984 43.3405 63.9143 44.071 63.6303C47.4392 62.3723 50.7668 60.7896 54.4596 61.1549C54.7843 61.1549 54.9466 61.236 54.622 60.9925Z" fill="#FFCC00"/>
<path fill-rule="evenodd" clip-rule="evenodd" d="M42.4886 64.4418C41.474 64.3201 40.8653 63.9954 40.8248 63.3867C37.903 64.7259 33.9666 66.065 30.3144 66.4303C29.2593 66.5114 28.61 66.3085 27.7578 66.0245C28.2448 67.4448 29.381 68.0941 30.8014 68.0129C34.6565 67.7288 38.1059 66.7955 42.4886 64.4418Z" fill="#FFCC00"/>
<path fill-rule="evenodd" clip-rule="evenodd" d="M56.4075 62.494C55.9611 62.1288 55.6771 61.6824 55.109 61.6013C51.5379 60.952 47.1146 62.8593 43.9899 64.0767C43.1377 64.4013 43.6652 65.0506 44.3145 65.1723C45.0856 65.3347 45.6537 65.2535 46.3841 64.9694C49.7523 63.7114 52.4306 61.8042 56.2858 62.6563C56.5699 62.7375 56.7322 62.7781 56.4075 62.494Z" fill="#FFCC00"/>
<path fill-rule="evenodd" clip-rule="evenodd" d="M45.0048 65.5782C43.9497 65.5376 43.2193 65.213 43.1787 64.6042C40.4598 65.8217 35.3061 68.5811 30.1523 68.2565C30.6393 69.6768 31.4103 70.0015 32.8307 69.9203C34.3727 69.7986 35.8742 69.3928 37.4568 68.8652C39.8105 68.1348 42.3671 66.9985 45.0048 65.5782Z" fill="#FFCC00"/>
<path fill-rule="evenodd" clip-rule="evenodd" d="M57.868 63.8737C57.4216 63.5085 57.097 63.1433 56.5694 63.0216C52.9578 62.1288 49.7925 63.9549 46.6678 65.2535C45.8156 65.6187 46.262 66.1463 46.9113 66.268C47.6823 66.4303 48.2504 66.3492 48.9809 66.0651C52.3491 64.8071 53.8505 63.1839 57.7057 64.0361C58.0303 64.0766 58.1927 64.1578 57.868 63.8737Z" fill="#FFCC00"/>
<path fill-rule="evenodd" clip-rule="evenodd" d="M47.6015 66.6738C46.5464 66.6332 45.816 66.3085 45.7754 65.6998C43.9087 66.4709 38.1868 69.6767 33.1143 70.2449C33.6012 71.6652 34.6157 71.5434 36.0361 71.4623C38.7955 71.3 45.2478 67.9723 47.6015 66.6738Z" fill="#FFCC00"/>
<path fill-rule="evenodd" clip-rule="evenodd" d="M59.0858 65.0912C58.6394 64.7259 58.68 64.6042 58.1524 64.4419C54.2973 63.3462 52.1871 65.1317 49.0624 66.4303C48.2102 66.7956 48.4537 67.1608 49.103 67.2825C49.874 67.4448 50.361 67.1202 51.0914 66.8767C54.419 65.8216 54.906 64.9288 58.9235 65.2129C59.2481 65.2535 59.4104 65.3347 59.0858 65.0912Z" fill="#FFCC00"/>
<path fill-rule="evenodd" clip-rule="evenodd" d="M49.7928 67.7289C48.7783 67.6883 48.1696 67.4042 48.129 66.7955C46.7087 67.4042 42.9753 69.5956 39.1202 71.0159C38.1462 71.3811 37.0911 71.7869 36.1172 71.8681C37.781 74.9116 47.7638 68.4188 49.7928 67.7289Z" fill="#FFCC00"/>
<path fill-rule="evenodd" clip-rule="evenodd" d="M60.1411 65.9027C59.6947 65.5375 59.7759 65.5375 59.2484 65.4969C54.541 65.294 54.0946 66.3085 51.4163 67.2013C50.5235 67.4854 50.9699 67.9723 51.6192 68.0129C54.054 68.2158 56.8135 65.6592 59.8165 66.065C60.1005 66.1056 60.4658 66.1868 60.1411 65.9027Z" fill="#FFCC00"/>
<path fill-rule="evenodd" clip-rule="evenodd" d="M52.1061 68.5C51.0916 68.4594 50.6046 68.2971 50.6046 67.6884C47.1553 69.0681 42.8538 72.1522 39.3232 72.7609C39.5261 73.1667 39.8508 73.4508 40.2566 73.6131C41.5146 74.1001 43.3001 73.1667 44.3958 72.6392C47.4394 71.2189 50.9699 68.8652 52.1061 68.5Z" fill="#FFCC00"/>
<path fill-rule="evenodd" clip-rule="evenodd" d="M54.4593 69.1086C53.6882 69.0275 53.2418 68.8246 52.9984 68.3782C49.8331 69.9202 47.0736 72.0304 43.8271 73.4102C43.8677 73.4913 43.9083 73.5725 43.9489 73.6131C46.7084 75.358 52.552 70.4478 54.581 69.2709C54.9868 69.068 54.8245 69.1492 54.4593 69.1086Z" fill="#FFCC00"/>
<path fill-rule="evenodd" clip-rule="evenodd" d="M57.6252 70.1232C56.8542 70.042 56.1237 69.6768 55.7991 69.3115C55.7585 69.2304 55.7179 69.1898 55.6773 69.1086C55.515 69.1898 55.3527 69.271 55.231 69.3927C52.715 70.8942 51.6599 72.2333 48.5352 73.4913C48.5757 73.5725 48.6163 73.6537 48.6569 73.6942C51.7816 75.4392 54.9875 71.5029 57.6252 70.3261C57.9904 70.1637 58.0716 70.1637 57.6252 70.1232Z" fill="#FFCC00"/>
<path fill-rule="evenodd" clip-rule="evenodd" d="M61.0338 66.6332C60.5875 66.268 60.6686 66.3897 60.1411 66.3492C59.2889 66.3086 58.4367 66.268 57.6657 66.5115C56.4482 66.8767 55.312 67.6072 53.9728 67.9318C53.6482 68.013 53.4859 68.0941 53.4859 68.1753C53.4047 68.4999 54.4598 68.9869 55.2714 68.8246C57.0164 68.4594 57.9497 67.3231 60.7092 66.8361C61.0338 66.755 61.3585 66.9173 61.0338 66.6332Z" fill="#FFCC00"/>
<path fill-rule="evenodd" clip-rule="evenodd" d="M59.654 69.2303L62.4135 67.6071L61.4801 66.9984C61.0743 66.9984 60.1815 67.2013 59.2076 67.6071C58.2742 68.0129 57.138 68.3781 56.6104 68.8651C56.1235 69.3115 56.6104 69.5144 57.4626 69.7579C58.5177 70.0014 58.7206 69.7579 59.654 69.2303Z" fill="#FFCC00"/>
<path fill-rule="evenodd" clip-rule="evenodd" d="M83.7181 86.0714L41.1896 42.4879C40.2969 41.514 39.7693 40.4995 39.6881 39.2009C39.6476 38.8762 39.6476 38.6327 39.607 38.2675L39.5664 37.6588L40.3374 37.6994C40.7027 37.6994 41.0679 37.6994 41.4331 37.74C42.6099 37.8617 43.5433 38.3893 44.4361 39.2415L88.0196 81.7699C85.0978 84.9758 85.7877 83.0279 83.7181 86.0714Z" fill="#2C2C2B"/>
<path fill-rule="evenodd" clip-rule="evenodd" d="M93.2138 93.66C93.9037 94.4716 94.7153 95.202 95.7704 95.4861C96.298 95.6484 96.6226 95.6484 97.0284 95.202C97.1096 95.1209 97.1907 95.0397 97.3125 94.918C97.6777 94.5528 97.7994 94.3499 97.7589 93.7817C97.6777 92.402 96.9067 91.5092 95.811 90.8599C95.811 90.657 95.7704 90.4541 95.6081 90.2918L95.2429 89.9266C95.04 89.7237 94.7965 89.6831 94.553 89.7237L88.4659 82.7844L87.3702 81.3235L86.5586 83.1496L83.5557 85.0569L84.6513 85.9497L85.3412 86.6395L91.9153 92.4426C91.8747 92.686 91.9153 92.9295 92.1182 93.0919L92.4834 93.4571C92.6457 93.7411 92.9704 93.7817 93.2138 93.66Z" fill="#2C2C2B"/>
<path fill-rule="evenodd" clip-rule="evenodd" d="M86.6805 83.7989L86.3964 86.8425L85.7472 86.2338L85.0573 85.5439L84.5703 85.1787L86.6805 83.7989ZM94.0662 91.2252L94.1473 90.1701L94.5937 90.6976L94.0662 91.2252ZM93.7821 89.8049L93.6198 91.6716L92.7676 92.5238L92.6459 92.402L92.9705 88.8715L93.7821 89.8049ZM92.6459 88.4657L92.3212 92.0774L91.5096 91.3469L91.8748 87.5324L92.6459 88.4657ZM91.5096 87.1671L91.1444 91.0629L90.3328 90.3324L90.7386 86.2744L91.5096 87.1671ZM90.3328 85.828L89.927 89.9672L89.1153 89.2367L89.5211 84.8946L90.3328 85.828ZM89.1965 84.5294L88.7907 88.9527L87.9791 88.2222L88.4255 83.596L89.1965 84.5294ZM88.0197 83.1902L87.5733 87.857L86.7617 87.1265L87.1269 83.3526L87.5327 82.5004L88.0197 83.1902Z" fill="#FFCC00"/>
<path fill-rule="evenodd" clip-rule="evenodd" d="M93.3359 92.8484L94.5128 91.5904L94.5534 91.6309C94.878 91.8744 95.2838 92.1991 95.6085 92.6049C95.9737 93.0107 96.2577 93.4976 96.3389 94.1064C96.3389 94.1875 96.4606 94.2687 96.5418 94.2687C96.623 94.2687 96.7041 94.1469 96.7041 94.0658C96.623 93.4165 96.2983 92.8484 95.8925 92.402C95.5273 91.9556 95.0809 91.5904 94.7563 91.3469L94.9997 91.1034C96.2577 91.7121 97.1505 92.5237 97.2317 93.8629C97.2317 94.2281 97.1911 94.2687 96.9476 94.5527C96.8664 94.6339 96.7853 94.7151 96.6635 94.8368C96.4201 95.0803 96.3389 95.0397 95.9737 94.9585C95.0403 94.6745 94.1475 94.0252 93.3359 92.8484Z" fill="#FFCC00"/>
<path fill-rule="evenodd" clip-rule="evenodd" d="M95.1618 89.886C94.8777 89.6019 94.3907 89.6425 94.1067 89.9672L92.0776 92.2397C91.7936 92.5237 91.8341 93.0107 92.1182 93.2948L92.4834 93.6194C92.7675 93.9035 93.2545 93.8629 93.5385 93.5383L95.5676 91.2657C95.8516 90.9817 95.811 90.4947 95.527 90.2107L95.1618 89.886Z" fill="#2C2C2B"/>
<path fill-rule="evenodd" clip-rule="evenodd" d="M94.7965 90.3323L95.1618 90.657C95.2023 90.6975 95.2023 90.7787 95.1618 90.8599L93.1327 93.1324C93.0922 93.2135 92.9704 93.2135 92.9298 93.173L92.5646 92.8483C92.524 92.8077 92.524 92.7266 92.5646 92.6454L94.5936 90.3729C94.6342 90.2917 94.7154 90.2917 94.7965 90.3323Z" fill="#FFCC00"/>
<path fill-rule="evenodd" clip-rule="evenodd" d="M85.7878 84.6917L70.9759 69.5552L40.2564 38.7951C40.2159 40.1343 40.6622 41.1082 41.5956 42.1227L83.9211 85.5033L85.7878 84.6917ZM86.5994 83.8801L71.4629 69.0682L40.7434 38.3487C42.0826 38.3081 43.0565 38.7545 44.071 39.6879L87.4516 82.0134L86.5994 83.8801Z" fill="#D9DBDC"/>
<path fill-rule="evenodd" clip-rule="evenodd" d="M90.3737 78.4423C91.1042 78.4828 91.9158 78.0365 92.3622 77.5901C92.9709 76.9814 93.6607 75.6016 92.8897 74.8306C92.1593 74.1001 90.6984 74.6683 90.0491 75.3176C89.5621 75.8045 89.1563 76.6567 89.2375 77.3872L83.3939 81.5264L79.2547 87.37C78.5242 87.2888 77.672 87.6946 77.185 88.1816C76.5763 88.7903 75.9676 90.2512 76.6981 91.0222C77.4285 91.7527 78.8488 91.1034 79.4576 90.4947C79.9039 90.0483 80.3503 89.2367 80.3097 88.5063L86.5186 84.6917L90.3737 78.4423Z" fill="#2C2C2B"/>
<path fill-rule="evenodd" clip-rule="evenodd" d="M86.1532 84.2047L79.7009 88.1816C79.9443 88.5469 79.7414 89.3991 79.0921 90.0483C78.4023 90.7382 77.4689 90.9005 77.1849 90.5759C76.9008 90.2918 76.982 89.2773 77.6718 88.5875C78.2805 87.9787 79.1733 87.8164 79.5791 88.0599L83.8807 81.9728L90.0083 77.6713C89.8054 77.3061 89.9272 76.4133 90.5359 75.764C91.2257 75.0741 92.2403 74.993 92.5243 75.277C92.8084 75.5611 92.6461 76.4944 91.9968 77.1843C91.3475 77.8336 90.4953 77.9959 90.1301 77.793L86.1532 84.2047Z" fill="#FFCC00"/>
<path fill-rule="evenodd" clip-rule="evenodd" d="M80.7147 86.8018C80.6335 86.883 80.6335 87.0047 80.6741 87.0859C80.7553 87.1671 80.877 87.1265 80.9582 87.0453L85.0568 83.2713L85.5438 84.0018C85.6249 84.0829 85.909 84.0423 85.9902 84.0018C86.0713 83.9206 86.0713 83.6771 85.9902 83.596L85.2597 83.109L88.9526 79.0104C89.0337 78.9292 89.1149 78.848 89.0337 78.7669C88.9525 78.6857 88.8714 78.8075 88.7902 78.8886L84.8539 82.6626L84.3669 82.0133C84.2858 81.9322 84.0423 82.0133 84.0017 82.0945C83.9206 82.1756 83.88 82.338 83.9611 82.4191L84.651 82.8655L80.7147 86.8018Z" fill="#2C2C2B"/>
<path fill-rule="evenodd" clip-rule="evenodd" d="M43.7464 93.5788C43.0565 94.3904 42.2043 95.0803 41.1492 95.3644C40.5811 95.4861 40.297 95.5267 39.8912 95.0803C39.8101 94.9992 39.7289 94.918 39.6072 94.7963C39.2419 94.3904 39.1202 94.2281 39.1608 93.66C39.2419 92.2803 40.0536 91.3875 41.1492 90.7788C41.1492 90.5759 41.1898 90.373 41.3521 90.2106L41.7174 89.8454C41.9203 89.6425 42.2043 89.6019 42.4478 89.6831L48.6566 82.825L49.7929 81.4047L50.6045 83.2308L53.5669 85.2192L52.4306 86.0714L51.7408 86.7613L45.0855 92.4426C45.1261 92.6861 45.045 92.9295 44.8826 93.0919L44.5174 93.4571C44.3551 93.66 44.0304 93.7006 43.7464 93.5788Z" fill="#2C2C2B"/>
<path fill-rule="evenodd" clip-rule="evenodd" d="M50.4832 83.8395L50.7267 86.883L51.4165 86.3149L52.1064 85.625L52.5934 85.2598L50.4832 83.8395ZM42.9758 91.144L42.8946 90.0889L42.4482 90.5758L42.9758 91.144ZM43.2599 89.6831L43.4222 91.5498L44.2744 92.402L44.3961 92.2802L44.112 88.7497L43.2599 89.6831ZM44.4367 88.3845L44.7208 91.9962L45.5729 91.2657L45.2889 87.4511L44.4367 88.3845ZM45.6135 87.1265L45.8976 91.0222L46.7498 90.2918L46.4251 86.2337L45.6135 87.1265ZM46.7904 85.8279L47.115 89.9671L47.9672 89.2367L47.6426 84.8946L46.7904 85.8279ZM47.9672 84.5293L48.2918 88.9526L49.144 88.2222L48.7788 83.596L47.9672 84.5293ZM49.144 83.2308L49.5093 87.9381L50.3615 87.2077L50.0774 83.4337L49.7122 82.5409L49.144 83.2308Z" fill="#FFCC00"/>
<path fill-rule="evenodd" clip-rule="evenodd" d="M43.6655 92.7673L42.4886 91.5093L42.448 91.5498C42.1234 91.7933 41.7176 92.118 41.3524 92.5238C40.9871 92.9296 40.7031 93.4165 40.6219 94.0252C40.6219 94.1064 40.5002 94.1876 40.419 94.1876C40.3379 94.1876 40.2567 94.0658 40.2567 93.9847C40.3379 93.3354 40.7031 92.7673 41.0683 92.3209C41.4335 91.8745 41.8799 91.5498 42.2046 91.3064L42.0017 91.0629C40.7437 91.631 39.8509 92.4426 39.7291 93.7818C39.6886 94.147 39.7291 94.1876 40.0132 94.4716C40.0944 94.5528 40.1755 94.634 40.2973 94.7557C40.5408 94.9992 40.6219 94.9992 40.9871 94.8774C41.9205 94.5528 42.8133 93.9035 43.6655 92.7673Z" fill="#FFCC00"/>
<path fill-rule="evenodd" clip-rule="evenodd" d="M53.1209 86.0714L95.6493 42.4879C96.5421 41.514 97.0696 40.4995 97.1508 39.2009C97.1914 38.8762 97.1914 38.6327 97.232 38.2675L97.2725 37.6588L96.5015 37.6994C96.1363 37.6994 95.7711 37.6994 95.4058 37.74C94.229 37.8617 93.2956 38.3893 92.4029 39.2415L48.8193 81.7699C51.7411 84.9758 51.0107 83.0279 53.1209 86.0714Z" fill="#2C2C2B"/>
<path fill-rule="evenodd" clip-rule="evenodd" d="M41.8797 89.7643C42.2044 89.4802 42.6507 89.5614 42.9348 89.8454L44.9233 92.1585C45.2073 92.4832 45.1667 92.9296 44.8421 93.2136L44.4769 93.5383C44.1522 93.8223 43.7058 93.7412 43.4218 93.4571L41.4333 91.144C41.1898 90.8194 41.1898 90.373 41.5145 90.0889L41.8797 89.7643Z" fill="#2C2C2B"/>
<path fill-rule="evenodd" clip-rule="evenodd" d="M42.2453 90.2106L41.88 90.5353C41.8395 90.5758 41.8395 90.657 41.88 90.7382L43.8685 93.0513C43.9091 93.1324 44.0308 93.1324 44.0714 93.0918L44.4366 92.7672C44.4772 92.7266 44.4772 92.6455 44.4366 92.5643L42.4482 90.2512C42.4076 90.17 42.3264 90.17 42.2453 90.2106Z" fill="#FFCC00"/>
<path fill-rule="evenodd" clip-rule="evenodd" d="M51.0104 84.6917L65.8223 69.5552L96.5824 38.7951C96.6229 40.1343 96.1765 41.1082 95.2432 42.1227L52.8771 85.4628L51.0104 84.6917ZM50.2393 83.8801L65.3759 69.0682L96.0954 38.3487C94.7562 38.3081 93.7823 38.7545 92.7678 39.6879L49.4277 82.0134L50.2393 83.8801Z" fill="#D9DBDC"/>
<path fill-rule="evenodd" clip-rule="evenodd" d="M56.4481 88.5874C56.4075 89.3179 56.8539 90.1295 57.3003 90.5759C57.909 91.1846 59.2887 91.8745 60.0598 91.144C60.8308 90.4136 60.2627 88.9527 59.6134 88.3034C59.1264 87.8164 58.2742 87.4106 57.5438 87.4512L53.4857 81.5264L47.6827 77.306C47.7639 76.5756 47.3986 75.7234 46.9117 75.2364C46.303 74.5871 44.8421 73.9784 44.1116 74.7089C43.3406 75.4393 43.9899 76.8597 44.5986 77.4684C45.045 77.9148 45.8566 78.4017 46.587 78.3611L50.2799 84.6105L56.4481 88.5874Z" fill="#2C2C2B"/>
<path fill-rule="evenodd" clip-rule="evenodd" d="M50.767 84.2453L46.9118 77.7118C46.5466 77.9147 45.6944 77.7524 45.0857 77.1031C44.4364 76.4133 44.2741 75.4799 44.5581 75.1958C44.8828 74.9118 45.8567 74.9929 46.5466 75.6828C47.1553 76.3321 47.277 77.2249 47.0741 77.5901L53.1206 82.0134L57.341 88.1816C57.7062 87.9787 58.599 88.1005 59.2483 88.7498C59.8976 89.4396 59.9787 90.4541 59.6947 90.7382C59.37 91.0223 58.4367 90.8599 57.7874 90.1701C57.1787 89.5208 56.9758 88.6686 57.2193 88.3034L50.767 84.2453Z" fill="#FFCC00"/>
<path fill-rule="evenodd" clip-rule="evenodd" d="M48.2512 78.767C48.17 78.6858 48.0483 78.6452 47.9671 78.7264C47.8859 78.8075 47.9265 78.9293 48.0077 79.0104L51.7005 83.1496L50.9701 83.6366C50.8889 83.7178 50.9295 84.0018 50.9701 84.083C51.0512 84.1642 51.2947 84.1642 51.3759 84.083L51.8628 83.3526L55.9209 87.086C56.002 87.1671 56.0832 87.2483 56.1644 87.1671C56.2455 87.086 56.1644 87.0048 56.0426 86.9236L52.3092 82.9467L52.9585 82.5004C53.0397 82.4192 52.9585 82.1757 52.9179 82.1351C52.8368 82.054 52.6744 82.0134 52.5933 82.0946L52.1469 82.7844L48.2512 78.767Z" fill="#2C2C2B"/>
<path fill-rule="evenodd" clip-rule="evenodd" d="M116.182 47.4387L128.641 43.6241L129.98 47.9257L125.638 49.2648L130.751 50.5634L131.968 54.4997L118.861 58.5172L117.521 54.2157L121.782 52.9171L116.71 51.5779L115.533 47.7633L115.411 47.8445L113.22 43.9082L117.116 41.7574L111.881 41.5139L109.892 37.9023L121.904 31.2471L124.095 35.1834L120.159 37.3747L125.435 37.5776L127.423 41.1893L116.182 47.4387ZM106.037 25.5658C106.24 25.3223 106.484 25.0788 106.727 24.8353C108.107 23.4962 109.771 22.5222 111.718 22.4817C113.545 22.4411 115.127 23.2121 116.385 24.5107C117.481 25.6469 118.171 27.0267 118.171 28.6093C118.171 29.6238 117.806 30.6383 117.319 31.5311L116.71 32.5862L112.692 30.0296L113.342 29.0151C113.504 28.7716 113.585 28.4876 113.585 28.2035C113.545 27.9195 113.423 27.676 113.22 27.4325C112.895 27.1078 112.53 26.9049 112.043 26.9455C111.394 26.9861 110.582 27.676 110.136 28.0818C109.689 28.5282 108.878 29.3804 108.837 30.0296C108.797 30.476 108.918 30.8413 109.243 31.1659C109.446 31.3688 109.689 31.5311 110.014 31.5311C110.42 31.5717 110.947 31.3282 111.272 31.1253L112.368 30.476L114.478 34.737L113.463 35.2645C112.246 35.9138 110.907 36.3196 109.527 36.0761C108.188 35.8732 107.052 35.1428 106.118 34.1689C104.901 32.9109 104.252 31.3282 104.333 29.5427C104.414 28.1629 104.901 26.9861 105.713 25.931L105.266 26.2962C104.211 27.189 102.953 27.7977 101.573 27.8383C100.234 27.8789 98.9356 27.3919 97.8399 26.6209C96.379 25.6064 95.4456 24.186 95.2021 22.4411C94.9181 20.5744 95.5674 18.7888 96.6225 17.2873C97.7181 15.7453 99.179 14.4467 101.086 14.0409C102.872 13.6757 104.576 14.1221 106.078 15.1366C107.376 16.0293 108.31 17.2468 108.634 18.8294C108.837 19.8439 108.675 20.8584 108.35 21.8324L107.944 23.0092L103.521 21.2642L103.968 20.1686C104.089 19.8845 104.13 19.6004 104.049 19.3164C103.968 19.0323 103.765 18.8294 103.521 18.6265C103.115 18.3424 102.75 18.2613 102.304 18.383C101.654 18.5453 101.005 19.357 100.64 19.8845C100.275 20.412 99.666 21.386 99.7066 22.0353C99.7472 22.4817 99.9501 22.8063 100.315 23.0904C100.559 23.2527 100.802 23.3338 101.127 23.2933C101.533 23.2527 101.979 22.8875 102.304 22.644L103.237 21.7918L106.037 25.5658ZM33.4791 29.9079C33.2762 31.1659 32.6269 32.2616 31.7341 33.1543C30.5167 34.4529 28.9747 35.1428 27.1891 35.1022C25.2818 35.0616 23.6586 34.1689 22.3194 32.8703C20.9397 31.5311 19.9252 29.9079 19.8034 27.96C19.7223 26.1339 20.4122 24.5107 21.6702 23.2121C22.7658 22.0759 24.105 21.3454 25.6876 21.2642C26.7021 21.2237 27.7167 21.5483 28.6094 22.0353L29.7051 22.6034L27.2703 26.702L26.2558 26.0933C26.0123 25.931 25.7282 25.8498 25.4441 25.8904C25.1601 25.931 24.9166 26.0933 24.7137 26.2962C24.3891 26.6209 24.2267 26.9861 24.2673 27.4731C24.3079 28.1224 25.0383 28.8934 25.4847 29.3398C25.9311 29.7862 26.8239 30.5572 27.4732 30.5978C27.9196 30.6383 28.2848 30.476 28.6094 30.1514C28.8123 29.9485 28.9341 29.705 28.9341 29.3804C28.9341 28.9745 28.6906 28.447 28.4471 28.1224L27.7572 27.0673L31.937 24.7947L32.3834 25.5658L30.0703 16.1511L33.3574 13.838L42.488 19.8033L42.3662 8.84659L46.0997 7.34511L56.4071 18.0584L51.6998 19.9657L49.8331 17.9366L47.1547 19.0323L47.2359 21.7918L44.6388 22.8469L41.6764 24.9165L39.3633 23.3744L37.0096 25.0382L37.7401 27.676L33.6414 30.5572L33.4791 29.9079ZM17.7338 45.8561C16.9222 45.6532 16.1106 45.3285 15.3802 44.8821C14.3657 44.314 13.4323 43.5835 12.7424 42.6502C12.296 42.0415 11.9714 41.311 11.7279 40.5806C11.525 39.8501 11.4438 39.0791 11.525 38.3487C11.6468 37.3747 12.012 36.4008 12.4989 35.5486C13.4323 33.9254 14.7715 32.7485 16.5976 32.3022C18.4643 31.8152 20.331 32.3427 21.9948 33.2761C23.6586 34.2094 24.9978 35.5486 25.5253 37.4153C26.0529 39.2008 25.6876 40.9864 24.7543 42.569C23.8209 44.1923 22.4818 45.3691 20.6556 45.8561C20.2093 45.9778 19.8034 46.0184 19.3571 46.0184L24.1861 47.7633L22.7252 51.7808L20.4122 50.9286L18.7889 55.4331L21.102 56.2853L19.6411 60.3027L13.3106 58.0302L13.7569 56.7317C13.1482 56.2041 12.4584 55.7983 11.7279 55.4331C10.3076 54.7432 8.84669 54.1345 7.34521 53.607L5.11328 52.7953L8.60321 43.1777L17.4904 46.4242L17.7338 45.8561ZM62.9812 16.1105L63.1841 17.5308L58.5985 18.1801L58.3956 16.7598C57.0564 16.7598 55.7172 16.5163 54.6622 15.6235C53.5259 14.6902 52.9172 13.3916 52.7143 11.9713C52.5114 10.4698 52.7549 9.04949 53.6476 7.83207C54.4187 6.77698 55.5955 6.16827 56.8535 5.80305L56.6912 4.58563L61.2768 3.93634L61.4391 5.15376C62.7377 5.15376 64.1174 5.39724 65.1319 6.24943C66.2682 7.18278 66.8769 8.48136 67.1204 9.94226C67.3233 11.4032 67.0798 12.7829 66.2682 14.0003C65.4972 15.1366 64.2797 15.7453 62.9812 16.1105ZM77.0626 13.6757L76.3728 17.8961L71.7871 17.1656L73.9379 3.61169L78.7264 4.38273C79.6598 4.54505 80.8366 4.70737 81.6888 5.07259C82.5816 5.43782 83.2309 6.08711 83.6773 6.9393C84.2048 7.87265 84.286 8.92775 84.1236 9.98284C84.0019 10.7945 83.7178 11.5655 83.2309 12.1742C82.8251 12.7423 82.2975 13.1887 81.6888 13.4728C81.1613 13.7163 80.5526 13.9192 79.9844 13.9192C79.1322 13.9597 78.2395 13.838 77.3873 13.6757H77.0626ZM83.6773 12.3365C84.0831 11.2408 84.6106 10.1857 85.4222 9.37414C85.9498 8.80601 86.5991 8.35962 87.2889 8.03498C87.9788 7.71033 88.7093 7.50743 89.4803 7.46685C90.4948 7.42627 91.4687 7.62917 92.4021 7.95381C94.147 8.6031 95.5674 9.69878 96.3384 11.4032C97.15 13.1887 96.9471 15.096 96.2978 16.8815C95.6485 18.6671 94.5528 20.2091 92.8079 21.0613C91.1035 21.8729 89.318 21.8324 87.6136 21.1831C85.8686 20.5338 84.4483 19.4381 83.6773 17.7337C82.8656 15.9888 83.028 14.0815 83.6773 12.3365ZM10.7134 49.9953C12.296 50.604 13.9598 51.3344 15.4207 52.2678L15.9483 50.8069L11.0786 49.0213L10.7134 49.9953ZM17.6933 40.7835C18.302 41.1487 19.1136 41.4734 19.844 41.3516C20.4122 41.2299 20.7774 40.9458 21.0614 40.4588C21.3455 39.9719 21.4267 39.5255 21.2238 38.9979C20.9803 38.3081 20.2498 37.7399 19.6411 37.4153C19.073 37.0907 18.2208 36.6849 17.5309 36.8472C16.9628 36.9689 16.6382 37.2936 16.3541 37.7805C16.07 38.2675 15.9889 38.7545 16.1512 39.282C16.3135 39.8907 17.0845 40.4183 17.6933 40.7835ZM62.3725 11.6872C62.4536 11.6061 62.5348 11.5249 62.5754 11.4437C62.6565 11.2003 62.6159 10.7539 62.5754 10.5104C62.4942 10.0234 62.3725 9.69878 62.0478 9.53646L62.3725 11.6872ZM57.8274 12.3365L57.5028 10.1452C57.4622 10.1857 57.4622 10.1857 57.4622 10.2263C57.2593 10.5104 57.2593 11.0379 57.3405 11.3626C57.3811 11.8901 57.5028 12.1742 57.8274 12.3365ZM77.8742 8.6031L77.7525 9.4553H77.8337C78.1177 9.49588 78.9699 9.61762 79.2134 9.57704C79.2946 9.57704 79.3351 9.53646 79.4163 9.49588C79.4569 9.4553 79.4975 9.37413 79.4975 9.29297C79.4975 9.21181 79.4975 9.13065 79.4569 9.04949C79.4163 8.96833 79.3351 8.92775 79.2134 8.88717C78.8076 8.72485 78.28 8.64368 77.8742 8.6031ZM87.9788 16.0699C88.1817 16.5975 88.5469 16.9221 89.0745 17.125C89.602 17.3279 90.0484 17.2873 90.576 17.0439C91.2252 16.6786 91.6311 15.867 91.8745 15.1772C92.118 14.5279 92.3209 13.6351 92.0774 12.9858C91.8745 12.4583 91.4687 12.1742 90.9818 11.9713C90.4542 11.7684 89.9672 11.7684 89.4803 12.0525C88.831 12.3771 88.4658 13.2293 88.2223 13.8786C87.8976 14.5279 87.6947 15.3801 87.9788 16.0699Z" fill="white"/>
<path fill-rule="evenodd" clip-rule="evenodd" d="M43.1778 20.9396L43.0154 9.29299L46.0184 8.07558L55.3925 17.8149L51.9026 19.2352L50.0359 17.2062L46.5865 18.5859L46.6677 21.3454L44.3952 22.2788L41.7169 24.1455L39.3632 22.6034L36.3197 24.7542L37.0501 27.3919L34.0066 29.5021L30.8007 16.4352L33.4384 14.5685L43.1778 20.9396ZM17.8961 47.1952L18.2207 46.2619L23.4556 48.1692L22.4005 51.091L20.0874 50.2388L18.0584 55.8389L20.3715 56.6911L19.3164 59.6129L14.0815 57.7056L14.4873 56.6099C13.7569 55.9201 12.9452 55.3925 12.0525 54.9461C10.6322 54.2157 9.09009 53.6476 7.62919 53.0794L5.9248 52.4707L9.00893 43.9894L17.8961 47.1952ZM15.6641 44.3952C14.7308 43.8676 13.838 43.1778 13.2293 42.3256C12.8235 41.7575 12.4989 41.1082 12.3365 40.4589C12.1336 39.8096 12.0931 39.1197 12.1742 38.4298C12.296 37.4965 12.6206 36.6443 13.067 35.8733C13.9192 34.4124 15.1366 33.3167 16.8004 32.9109C18.5454 32.4645 20.2497 32.9515 21.7512 33.8442C23.2527 34.6964 24.5107 35.9138 24.9977 37.6588C25.4846 39.282 25.1194 40.9053 24.3078 42.3662C23.4556 43.8271 22.2382 44.9633 20.5744 45.3691C18.8294 45.6938 17.1656 45.2474 15.6641 44.3952ZM28.6499 27.3108L31.7746 25.6064L32.0587 26.0933C32.6674 27.1484 33.0732 28.3659 32.9515 29.6239C32.7891 30.8413 32.1804 31.8964 31.3282 32.7486C30.192 33.9254 28.8122 34.5341 27.189 34.5341C25.4441 34.4935 23.9426 33.6819 22.7252 32.4645C21.4672 31.2471 20.4932 29.7456 20.4121 27.9601C20.3309 26.2963 20.9802 24.8354 22.1165 23.6585C23.0904 22.644 24.3078 21.9541 25.7687 21.9135C26.7021 21.873 27.5948 22.157 28.4064 22.6034L28.934 22.8875L27.1079 25.9716L26.5803 25.647C26.2151 25.4035 25.8093 25.3223 25.3629 25.3629C24.9165 25.4035 24.5513 25.647 24.2672 25.931C23.8208 26.3774 23.6179 26.905 23.6585 27.5542C23.7397 28.3659 24.4701 29.2181 25.0383 29.7862C25.6064 30.3543 26.5803 31.1253 27.3919 31.2065C28.0412 31.2471 28.5282 31.0442 28.9746 30.5572C29.2992 30.2326 29.4615 29.8673 29.5021 29.421C29.5427 28.8528 29.2181 28.2847 28.934 27.8383L28.6499 27.3108ZM62.3318 15.6641L62.5347 17.0033L59.1259 17.4903L58.923 16.1511C57.5839 16.2323 56.123 16.0699 55.0679 15.1772C54.0534 14.325 53.4852 13.1887 53.3229 11.8901C53.12 10.551 53.3229 9.25241 54.1345 8.15674C54.9461 7.10164 56.2447 6.53351 57.5027 6.24945L57.3404 5.11319L60.7491 4.62623L60.9115 5.76248C62.2506 5.68132 63.7115 5.84364 64.7666 6.73642C65.7811 7.58861 66.3493 8.72486 66.5116 10.064C66.7145 11.3626 66.471 12.6206 65.7406 13.7163C65.0101 14.8119 63.6304 15.3801 62.3318 15.6641ZM76.5756 12.9858L75.8857 17.2468L72.4364 16.7192L74.3842 4.34216L78.6046 4.99145C79.4162 5.11319 80.6742 5.3161 81.4047 5.64074C82.1757 5.96539 82.7438 6.53351 83.1496 7.26396C83.596 8.07558 83.6772 9.00893 83.5148 9.94228C83.3931 10.6322 83.1902 11.322 82.7438 11.8901C82.3786 12.3771 81.9322 12.7423 81.4047 13.0264C80.9583 13.2699 80.4307 13.3916 79.9032 13.4322C79.0916 13.4728 78.1988 13.351 77.4278 13.2293L76.5756 12.9858ZM84.2047 12.5394C84.5699 11.5249 85.0569 10.551 85.8279 9.77996C86.3149 9.29299 86.883 8.84661 87.5323 8.56254C88.141 8.27848 88.7903 8.07558 89.4802 8.03499C90.4135 7.99441 91.3063 8.15674 92.1585 8.48138C93.7411 9.04951 95.0397 10.064 95.7296 11.6467C96.46 13.2699 96.2977 15.0149 95.689 16.6787C95.0803 18.3019 94.1064 19.7628 92.5237 20.5338C90.9817 21.2643 89.3585 21.2237 87.7758 20.6556C86.1932 20.0874 84.8946 19.0729 84.1641 17.4903C83.4743 15.867 83.6366 14.1627 84.2047 12.5394ZM103.156 22.7657L105.307 25.5658L104.86 25.931C103.886 26.7021 102.791 27.3108 101.533 27.3513C100.315 27.3919 99.1789 26.9455 98.1644 26.2557C96.8253 25.3223 96.0137 24.0643 95.7702 22.4411C95.5267 20.7367 96.1354 19.1135 97.1093 17.7338C98.1239 16.3134 99.4224 15.096 101.208 14.7308C102.831 14.3656 104.373 14.8119 105.712 15.7453C106.889 16.5569 107.741 17.6526 108.026 19.0729C108.228 19.9657 108.066 20.899 107.741 21.7512L107.539 22.3194L104.252 21.0208L104.495 20.4526C104.657 20.0468 104.698 19.641 104.576 19.2352C104.454 18.8294 104.17 18.5048 103.846 18.2613C103.318 17.8961 102.75 17.7743 102.141 17.9367C101.33 18.1396 100.599 18.9917 100.153 19.641C99.7065 20.2903 99.0572 21.3454 99.1384 22.1976C99.1789 22.8469 99.5036 23.2933 100.031 23.6585C100.396 23.902 100.802 24.0237 101.249 23.9832C101.817 23.902 102.344 23.5368 102.75 23.1715L103.156 22.7657ZM111.718 23.0904C113.382 23.0498 114.802 23.7397 115.939 24.9571C116.913 25.9716 117.562 27.2296 117.562 28.6499C117.562 29.5833 117.237 30.476 116.791 31.2471L116.466 31.7746L113.463 29.8673L113.788 29.3804C114.031 29.0151 114.153 28.6093 114.113 28.2035C114.072 27.7572 113.869 27.3919 113.544 27.1079C113.098 26.6615 112.571 26.418 111.921 26.4586C111.069 26.4992 110.217 27.2296 109.649 27.7572C109.081 28.3253 108.228 29.2181 108.147 30.0702C108.066 30.7195 108.269 31.2065 108.715 31.6935C109.04 32.0181 109.405 32.221 109.852 32.2616C110.42 32.3022 111.028 32.0181 111.475 31.7746L112.043 31.45L113.626 34.6153L113.139 34.8993C112.043 35.508 110.826 35.8733 109.608 35.6704C108.391 35.4675 107.376 34.8182 106.524 33.966C105.388 32.7891 104.82 31.4094 104.901 29.7862C104.982 28.0412 105.875 26.5803 107.092 25.4035C108.391 24.0643 109.933 23.131 111.718 23.0904ZM118.049 37.8617L125.11 38.1458L126.652 40.9458L115.695 47.0329L114.072 44.1111L119.266 41.2299L112.286 40.9053L110.744 38.1052L121.701 32.0181L123.324 34.9399L118.049 37.8617ZM123.446 49.3054L130.304 51.0504L131.238 54.1345L119.226 57.7868L118.252 54.6215L123.933 52.8765L117.197 51.091L116.263 48.0069L128.275 44.3546L129.249 47.5605L123.446 49.3054ZM9.98286 50.3199C11.8496 51.0098 14.0815 51.9837 15.7047 53.1606L16.6787 50.4417L10.7133 48.2503L9.98286 50.3199ZM17.3685 41.2705C18.099 41.7169 19.0323 42.0821 19.9251 41.8792C20.6556 41.7169 21.1425 41.3516 21.5077 40.7024C21.873 40.0531 21.9541 39.4444 21.7106 38.7545C21.4266 37.9023 20.615 37.253 19.8439 36.8472C19.1135 36.4414 18.1801 36.0356 17.3279 36.1979C16.5975 36.3602 16.1105 36.766 15.7453 37.4153C15.3801 38.0646 15.2583 38.7139 15.5018 39.4038C15.8265 40.2154 16.6381 40.8647 17.3685 41.2705ZM36.6443 20.7773L34.9805 19.6005L35.508 21.5483L36.6443 20.7773ZM47.7228 14.8119L46.343 13.3105L46.4242 15.3395L47.7228 14.8119ZM61.926 12.58C62.1695 12.4989 62.3724 12.4177 62.6159 12.296C62.8593 12.1336 63.0622 11.9307 63.184 11.6467C63.3057 11.2814 63.2651 10.7539 63.2246 10.4292C63.0622 9.25241 62.4129 8.80603 61.439 8.80603L61.926 12.58ZM58.5172 13.067L57.9897 9.29299C57.5839 9.41473 57.2186 9.57706 56.9752 9.86112C56.6505 10.3075 56.6505 10.9162 56.7317 11.4438C56.894 12.6612 57.5027 13.067 58.5172 13.067ZM77.3872 7.91325L77.0625 9.94228L77.7118 10.064C78.077 10.1046 78.9292 10.2669 79.2945 10.1858C79.4974 10.1452 79.6597 10.064 79.7814 9.9017C79.9032 9.73938 79.9843 9.57706 80.0249 9.37415C80.0655 9.13067 80.0249 8.92777 79.9032 8.72486C79.7814 8.52196 79.5785 8.40022 79.3756 8.31906C78.9698 8.15674 78.3205 8.07558 77.8741 7.99441L77.3872 7.91325ZM87.5729 13.6757C87.2888 14.4873 87.0859 15.4612 87.4106 16.3134C87.6946 17.0033 88.141 17.4497 88.8309 17.6932C89.5208 17.9367 90.1701 17.8961 90.8194 17.5714C91.5904 17.125 92.0773 16.2323 92.402 15.4207C92.6861 14.6496 92.9295 13.6351 92.6049 12.8235C92.3208 12.1336 91.8339 11.7278 91.144 11.4843C90.4541 11.2409 89.8048 11.2409 89.1555 11.5655C88.3439 11.9307 87.857 12.8641 87.5729 13.6757Z" fill="#2C2C2B"/>
<path fill-rule="evenodd" clip-rule="evenodd" d="M6.65527 52.0649L9.33359 44.6792L18.2207 47.9257L18.5454 46.9923L22.6846 48.4938L22.0353 50.2794L19.7222 49.4272L17.2874 56.1635L19.6005 57.0157L18.9512 58.8013L14.812 57.2998L15.1366 56.407C14.3656 55.636 13.4322 54.9461 12.2554 54.378C11.1191 53.8099 9.61766 53.1606 7.75095 52.5113L6.65527 52.0649ZM9.21185 50.6852C12.4583 51.862 14.7308 53.0388 15.9888 54.1345L17.4497 50.0765L10.3481 47.4793L9.21185 50.6852ZM15.9888 43.8676C14.9743 43.2995 14.2438 42.6502 13.7163 41.9604C13.3511 41.4328 13.067 40.8647 12.9047 40.256C12.7424 39.6473 12.6612 39.0386 12.7424 38.4704C12.8235 37.6994 13.1076 36.9284 13.5946 36.1167C14.4467 34.6558 15.5424 33.7631 16.9627 33.3979C18.3831 33.0326 19.8845 33.3167 21.4672 34.25C23.0498 35.1834 24.0643 36.3197 24.4296 37.6994C24.8354 39.0791 24.5919 40.4995 23.7803 41.9198C22.9281 43.3807 21.8324 44.2734 20.4121 44.6387C19.0323 45.0445 17.5309 44.7604 15.9888 43.8676ZM17.0845 41.798C18.1802 42.4473 19.1947 42.6502 20.0469 42.4879C20.8991 42.285 21.5889 41.798 22.0353 41.027C22.4817 40.256 22.6034 39.4038 22.3194 38.5922C22.0353 37.74 21.3454 37.0095 20.2092 36.3602C19.0729 35.7109 18.099 35.4675 17.2468 35.6298C16.3946 35.7921 15.7453 36.3197 15.2584 37.1313C14.7714 37.9429 14.6902 38.7545 14.9743 39.6067C15.2584 40.4183 15.9482 41.1487 17.0845 41.798ZM29.5021 27.5137L31.5717 26.418C32.221 27.5137 32.5051 28.5688 32.3834 29.5427C32.2616 30.5166 31.7746 31.45 30.9225 32.3428C29.8674 33.4384 28.6499 33.966 27.2296 33.9254C25.8093 33.9254 24.4701 33.2761 23.1716 32.0181C21.7918 30.7195 21.102 29.3398 21.0208 27.9195C20.9396 26.4992 21.4672 25.2006 22.5629 24.0643C23.5368 23.0498 24.5919 22.5223 25.8093 22.4817C26.4992 22.4411 27.2702 22.644 28.1224 23.0904L26.9456 25.1194C26.418 24.7948 25.8905 24.673 25.3629 24.7542C24.8354 24.8354 24.3484 25.0788 23.902 25.5252C23.3339 26.1339 23.0498 26.8238 23.131 27.6354C23.2121 28.447 23.7397 29.2992 24.7136 30.2326C25.7281 31.2471 26.6615 31.7746 27.4731 31.8152C28.2847 31.8558 28.9746 31.6123 29.5427 31.0036C29.9485 30.5572 30.192 30.0702 30.2326 29.4615C30.1514 28.8934 29.9485 28.2441 29.5021 27.5137ZM43.7053 22.0353L41.6763 23.4556L39.3632 21.9136L35.6298 24.5107L36.3602 27.1484L34.3718 28.5282L31.4906 16.6787L33.479 15.2989L43.7053 22.0353ZM37.6588 20.7773L33.966 18.2207L35.1428 22.5628L37.6588 20.7773ZM54.3374 17.612L52.0243 18.5454L50.1576 16.5163L45.9373 18.2207L46.0184 20.9802L43.7459 21.873L43.5836 9.6988L45.8155 8.80603L54.3374 17.612ZM48.7373 15.0554L45.6938 11.7278L45.8561 16.1917L48.7373 15.0554ZM61.6825 15.1772L61.8854 16.4758L59.6535 16.8004L59.4506 15.5018C57.6245 15.7047 56.3259 15.4207 55.4737 14.6902C54.6215 13.9598 54.094 12.9858 53.9316 11.7684C53.7287 10.4698 53.9722 9.37416 54.6621 8.48138C55.3114 7.58861 56.5288 6.9799 58.2332 6.65526L58.0709 5.55958L60.3028 5.23494L60.4651 6.33061C62.2507 6.12771 63.5898 6.41177 64.442 7.10164C65.2942 7.79151 65.8217 8.80603 65.9841 10.0234C66.1464 11.2814 65.9435 12.3365 65.2942 13.2699C64.6449 14.2438 63.4681 14.8931 61.6825 15.1772ZM61.3985 13.3105C62.0072 13.2293 62.4941 13.067 62.8999 12.7829C63.3057 12.5394 63.5492 12.2148 63.7116 11.8496C63.8333 11.4843 63.8739 10.9974 63.7927 10.3481C63.5492 8.72487 62.5347 8.035 60.7492 8.27848L61.3985 13.3105ZM59.1665 13.5945L58.4767 8.56255C57.5027 8.68429 56.8534 9.00893 56.4882 9.4959C56.123 9.98286 56.0012 10.6727 56.123 11.5249C56.3665 13.1887 57.381 13.8786 59.1665 13.5945ZM73.1262 16.1917L74.9118 4.99146L78.564 5.55958C79.9438 5.76249 80.8366 5.96539 81.2424 6.16829C81.8511 6.45236 82.338 6.89874 82.7033 7.50745C83.0279 8.15674 83.1497 8.88719 83.0279 9.77996C82.9062 10.4698 82.7033 11.038 82.3786 11.4438C82.054 11.8902 81.6887 12.1742 81.2424 12.4177C80.796 12.6206 80.3902 12.7423 79.9844 12.7423C79.4162 12.7829 78.6452 12.7018 77.5901 12.5394L76.1292 12.296L75.4393 16.5163L73.1262 16.1917ZM76.8597 7.22339L76.3727 10.3887L77.6307 10.5916C78.5235 10.7133 79.1322 10.7539 79.4568 10.7133C79.7815 10.6322 80.0249 10.5104 80.2684 10.2669C80.4713 10.0234 80.5931 9.77996 80.6742 9.45532C80.7554 9.04951 80.6742 8.68429 80.4713 8.40022C80.2684 8.11616 79.9844 7.87268 79.6597 7.75093C79.4162 7.66977 78.8481 7.54803 78.0365 7.42629L76.8597 7.22339ZM84.7729 12.7423C85.1787 11.6467 85.6656 10.7945 86.2744 10.1858C86.7207 9.73938 87.2077 9.37416 87.8164 9.09009C88.3845 8.80603 88.9527 8.64371 89.5614 8.64371C90.3324 8.60313 91.144 8.72487 91.9962 9.04951C93.5788 9.61764 94.6339 10.551 95.2427 11.8902C95.8514 13.1887 95.8108 14.7308 95.1615 16.4758C94.5528 18.2207 93.5788 19.357 92.2803 20.0063C90.9817 20.6556 89.5614 20.6556 87.9787 20.0874C86.3961 19.5193 85.3004 18.5454 84.7323 17.2468C84.1236 15.9482 84.1642 14.4467 84.7729 12.7423ZM87.0048 13.4728C86.5584 14.6902 86.5178 15.7047 86.8425 16.5163C87.1671 17.3279 87.7758 17.8961 88.628 18.2207C89.4802 18.5454 90.2918 18.4642 91.0629 18.0584C91.8339 17.6526 92.4426 16.8004 92.889 15.583C93.3354 14.3656 93.4165 13.3511 93.0919 12.5394C92.7672 11.7278 92.1585 11.2003 91.2658 10.8756C90.373 10.551 89.5614 10.5916 88.7903 10.9974C88.0599 11.4032 87.4918 12.2148 87.0048 13.4728ZM103.075 23.6179L104.495 25.4846C103.521 26.2963 102.507 26.7426 101.533 26.7832C100.559 26.8238 99.5442 26.4992 98.5297 25.8093C97.3123 24.9571 96.5818 23.8208 96.3789 22.4005C96.176 20.9802 96.5818 19.5599 97.5963 18.099C98.692 16.5569 99.9094 15.6236 101.33 15.3395C102.709 15.0554 104.089 15.3395 105.388 16.2729C106.524 17.0845 107.214 18.0584 107.457 19.2352C107.62 19.9251 107.539 20.7367 107.214 21.6295L105.023 20.7773C105.266 20.2092 105.307 19.6816 105.144 19.1541C104.982 18.6265 104.657 18.1801 104.17 17.8555C103.481 17.3685 102.75 17.2468 101.979 17.4091C101.208 17.612 100.437 18.2613 99.6659 19.357C98.8543 20.5338 98.4485 21.5077 98.5297 22.3194C98.6108 23.131 98.9761 23.7397 99.6659 24.2266C100.153 24.5919 100.721 24.7136 101.289 24.673C101.817 24.5107 102.425 24.1861 103.075 23.6179ZM111.84 32.1804L112.895 34.25C111.759 34.8588 110.704 35.1022 109.73 34.9399C108.756 34.7776 107.823 34.2906 106.97 33.3979C105.915 32.3022 105.428 31.0442 105.51 29.6644C105.591 28.2441 106.24 26.905 107.539 25.6875C108.918 24.389 110.298 23.6991 111.718 23.6991C113.139 23.6585 114.397 24.2266 115.533 25.3629C116.507 26.3774 116.994 27.4731 116.994 28.6499C116.994 29.3398 116.791 30.1108 116.304 30.9224L114.316 29.6644C114.64 29.1775 114.802 28.6499 114.721 28.0818C114.681 27.5543 114.437 27.0673 113.991 26.6209C113.423 26.0122 112.733 25.7281 111.921 25.7687C111.11 25.8093 110.257 26.2963 109.284 27.2296C108.269 28.2441 107.701 29.1369 107.62 29.9079C107.539 30.7195 107.782 31.4094 108.35 31.9775C108.756 32.4239 109.284 32.6674 109.852 32.708C110.46 32.8297 111.11 32.6268 111.84 32.1804ZM121.458 32.8297L122.513 34.6964L115.898 38.3487L124.745 38.7139L125.84 40.7024L115.898 46.2213L114.843 44.3546L121.336 40.7429L112.611 40.3371L111.515 38.3487L121.458 32.8297ZM127.869 45.0851L128.478 47.1547L121.255 49.346L129.858 51.5374L130.507 53.7287L119.632 57.0563L119.023 54.9867L126.124 52.8359L117.684 50.604L116.994 48.4127L127.869 45.0851Z" fill="#FFCC00"/>
</g>
<defs>
<clipPath id="clip0_402_4446">
<rect width="137" height="137" fill="white"/>
</clipPath>
</defs>
</svg>
